<svg width="900" height="650" xmlns="http://www.w3.org/2000/svg" viewBox="0 0 900 650">
<rect width="900" height="650" fill="#1e1e1e"/>
<text x="450" y="28" text-anchor="middle" font-size="18" font-weight="bold" font-family="sans-serif" fill="#ffffff">3D Line — Parametric Helix</text>
<line x1="137.5" y1="133.6" x2="450.0" y2="-22.7" stroke="#cccccc" stroke-width="1" opacity="0.5"/>
<line x1="450.0" y1="-22.7" x2="762.5" y2="133.6" stroke="#cccccc" stroke-width="1" opacity="0.5"/>
<line x1="762.5" y1="133.6" x2="450.0" y2="289.9" stroke="#cccccc" stroke-width="1" opacity="0.5"/>
<line x1="450.0" y1="289.9" x2="137.5" y2="133.6" stroke="#cccccc" stroke-width="1" opacity="0.5"/>
<line x1="137.5" y1="516.4" x2="450.0" y2="360.1" stroke="#cccccc" stroke-width="1" opacity="0.5"/>
<line x1="450.0" y1="360.1" x2="762.5" y2="516.4" stroke="#cccccc" stroke-width="1" opacity="0.5"/>
<line x1="762.5" y1="516.4" x2="450.0" y2="672.7" stroke="#cccccc" stroke-width="1" opacity="0.5"/>
<line x1="450.0" y1="672.7" x2="137.5" y2="516.4" stroke="#cccccc" stroke-width="1" opacity="0.5"/>
<line x1="137.5" y1="133.6" x2="137.5" y2="516.4" stroke="#cccccc" stroke-width="1" opacity="0.5"/>
<line x1="450.0" y1="-22.7" x2="450.0" y2="360.1" stroke="#cccccc" stroke-width="1" opacity="0.5"/>
<line x1="762.5" y1="133.6" x2="762.5" y2="516.4" stroke="#cccccc" stroke-width="1" opacity="0.5"/>
<line x1="450.0" y1="289.9" x2="450.0" y2="672.7" stroke="#cccccc" stroke-width="1" opacity="0.5"/>
<line x1="137.5" y1="133.6" x2="450.0" y2="289.9" stroke="#444444" stroke-width="0.6" opacity="0.5"/>
<line x1="137.5" y1="133.6" x2="450.0" y2="-22.7" stroke="#444444" stroke-width="0.6" opacity="0.5"/>
<line x1="200.0" y1="102.4" x2="512.5" y2="258.6" stroke="#444444" stroke-width="0.6" opacity="0.5"/>
<line x1="200.0" y1="164.9" x2="512.5" y2="8.6" stroke="#444444" stroke-width="0.6" opacity="0.5"/>
<line x1="262.5" y1="71.1" x2="575.0" y2="227.4" stroke="#444444" stroke-width="0.6" opacity="0.5"/>
<line x1="262.5" y1="196.1" x2="575.0" y2="39.8" stroke="#444444" stroke-width="0.6" opacity="0.5"/>
<line x1="325.0" y1="39.8" x2="637.5" y2="196.1" stroke="#444444" stroke-width="0.6" opacity="0.5"/>
<line x1="325.0" y1="227.4" x2="637.5" y2="71.1" stroke="#444444" stroke-width="0.6" opacity="0.5"/>
<line x1="387.5" y1="8.6" x2="700.0" y2="164.9" stroke="#444444" stroke-width="0.6" opacity="0.5"/>
<line x1="387.5" y1="258.6" x2="700.0" y2="102.4" stroke="#444444" stroke-width="0.6" opacity="0.5"/>
<line x1="450.0" y1="-22.7" x2="762.5" y2="133.6" stroke="#444444" stroke-width="0.6" opacity="0.5"/>
<line x1="450.0" y1="289.9" x2="762.5" y2="133.6" stroke="#444444" stroke-width="0.6" opacity="0.5"/>
<text x="137.5" y="147.6" text-anchor="middle" font-size="9" font-family="sans-serif" fill="#ffffff">-1.00</text>
<text x="131.5" y="137.6" text-anchor="end" font-size="9" font-family="sans-serif" fill="#ffffff">-1.00</text>
<text x="131.5" y="137.6" text-anchor="end" font-size="9" font-family="sans-serif" fill="#ffffff">0</text>
<text x="215.6" y="108.5" text-anchor="middle" font-size="9" font-family="sans-serif" fill="#ffffff">-0.50</text>
<text x="209.6" y="176.7" text-anchor="end" font-size="9" font-family="sans-serif" fill="#ffffff">-0.50</text>
<text x="131.5" y="233.3" text-anchor="end" font-size="9" font-family="sans-serif" fill="#ffffff">0.75</text>
<text x="293.7" y="69.5" text-anchor="middle" font-size="9" font-family="sans-serif" fill="#ffffff">0.00</text>
<text x="287.7" y="215.7" text-anchor="end" font-size="9" font-family="sans-serif" fill="#ffffff">0</text>
<text x="131.5" y="329.0" text-anchor="end" font-size="9" font-family="sans-serif" fill="#ffffff">1.50</text>
<text x="371.9" y="30.4" text-anchor="middle" font-size="9" font-family="sans-serif" fill="#ffffff">0.50</text>
<text x="365.9" y="254.8" text-anchor="end" font-size="9" font-family="sans-serif" fill="#ffffff">0.50</text>
<text x="131.5" y="424.7" text-anchor="end" font-size="9" font-family="sans-serif" fill="#ffffff">2.25</text>
<text x="450.0" y="-8.7" text-anchor="middle" font-size="9" font-family="sans-serif" fill="#ffffff">1.00</text>
<text x="444.0" y="293.9" text-anchor="end" font-size="9" font-family="sans-serif" fill="#ffffff">1.00</text>
<text x="131.5" y="520.4" text-anchor="end" font-size="9" font-family="sans-serif" fill="#ffffff">3</text>
<text x="262.5" y="39.8" text-anchor="middle" font-size="11" font-weight="600" font-family="sans-serif" fill="#ffffff">cos(t)</text>
<text x="262.5" y="227.4" text-anchor="middle" font-size="11" font-weight="600" font-family="sans-serif" fill="#ffffff">sin(t)</text>
<text x="106.2" y="340.6" text-anchor="middle" font-size="11" font-weight="600" font-family="sans-serif" fill="#ffffff">t</text>
<polyline points="606.3,55.5 613.5,60.2 620.3,65.1 626.8,70.2 632.8,75.4 638.5,80.7 643.7,86.2 648.5,91.8 652.9,97.5 656.8,103.3 660.3,109.2 663.2,115.1 665.7,121.2 667.8,127.3 669.3,133.4 670.4,139.5 670.9,145.7 671.0,151.9 670.5,158.1 669.6,164.2 668.2,170.3 666.3,176.4 663.9,182.5 661.1,188.5 657.7,194.4 653.9,200.2 649.7,205.9 645.0,211.5 639.8,217.0 634.3,222.4 628.3,227.7 622.0,232.8 615.2,237.7 608.1,242.5 600.6,247.1 592.8,251.5 584.7,255.8 576.3,259.8 567.6,263.6 558.6,267.3 549.4,270.7 539.9,273.9 530.3,276.9 520.5,279.6 510.5,282.1 500.4,284.4 490.2,286.4 479.9,288.2 469.5,289.7 459.1,291.0 448.7,292.1 438.2,292.9 427.8,293.5 417.5,293.8 407.2,293.8 397.0,293.7 386.9,293.3 377.0,292.6 367.2,291.7 357.6,290.6 348.2,289.3 339.1,287.7 330.2,286.0 321.5,284.0 313.2,281.8 305.1,279.5 297.4,276.9 290.0,274.2 283.0,271.3 276.4,268.2 270.1,265.0 264.2,261.6 258.8,258.1 253.8,254.5 249.2,250.8 245.0,247.0 241.4,243.0 238.1,239.0 235.4,234.9 233.1,230.8 231.4,226.6 230.1,222.4 229.3,218.2 229.0,213.9 229.1,209.6 229.8,205.4 231.0,201.2 232.6,197.0 234.8,192.8 237.4,188.7 240.5,184.7 244.1,180.8 248.1,176.9 252.6,173.1 257.5,169.5 262.8,166.0 268.6,162.6 274.8,159.3 281.3,156.2 288.3,153.3 295.6,150.5 303.2,147.9 311.2,145.5 319.4,143.3 328.0,141.2 336.8,139.4 345.9,137.8 355.3,136.4 364.8,135.3 374.5,134.3 384.4,133.6 394.5,133.1 404.6,132.9 414.9,132.9 425.2,133.2 435.6,133.7 446.1,134.4 456.5,135.4 466.9,136.6 477.3,138.1 487.7,139.8 497.9,141.8 508.0,144.0 518.0,146.5 527.9,149.2 537.6,152.1 547.1,155.2 556.3,158.6 565.4,162.2 574.1,165.9 582.6,169.9 590.8,174.1 598.7,178.5 606.3,183.1 613.5,187.8 620.3,192.7 626.8,197.8 632.8,203.0 638.5,208.3 643.7,213.8 648.5,219.4 652.9,225.1 656.8,230.9 660.3,236.8 663.2,242.7 665.7,248.8 667.8,254.8 669.3,261.0 670.4,267.1 670.9,273.3 671.0,279.5 670.5,285.7 669.6,291.8 668.2,297.9 666.3,304.0 663.9,310.1 661.1,316.1 657.7,322.0 653.9,327.8 649.7,333.5 645.0,339.1 639.8,344.6 634.3,350.0 628.3,355.3 622.0,360.4 615.2,365.3 608.1,370.1 600.6,374.7 592.8,379.1 584.7,383.4 576.3,387.4 567.6,391.2 558.6,394.9 549.4,398.3 539.9,401.5 530.3,404.5 520.5,407.2 510.5,409.7 500.4,412.0 490.2,414.0 479.9,415.8 469.5,417.3 459.1,418.6 448.7,419.7 438.2,420.5 427.8,421.1 417.5,421.4 407.2,421.4 397.0,421.3 386.9,420.9 377.0,420.2 367.2,419.3 357.6,418.2 348.2,416.9 339.1,415.3 330.2,413.6 321.5,411.6 313.2,409.4 305.1,407.1 297.4,404.5 290.0,401.8 283.0,398.9 276.4,395.8 270.1,392.6 264.2,389.2 258.8,385.7 253.8,382.1 249.2,378.4 245.0,374.6 241.4,370.6 238.1,366.6 235.4,362.5 233.1,358.4 231.4,354.2 230.1,350.0 229.3,345.8 229.0,341.5 229.1,337.2 229.8,333.0 231.0,328.8 232.6,324.6 234.8,320.4 237.4,316.3 240.5,312.3 244.1,308.3 248.1,304.5 252.6,300.7 257.5,297.1 262.8,293.6 268.6,290.2 274.8,286.9 281.3,283.8 288.3,280.9 295.6,278.1 303.2,275.5 311.2,273.1 319.4,270.9 328.0,268.8 336.8,267.0 345.9,265.4 355.3,264.0 364.8,262.9 374.5,261.9 384.4,261.2 394.5,260.7 404.6,260.5 414.9,260.5 425.2,260.8 435.6,261.3 446.1,262.0 456.5,263.0 466.9,264.2 477.3,265.7 487.7,267.4 497.9,269.4 508.0,271.6 518.0,274.1 527.9,276.8 537.6,279.7 547.1,282.8 556.3,286.2 565.4,289.7 574.1,293.5 582.6,297.5 590.8,301.7 598.7,306.1 606.3,310.7 613.5,315.4 620.3,320.3 626.8,325.4 632.8,330.6 638.5,335.9 643.7,341.4 648.5,347.0 652.9,352.7 656.8,358.5 660.3,364.4 663.2,370.3 665.7,376.4 667.8,382.4 669.3,388.6 670.4,394.7 670.9,400.9 671.0,407.1 670.5,413.2 669.6,419.4 668.2,425.5 666.3,431.6 663.9,437.7 661.1,443.7 657.7,449.6 653.9,455.4 649.7,461.1 645.0,466.7 639.8,472.2 634.3,477.6 628.3,482.9 622.0,488.0 615.2,492.9 608.1,497.7 600.6,502.3 592.8,506.7 584.7,511.0 576.3,515.0 567.6,518.8 558.6,522.5 549.4,525.9 539.9,529.1 530.3,532.1 520.5,534.8 510.5,537.3 500.4,539.6 490.2,541.6 479.9,543.4 469.5,544.9 459.1,546.2 448.7,547.3 438.2,548.1 427.8,548.7 417.5,549.0 407.2,549.0 397.0,548.9 386.9,548.5 377.0,547.8 367.2,546.9 357.6,545.8 348.2,544.5 339.1,542.9 330.2,541.2 321.5,539.2 313.2,537.0 305.1,534.6 297.4,532.1 290.0,529.4 283.0,526.5 276.4,523.4 270.1,520.2 264.2,516.8 258.8,513.3 253.8,509.7 249.2,506.0 245.0,502.1 241.4,498.2 238.1,494.2 235.4,490.1 233.1,486.0 231.4,481.8 230.1,477.6 229.3,473.3 229.0,469.1 229.1,464.8 229.8,460.6 231.0,456.4 232.6,452.2 234.8,448.0 237.4,443.9 240.5,439.9 244.1,435.9 248.1,432.1 252.6,428.3 257.5,424.7 262.8,421.2 268.6,417.8 274.8,414.5 281.3,411.4 288.3,408.5 295.6,405.7 303.2,403.1 311.2,400.7 319.4,398.4 328.0,396.4 336.8,394.6 345.9,393.0 355.3,391.6 364.8,390.4 374.5,389.5 384.4,388.8 394.5,388.3 404.6,388.1 414.9,388.1 425.2,388.4 435.6,388.9 446.1,389.6 456.5,390.6 466.9,391.8 477.3,393.3 487.7,395.0 497.9,397.0 508.0,399.2 518.0,401.7 527.9,404.3 537.6,407.3 547.1,410.4 556.3,413.8 565.4,417.3 574.1,421.1 582.6,425.1 590.8,429.3 598.7,433.7 606.3,438.3" fill="none" stroke="#7c3aed" stroke-width="2.5" stroke-dasharray="" data-label="Helix"/>
</svg>