<svg id="glyphx-chart-18" data-glyphx="true" width="100%" viewBox="0 0 680 460" height="auto" xmlns="http://www.w3.org/2000/svg" viewBox="0 0 680 460" role="img" focusable="false" aria-labelledby="glyphx-chart-18-title glyphx-chart-18-desc"><title id="glyphx-chart-18-title">Box Plot  —  Multi-Group  —  BoxPlotSeries</title><desc id="glyphx-chart-18-desc">Box plot chart titled &quot;Box Plot  —  Multi-Group  —  BoxPlotSeries&quot;. Y axis: Test Score. Series: 5 data points. Ranges from 21.3 (at 1) to 85.1 (at 2).</desc><rect width="680" height="460" fill="#ffffff"/>
<text x="340" y="28" text-anchor="middle" font-size="20" font-weight="bold" font-family="sans-serif" fill="#000000">Box Plot  —  Multi-Group  —  BoxPlotSeries</text>
<line x1="50" y1="410" x2="630" y2="410" stroke="#333" />
<line x1="50" y1="50" x2="50" y2="410" stroke="#333" />
<text x="15" y="230" text-anchor="middle" font-size="13" font-family="sans-serif" fill="#000000" transform="rotate(-90, 15, 230)">Test Score</text>
<line x1="50" x2="630" y1="410.0" y2="410.0" stroke="#ddd" stroke-dasharray="3,3" />
<text x="42" y="414.0" text-anchor="end" font-size="11" font-family="sans-serif" fill="#000000">21.3</text>
<line x1="50" x2="630" y1="338.0" y2="338.0" stroke="#ddd" stroke-dasharray="3,3" />
<text x="42" y="342.0" text-anchor="end" font-size="11" font-family="sans-serif" fill="#000000">34.0</text>
<line x1="50" x2="630" y1="266.0" y2="266.0" stroke="#ddd" stroke-dasharray="3,3" />
<text x="42" y="270.0" text-anchor="end" font-size="11" font-family="sans-serif" fill="#000000">46.8</text>
<line x1="50" x2="630" y1="194.0" y2="194.0" stroke="#ddd" stroke-dasharray="3,3" />
<text x="42" y="198.0" text-anchor="end" font-size="11" font-family="sans-serif" fill="#000000">59.6</text>
<line x1="50" x2="630" y1="122.0" y2="122.0" stroke="#ddd" stroke-dasharray="3,3" />
<text x="42" y="126.0" text-anchor="end" font-size="11" font-family="sans-serif" fill="#000000">72.3</text>
<line x1="50" x2="630" y1="50.0" y2="50.0" stroke="#ddd" stroke-dasharray="3,3" />
<text x="42" y="54.0" text-anchor="end" font-size="11" font-family="sans-serif" fill="#000000">85.1</text>
<line y1="50" y2="410" x1="50.0" x2="50.0" stroke="#ddd" stroke-dasharray="3,3" />
<text x="50.0" y="426" text-anchor="middle" font-size="11" font-family="sans-serif" fill="#000000" >0.50</text>
<line y1="50" y2="410" x1="166.0" x2="166.0" stroke="#ddd" stroke-dasharray="3,3" />
<text x="166.0" y="426" text-anchor="middle" font-size="11" font-family="sans-serif" fill="#000000" >1.50</text>
<line y1="50" y2="410" x1="282.0" x2="282.0" stroke="#ddd" stroke-dasharray="3,3" />
<text x="282.0" y="426" text-anchor="middle" font-size="11" font-family="sans-serif" fill="#000000" >2.50</text>
<line y1="50" y2="410" x1="398.0" x2="398.0" stroke="#ddd" stroke-dasharray="3,3" />
<text x="398.0" y="426" text-anchor="middle" font-size="11" font-family="sans-serif" fill="#000000" >3.50</text>
<line y1="50" y2="410" x1="514.0" x2="514.0" stroke="#ddd" stroke-dasharray="3,3" />
<text x="514.0" y="426" text-anchor="middle" font-size="11" font-family="sans-serif" fill="#000000" >4.50</text>
<line y1="50" y2="410" x1="630.0" x2="630.0" stroke="#ddd" stroke-dasharray="3,3" />
<text x="630.0" y="426" text-anchor="middle" font-size="11" font-family="sans-serif" fill="#000000" >5.50</text>
<line x1="108.0" x2="108.0" y1="385.00446909446384" y2="284.06321617077907" stroke="#7c3aed" stroke-width="1.5"/>
<line x1="108.0" x2="108.0" y1="216.76904755498924" y2="124.82391601123533" stroke="#7c3aed" stroke-width="1.5"/>
<line x1="93.0" x2="123.0" y1="385.00446909446384" y2="385.00446909446384" stroke="#7c3aed" stroke-width="1.5"/>
<line x1="93.0" x2="123.0" y1="124.82391601123533" y2="124.82391601123533" stroke="#7c3aed" stroke-width="1.5"/>
<rect class="glyphx-point series-78112" tabindex="0" role="graphics-symbol" x="93.0" y="216.76904755498924" width="30" height="67.29416861578983" fill="#7c3aed" fill-opacity="0.35" stroke="#7c3aed" stroke-width="1.5" data-label="Control" data-q1="43.6" data-q2="48.9" data-q3="55.5"/>
<line x1="93.0" x2="123.0" y1="253.99898969675942" y2="253.99898969675942" stroke="#7c3aed" stroke-width="2.5"/>
<circle cx="108.0" cy="405.5071419299934" r="3" fill="none" stroke="#7c3aed" stroke-width="1.5"/>
<circle cx="108.0" cy="407.1452952281274" r="3" fill="none" stroke="#7c3aed" stroke-width="1.5"/>
<text x="108.0" y="426" text-anchor="middle" font-size="11" font-family="sans-serif" fill="#000000">Control</text>
<line x1="224.0" x2="224.0" y1="250.9062615749864" y2="199.13867153553196" stroke="#7c3aed" stroke-width="1.5"/>
<line x1="224.0" x2="224.0" y1="135.03698154095042" y2="50.0" stroke="#7c3aed" stroke-width="1.5"/>
<line x1="209.0" x2="239.0" y1="250.9062615749864" y2="250.9062615749864" stroke="#7c3aed" stroke-width="1.5"/>
<line x1="209.0" x2="239.0" y1="50.0" y2="50.0" stroke="#7c3aed" stroke-width="1.5"/>
<rect class="glyphx-point series-78112" tabindex="0" role="graphics-symbol" x="209.0" y="135.03698154095042" width="30" height="64.10168999458153" fill="#7c3aed" fill-opacity="0.35" stroke="#7c3aed" stroke-width="1.5" data-label="Drug A" data-q1="58.6" data-q2="65.4" data-q3="70"/>
<line x1="209.0" x2="239.0" y1="160.93259745348493" y2="160.93259745348493" stroke="#7c3aed" stroke-width="2.5"/>
<text x="224.0" y="426" text-anchor="middle" font-size="11" font-family="sans-serif" fill="#000000">Drug A</text>
<line x1="340.0" x2="340.0" y1="410.0" y2="268.234328696719" stroke="#7c3aed" stroke-width="1.5"/>
<line x1="340.0" x2="340.0" y1="159.4624521967452" y2="54.166108584215294" stroke="#7c3aed" stroke-width="1.5"/>
<line x1="325.0" x2="355.0" y1="410.0" y2="410.0" stroke="#7c3aed" stroke-width="1.5"/>
<line x1="325.0" x2="355.0" y1="54.166108584215294" y2="54.166108584215294" stroke="#7c3aed" stroke-width="1.5"/>
<rect class="glyphx-point series-78112" tabindex="0" role="graphics-symbol" x="325.0" y="159.4624521967452" width="30" height="108.77187649997379" fill="#7c3aed" fill-opacity="0.35" stroke="#7c3aed" stroke-width="1.5" data-label="Drug B" data-q1="46.4" data-q2="57.1" data-q3="65.7"/>
<line x1="325.0" x2="355.0" y1="208.068633111414" y2="208.068633111414" stroke="#7c3aed" stroke-width="2.5"/>
<text x="340.0" y="426" text-anchor="middle" font-size="11" font-family="sans-serif" fill="#000000">Drug B</text>
<line x1="456.0" x2="456.0" y1="225.33528816863338" y2="153.2085177265393" stroke="#7c3aed" stroke-width="1.5"/>
<line x1="456.0" x2="456.0" y1="104.3183037425128" y2="50.5688325364855" stroke="#7c3aed" stroke-width="1.5"/>
<line x1="441.0" x2="471.0" y1="225.33528816863338" y2="225.33528816863338" stroke="#7c3aed" stroke-width="1.5"/>
<line x1="441.0" x2="471.0" y1="50.5688325364855" y2="50.5688325364855" stroke="#7c3aed" stroke-width="1.5"/>
<rect class="glyphx-point series-78112" tabindex="0" role="graphics-symbol" x="441.0" y="104.3183037425128" width="30" height="48.8902139840265" fill="#7c3aed" fill-opacity="0.35" stroke="#7c3aed" stroke-width="1.5" data-label="Drug C" data-q1="66.8" data-q2="71.2" data-q3="75.5"/>
<line x1="441.0" x2="471.0" y1="128.2810693099625" y2="128.2810693099625" stroke="#7c3aed" stroke-width="2.5"/>
<text x="456.0" y="426" text-anchor="middle" font-size="11" font-family="sans-serif" fill="#000000">Drug C</text>
<line x1="572.0" x2="572.0" y1="304.1069417668757" y2="223.0014907746206" stroke="#7c3aed" stroke-width="1.5"/>
<line x1="572.0" x2="572.0" y1="168.9311901131172" y2="87.82573912086207" stroke="#7c3aed" stroke-width="1.5"/>
<line x1="557.0" x2="587.0" y1="304.1069417668757" y2="304.1069417668757" stroke="#7c3aed" stroke-width="1.5"/>
<line x1="557.0" x2="587.0" y1="87.82573912086207" y2="87.82573912086207" stroke="#7c3aed" stroke-width="1.5"/>
<rect class="glyphx-point series-78112" tabindex="0" role="graphics-symbol" x="557.0" y="168.9311901131172" width="30" height="54.07030066150341" fill="#7c3aed" fill-opacity="0.35" stroke="#7c3aed" stroke-width="1.5" data-label="Drug D" data-q1="54.4" data-q2="59" data-q3="64"/>
<line x1="557.0" x2="587.0" y1="197.03738466451563" y2="197.03738466451563" stroke="#7c3aed" stroke-width="2.5"/>
<circle cx="572.0" cy="61.38190301952079" r="3" fill="none" stroke="#7c3aed" stroke-width="1.5"/>
<circle cx="572.0" cy="59.747327924817796" r="3" fill="none" stroke="#7c3aed" stroke-width="1.5"/>
<circle cx="572.0" cy="323.9873705843809" r="3" fill="none" stroke="#7c3aed" stroke-width="1.5"/>
<text x="572.0" y="426" text-anchor="middle" font-size="11" font-family="sans-serif" fill="#000000">Drug D</text>
</svg>