<svg width="680" height="560" xmlns="http://www.w3.org/2000/svg" viewBox="0 0 680 560">
<rect width="680" height="560" fill="#ffffff"/>
<text x="340" y="22" text-anchor="middle" font-size="15" font-weight="bold" font-family="sans-serif" fill="#000000">Clustermap -- Gene Expression</text>
<rect x="162.0" y="116.0" width="82.0" height="50.2" fill="#d6d8e0" data-row="Gene5" data-col="Sample3" data-value="-0.127"/>
<rect x="244.0" y="116.0" width="82.0" height="50.2" fill="#b8c3ec" data-row="Gene5" data-col="Sample1" data-value="-0.528"/>
<rect x="326.0" y="116.0" width="82.0" height="50.2" fill="#b40426" data-row="Gene5" data-col="Sample2" data-value="2.02"/>
<rect x="408.0" y="116.0" width="82.0" height="50.2" fill="#7391ef" data-row="Gene5" data-col="Sample0" data-value="-1.27"/>
<rect x="490.0" y="116.0" width="82.0" height="50.2" fill="#dddcdc" data-row="Gene5" data-col="Sample4" data-value="-0.0193"/>
<rect x="572.0" y="116.0" width="82.0" height="50.2" fill="#d9dbde" data-row="Gene5" data-col="Sample5" data-value="-0.0777"/>
<rect x="162.0" y="166.2" width="82.0" height="50.2" fill="#3b4cc0" data-row="Gene1" data-col="Sample3" data-value="-2.08"/>
<rect x="244.0" y="166.2" width="82.0" height="50.2" fill="#ed9778" data-row="Gene1" data-col="Sample1" data-value="0.804"/>
<rect x="326.0" y="166.2" width="82.0" height="50.2" fill="#dcdcdd" data-row="Gene1" data-col="Sample2" data-value="-0.0447"/>
<rect x="408.0" y="166.2" width="82.0" height="50.2" fill="#ef9e80" data-row="Gene1" data-col="Sample0" data-value="0.74"/>
<rect x="490.0" y="166.2" width="82.0" height="50.2" fill="#d8dadf" data-row="Gene1" data-col="Sample4" data-value="-0.0935"/>
<rect x="572.0" y="166.2" width="82.0" height="50.2" fill="#f1a688" data-row="Gene1" data-col="Sample5" data-value="0.677"/>
<rect x="162.0" y="216.5" width="82.0" height="50.2" fill="#4c64d2" data-row="Gene2" data-col="Sample3" data-value="-1.81"/>
<rect x="244.0" y="216.5" width="82.0" height="50.2" fill="#f1a587" data-row="Gene2" data-col="Sample1" data-value="0.687"/>
<rect x="326.0" y="216.5" width="82.0" height="50.2" fill="#ecb9a4" data-row="Gene2" data-col="Sample2" data-value="0.442"/>
<rect x="408.0" y="216.5" width="82.0" height="50.2" fill="#e1d2cc" data-row="Gene2" data-col="Sample0" data-value="0.115"/>
<rect x="490.0" y="216.5" width="82.0" height="50.2" fill="#dc603e" data-row="Gene2" data-col="Sample4" data-value="1.25"/>
<rect x="572.0" y="216.5" width="82.0" height="50.2" fill="#acbbf1" data-row="Gene2" data-col="Sample5" data-value="-0.683"/>
<rect x="162.0" y="266.8" width="82.0" height="50.2" fill="#efa081" data-row="Gene7" data-col="Sample3" data-value="0.729"/>
<rect x="244.0" y="266.8" width="82.0" height="50.2" fill="#9caff1" data-row="Gene7" data-col="Sample1" data-value="-0.853"/>
<rect x="326.0" y="266.8" width="82.0" height="50.2" fill="#96aaf1" data-row="Gene7" data-col="Sample2" data-value="-0.92"/>
<rect x="408.0" y="266.8" width="82.0" height="50.2" fill="#bc1629" data-row="Gene7" data-col="Sample0" data-value="1.87"/>
<rect x="490.0" y="266.8" width="82.0" height="50.2" fill="#b5c1ed" data-row="Gene7" data-col="Sample4" data-value="-0.565"/>
<rect x="572.0" y="266.8" width="82.0" height="50.2" fill="#ccd1e4" data-row="Gene7" data-col="Sample5" data-value="-0.263"/>
<rect x="162.0" y="317.0" width="82.0" height="50.2" fill="#e88869" data-row="Gene0" data-col="Sample3" data-value="0.919"/>
<rect x="244.0" y="317.0" width="82.0" height="50.2" fill="#c1212b" data-row="Gene0" data-col="Sample1" data-value="1.78"/>
<rect x="326.0" y="317.0" width="82.0" height="50.2" fill="#c8cee6" data-row="Gene0" data-col="Sample2" data-value="-0.316"/>
<rect x="408.0" y="317.0" width="82.0" height="50.2" fill="#a0b2f1" data-row="Gene0" data-col="Sample0" data-value="-0.818"/>
<rect x="490.0" y="317.0" width="82.0" height="50.2" fill="#9eb1f1" data-row="Gene0" data-col="Sample4" data-value="-0.832"/>
<rect x="572.0" y="317.0" width="82.0" height="50.2" fill="#a8b8f2" data-row="Gene0" data-col="Sample5" data-value="-0.731"/>
<rect x="162.0" y="367.2" width="82.0" height="50.2" fill="#e78464" data-row="Gene3" data-col="Sample3" data-value="0.956"/>
<rect x="244.0" y="367.2" width="82.0" height="50.2" fill="#cc372e" data-row="Gene3" data-col="Sample1" data-value="1.59"/>
<rect x="326.0" y="367.2" width="82.0" height="50.2" fill="#93a8f1" data-row="Gene3" data-col="Sample2" data-value="-0.947"/>
<rect x="408.0" y="367.2" width="82.0" height="50.2" fill="#bac4ec" data-row="Gene3" data-col="Sample0" data-value="-0.506"/>
<rect x="490.0" y="367.2" width="82.0" height="50.2" fill="#7b97ef" data-row="Gene3" data-col="Sample4" data-value="-1.19"/>
<rect x="572.0" y="367.2" width="82.0" height="50.2" fill="#e1d3ce" data-row="Gene3" data-col="Sample5" data-value="0.0954"/>
<rect x="162.0" y="417.5" width="82.0" height="50.2" fill="#e1d2cc" data-row="Gene4" data-col="Sample3" data-value="0.115"/>
<rect x="244.0" y="417.5" width="82.0" height="50.2" fill="#afbdf0" data-row="Gene4" data-col="Sample1" data-value="-0.642"/>
<rect x="326.0" y="417.5" width="82.0" height="50.2" fill="#7190ef" data-row="Gene4" data-col="Sample2" data-value="-1.28"/>
<rect x="408.0" y="417.5" width="82.0" height="50.2" fill="#bbc5eb" data-row="Gene4" data-col="Sample0" data-value="-0.481"/>
<rect x="490.0" y="417.5" width="82.0" height="50.2" fill="#ebbba7" data-row="Gene4" data-col="Sample4" data-value="0.417"/>
<rect x="572.0" y="417.5" width="82.0" height="50.2" fill="#bc1529" data-row="Gene4" data-col="Sample5" data-value="1.88"/>
<rect x="162.0" y="467.8" width="82.0" height="50.2" fill="#e98b6b" data-row="Gene6" data-col="Sample3" data-value="0.899"/>
<rect x="244.0" y="467.8" width="82.0" height="50.2" fill="#e0d5d1" data-row="Gene6" data-col="Sample1" data-value="0.0737"/>
<rect x="326.0" y="467.8" width="82.0" height="50.2" fill="#6c8cee" data-row="Gene6" data-col="Sample2" data-value="-1.34"/>
<rect x="408.0" y="467.8" width="82.0" height="50.2" fill="#8ca3f0" data-row="Gene6" data-col="Sample0" data-value="-1.02"/>
<rect x="490.0" y="467.8" width="82.0" height="50.2" fill="#cf3f2f" data-row="Gene6" data-col="Sample4" data-value="1.53"/>
<rect x="572.0" y="467.8" width="82.0" height="50.2" fill="#d5d7e0" data-row="Gene6" data-col="Sample5" data-value="-0.139"/>
<text x="158.0" y="145.1" text-anchor="end" font-size="10" font-family="sans-serif" fill="#000000">Gene5</text>
<text x="158.0" y="195.4" text-anchor="end" font-size="10" font-family="sans-serif" fill="#000000">Gene1</text>
<text x="158.0" y="245.6" text-anchor="end" font-size="10" font-family="sans-serif" fill="#000000">Gene2</text>
<text x="158.0" y="295.9" text-anchor="end" font-size="10" font-family="sans-serif" fill="#000000">Gene7</text>
<text x="158.0" y="346.1" text-anchor="end" font-size="10" font-family="sans-serif" fill="#000000">Gene0</text>
<text x="158.0" y="396.4" text-anchor="end" font-size="10" font-family="sans-serif" fill="#000000">Gene3</text>
<text x="158.0" y="446.6" text-anchor="end" font-size="10" font-family="sans-serif" fill="#000000">Gene4</text>
<text x="158.0" y="496.9" text-anchor="end" font-size="10" font-family="sans-serif" fill="#000000">Gene6</text>
<text x="203.0" y="522.0" text-anchor="start" font-size="10" font-family="sans-serif" fill="#000000" transform="rotate(45,203.0,522.0)">Sample3</text>
<text x="285.0" y="522.0" text-anchor="start" font-size="10" font-family="sans-serif" fill="#000000" transform="rotate(45,285.0,522.0)">Sample1</text>
<text x="367.0" y="522.0" text-anchor="start" font-size="10" font-family="sans-serif" fill="#000000" transform="rotate(45,367.0,522.0)">Sample2</text>
<text x="449.0" y="522.0" text-anchor="start" font-size="10" font-family="sans-serif" fill="#000000" transform="rotate(45,449.0,522.0)">Sample0</text>
<text x="531.0" y="522.0" text-anchor="start" font-size="10" font-family="sans-serif" fill="#000000" transform="rotate(45,531.0,522.0)">Sample4</text>
<text x="613.0" y="522.0" text-anchor="start" font-size="10" font-family="sans-serif" fill="#000000" transform="rotate(45,613.0,522.0)">Sample5</text>
<polyline points="5.1,116.0 32.3,116.0 32.3,266.8 5.1,266.8" fill="none" stroke="#555" stroke-width="1.2"/>
<polyline points="5.1,166.2 54.3,166.2 54.3,216.5 5.1,216.5" fill="none" stroke="#555" stroke-width="1.2"/>
<polyline points="5.1,317.0 66.0,317.0 66.0,417.5 5.1,417.5" fill="none" stroke="#555" stroke-width="1.2"/>
<polyline points="32.3,191.4 85.8,191.4 85.8,367.2 66.0,367.2" fill="none" stroke="#555" stroke-width="1.2"/>
<polyline points="5.1,367.2 88.4,367.2 88.4,191.4 54.3,191.4" fill="none" stroke="#555" stroke-width="1.2"/>
<polyline points="5.1,467.8 90.2,467.8 90.2,279.3 85.8,279.3" fill="none" stroke="#555" stroke-width="1.2"/>
<polyline points="88.4,279.3 96.9,279.3 96.9,373.5 90.2,373.5" fill="none" stroke="#555" stroke-width="1.2"/>
<polyline points="490.0,36.2 490.0,89.2 572.0,89.2 572.0,36.2" fill="none" stroke="#555" stroke-width="1.2"/>
<polyline points="162.0,36.2 162.0,98.6 531.0,98.6 531.0,89.2" fill="none" stroke="#555" stroke-width="1.2"/>
<polyline points="326.0,36.2 326.0,105.4 346.5,105.4 346.5,98.6" fill="none" stroke="#555" stroke-width="1.2"/>
<polyline points="244.0,36.2 244.0,106.6 336.2,106.6 336.2,105.4" fill="none" stroke="#555" stroke-width="1.2"/>
<polyline points="408.0,36.2 408.0,111.8 290.1,111.8 290.1,106.6" fill="none" stroke="#555" stroke-width="1.2"/>
<rect x="660" y="116.0" width="16" height="8.5" fill="#b40426"/>
<rect x="660" y="124.0" width="16" height="8.5" fill="#b80e28"/>
<rect x="660" y="132.1" width="16" height="8.5" fill="#bd1729"/>
<rect x="660" y="140.1" width="16" height="8.5" fill="#c1212b"/>
<rect x="660" y="148.2" width="16" height="8.5" fill="#c62b2c"/>
<rect x="660" y="156.2" width="16" height="8.5" fill="#ca352e"/>
<rect x="660" y="164.2" width="16" height="8.5" fill="#cf3e2f"/>
<rect x="660" y="172.3" width="16" height="8.5" fill="#d34831"/>
<rect x="660" y="180.3" width="16" height="8.5" fill="#d85232"/>
<rect x="660" y="188.4" width="16" height="8.5" fill="#db5c3a"/>
<rect x="660" y="196.4" width="16" height="8.5" fill="#de6645"/>
<rect x="660" y="204.4" width="16" height="8.5" fill="#e1704f"/>
<rect x="660" y="212.5" width="16" height="8.5" fill="#e47a5a"/>
<rect x="660" y="220.5" width="16" height="8.5" fill="#e78464"/>
<rect x="660" y="228.6" width="16" height="8.5" fill="#ea8e6f"/>
<rect x="660" y="236.6" width="16" height="8.5" fill="#ed9879"/>
<rect x="660" y="244.6" width="16" height="8.5" fill="#f0a284"/>
<rect x="660" y="252.7" width="16" height="8.5" fill="#f1ab8e"/>
<rect x="660" y="260.7" width="16" height="8.5" fill="#efb198"/>
<rect x="660" y="268.8" width="16" height="8.5" fill="#ecb8a2"/>
<rect x="660" y="276.8" width="16" height="8.5" fill="#eabeac"/>
<rect x="660" y="284.8" width="16" height="8.5" fill="#e7c4b6"/>
<rect x="660" y="292.9" width="16" height="8.5" fill="#e5cabf"/>
<rect x="660" y="300.9" width="16" height="8.5" fill="#e2d1c9"/>
<rect x="660" y="309.0" width="16" height="8.5" fill="#e0d7d3"/>
<rect x="660" y="317.0" width="16" height="8.5" fill="#dddddd"/>
<rect x="660" y="325.0" width="16" height="8.5" fill="#d7d9e0"/>
<rect x="660" y="333.1" width="16" height="8.5" fill="#d1d4e2"/>
<rect x="660" y="341.1" width="16" height="8.5" fill="#cbd0e5"/>
<rect x="660" y="349.2" width="16" height="8.5" fill="#c5cce7"/>
<rect x="660" y="357.2" width="16" height="8.5" fill="#bec7ea"/>
<rect x="660" y="365.2" width="16" height="8.5" fill="#b8c3ec"/>
<rect x="660" y="373.3" width="16" height="8.5" fill="#b2bfef"/>
<rect x="660" y="381.3" width="16" height="8.5" fill="#acbaf1"/>
<rect x="660" y="389.4" width="16" height="8.5" fill="#a5b5f2"/>
<rect x="660" y="397.4" width="16" height="8.5" fill="#9caff1"/>
<rect x="660" y="405.4" width="16" height="8.5" fill="#94a9f1"/>
<rect x="660" y="413.5" width="16" height="8.5" fill="#8ca3f0"/>
<rect x="660" y="421.5" width="16" height="8.5" fill="#849ef0"/>
<rect x="660" y="429.6" width="16" height="8.5" fill="#7c98ef"/>
<rect x="660" y="437.6" width="16" height="8.5" fill="#7492ef"/>
<rect x="660" y="445.6" width="16" height="8.5" fill="#6b8cee"/>
<rect x="660" y="453.7" width="16" height="8.5" fill="#6486ec"/>
<rect x="660" y="461.7" width="16" height="8.5" fill="#5f7ee7"/>
<rect x="660" y="469.8" width="16" height="8.5" fill="#5a77e1"/>
<rect x="660" y="477.8" width="16" height="8.5" fill="#5570dc"/>
<rect x="660" y="485.8" width="16" height="8.5" fill="#5069d6"/>
<rect x="660" y="493.9" width="16" height="8.5" fill="#4a62d1"/>
<rect x="660" y="501.9" width="16" height="8.5" fill="#455acb"/>
<rect x="660" y="510.0" width="16" height="8.5" fill="#4053c6"/>
<text x="678" y="126" font-size="9" font-family="sans-serif" fill="#000000">2.02</text>
<text x="678" y="518" font-size="9" font-family="sans-serif" fill="#000000">-2.08</text>
</svg>