<svg role="img" focusable="false" aria-labelledby="glyphx-chart-16-title glyphx-chart-16-desc" id="glyphx-chart-16" data-glyphx="true" width="760" height="460" xmlns="http://www.w3.org/2000/svg" viewBox="0 0 760 460"><title id="glyphx-chart-16-title">ECDF  —  No Bin-Width Required  —  ECDFSeries</title><desc id="glyphx-chart-16-desc">Ecdf chart titled &quot;ECDF  —  No Bin-Width Required  —  ECDFSeries&quot;. X axis: Response Time (ms). Y axis: Cumulative Proportion. Series &quot;Control  (n=400)&quot;: 400 data points. Ranges from 0.0025 (at 7.138381179385178) to 1 (at 89.5187443117104). Series &quot;Treatment  (n=400)&quot;: 400 data points. Ranges from 0.0025 (at 38.84938692230717) to 1 (at 89.04885697984326).</desc><rect width="760" height="460" fill="#ffffff"/>
<text x="380" y="28" text-anchor="middle" font-size="20" font-weight="bold" font-family="sans-serif" fill="#000000">ECDF  —  No Bin-Width Required  —  ECDFSeries</text>
<line x1="50" y1="410" x2="710" y2="410" stroke="#333" />
<line x1="50" y1="50" x2="50" y2="410" stroke="#333" />
<text x="380" y="450" text-anchor="middle" font-size="13" font-family="sans-serif" fill="#000000">Response Time (ms)</text>
<text x="15" y="230" text-anchor="middle" font-size="13" font-family="sans-serif" fill="#000000" transform="rotate(-90, 15, 230)">Cumulative Proportion</text>
<line x1="50" x2="710" y1="410.0" y2="410.0" stroke="#ddd" stroke-dasharray="3,3" />
<text x="42" y="414.0" text-anchor="end" font-size="11" font-family="sans-serif" fill="#000000">0.00</text>
<line x1="50" x2="710" y1="338.0" y2="338.0" stroke="#ddd" stroke-dasharray="3,3" />
<text x="42" y="342.0" text-anchor="end" font-size="11" font-family="sans-serif" fill="#000000">0.20</text>
<line x1="50" x2="710" y1="266.0" y2="266.0" stroke="#ddd" stroke-dasharray="3,3" />
<text x="42" y="270.0" text-anchor="end" font-size="11" font-family="sans-serif" fill="#000000">0.40</text>
<line x1="50" x2="710" y1="194.0" y2="194.0" stroke="#ddd" stroke-dasharray="3,3" />
<text x="42" y="198.0" text-anchor="end" font-size="11" font-family="sans-serif" fill="#000000">0.60</text>
<line x1="50" x2="710" y1="122.0" y2="122.0" stroke="#ddd" stroke-dasharray="3,3" />
<text x="42" y="126.0" text-anchor="end" font-size="11" font-family="sans-serif" fill="#000000">0.80</text>
<line x1="50" x2="710" y1="50.0" y2="50.0" stroke="#ddd" stroke-dasharray="3,3" />
<text x="42" y="54.0" text-anchor="end" font-size="11" font-family="sans-serif" fill="#000000">1</text>
<line y1="50" y2="410" x1="50.0" x2="50.0" stroke="#ddd" stroke-dasharray="3,3" />
<text x="50.0" y="426" text-anchor="middle" font-size="11" font-family="sans-serif" fill="#000000" >6.64</text>
<line y1="50" y2="410" x1="182.0" x2="182.0" stroke="#ddd" stroke-dasharray="3,3" />
<text x="182.0" y="426" text-anchor="middle" font-size="11" font-family="sans-serif" fill="#000000" >23.3</text>
<line y1="50" y2="410" x1="314.0" x2="314.0" stroke="#ddd" stroke-dasharray="3,3" />
<text x="314.0" y="426" text-anchor="middle" font-size="11" font-family="sans-serif" fill="#000000" >40.0</text>
<line y1="50" y2="410" x1="446.0" x2="446.0" stroke="#ddd" stroke-dasharray="3,3" />
<text x="446.0" y="426" text-anchor="middle" font-size="11" font-family="sans-serif" fill="#000000" >56.7</text>
<line y1="50" y2="410" x1="578.0" x2="578.0" stroke="#ddd" stroke-dasharray="3,3" />
<text x="578.0" y="426" text-anchor="middle" font-size="11" font-family="sans-serif" fill="#000000" >73.3</text>
<line y1="50" y2="410" x1="710.0" x2="710.0" stroke="#ddd" stroke-dasharray="3,3" />
<text x="710.0" y="426" text-anchor="middle" font-size="11" font-family="sans-serif" fill="#000000" >90.0</text>
<path d="M 50,410.0 L 53.95776640449847,410.0 L 96.99928170031188,410.0 L 96.99928170031188,409.09774436090225 L 143.59017788734292,409.09774436090225 L 143.59017788734292,408.1954887218045 L 167.8551432046037,408.1954887218045 L 167.8551432046037,407.29323308270676 L 176.58941645295312,407.29323308270676 L 176.58941645295312,406.390977443609 L 185.4629273198176,406.390977443609 L 185.4629273198176,405.4887218045113 L 189.23982514809111,405.4887218045113 L 189.23982514809111,404.5864661654135 L 203.23366905263117,404.5864661654135 L 203.23366905263117,403.6842105263158 L 213.33946393549328,403.6842105263158 L 213.33946393549328,402.78195488721803 L 220.84884387780957,402.78195488721803 L 220.84884387780957,401.8796992481203 L 221.56179491574193,401.8796992481203 L 221.56179491574193,400.97744360902254 L 222.83863476481864,400.97744360902254 L 222.83863476481864,400.0751879699248 L 225.25902243526272,400.0751879699248 L 225.25902243526272,399.17293233082705 L 227.80982852847987,399.17293233082705 L 227.80982852847987,398.2706766917293 L 227.8810267388125,398.2706766917293 L 227.8810267388125,397.36842105263156 L 230.7726723984255,397.36842105263156 L 230.7726723984255,396.4661654135338 L 233.04105557753283,396.4661654135338 L 233.04105557753283,395.56390977443607 L 236.45848250104444,395.56390977443607 L 236.45848250104444,394.6616541353383 L 237.5929298209524,394.6616541353383 L 237.5929298209524,393.7593984962406 L 239.1706017107704,393.7593984962406 L 239.1706017107704,392.85714285714283 L 241.1645445716712,392.85714285714283 L 241.1645445716712,391.9548872180451 L 249.22948428377092,391.9548872180451 L 249.22948428377092,391.0526315789474 L 250.46846949202887,391.0526315789474 L 250.46846949202887,390.1503759398496 L 252.17120819597645,390.1503759398496 L 252.17120819597645,389.2481203007519 L 255.37723222219893,389.2481203007519 L 255.37723222219893,388.34586466165416 L 256.36868338092677,388.34586466165416 L 256.36868338092677,387.4436090225564 L 256.89635673587975,387.4436090225564 L 256.89635673587975,386.54135338345867 L 258.60478790723704,386.54135338345867 L 258.60478790723704,385.6390977443609 L 259.5658180520989,385.6390977443609 L 259.5658180520989,384.7368421052632 L 259.7524231863814,384.7368421052632 L 259.7524231863814,383.83458646616543 L 268.3432010778705,383.83458646616543 L 268.3432010778705,382.9323308270677 L 268.4323055962419,382.9323308270677 L 268.4323055962419,382.03007518796994 L 269.04386976388,382.03007518796994 L 269.04386976388,381.1278195488722 L 269.2552124561422,381.1278195488722 L 269.2552124561422,380.22556390977445 L 269.3396479736764,380.22556390977445 L 269.3396479736764,379.3233082706767 L 271.6201796969252,379.3233082706767 L 271.6201796969252,378.42105263157896 L 273.88009104331843,378.42105263157896 L 273.88009104331843,377.5187969924812 L 275.67556019649726,377.5187969924812 L 275.67556019649726,376.61654135338347 L 278.38493507138594,376.61654135338347 L 278.38493507138594,375.7142857142857 L 278.42373593779246,375.7142857142857 L 278.42373593779246,374.812030075188 L 278.48096618067456,374.812030075188 L 278.48096618067456,373.90977443609023 L 281.75292565961115,373.90977443609023 L 281.75292565961115,373.0075187969925 L 283.59410529752995,373.0075187969925 L 283.59410529752995,372.10526315789474 L 284.5297963630443,372.10526315789474 L 284.5297963630443,371.203007518797 L 286.4836152975163,371.203007518797 L 286.4836152975163,370.30075187969925 L 286.77186314745546,370.30075187969925 L 286.77186314745546,369.3984962406015 L 290.6454234736191,369.3984962406015 L 290.6454234736191,368.49624060150376 L 292.35774548897706,368.49624060150376 L 292.35774548897706,367.593984962406 L 294.85199833057857,367.593984962406 L 294.85199833057857,366.69172932330827 L 297.5160113881736,366.69172932330827 L 297.5160113881736,365.7894736842105 L 297.5939932975481,365.7894736842105 L 297.5939932975481,364.8872180451128 L 297.72126851360537,364.8872180451128 L 297.72126851360537,363.98496240601503 L 298.57568690966286,363.98496240601503 L 298.57568690966286,363.0827067669173 L 299.0603721048051,363.0827067669173 L 299.0603721048051,362.18045112781954 L 299.95199122434065,362.18045112781954 L 299.95199122434065,361.2781954887218 L 300.0471306709056,361.2781954887218 L 300.0471306709056,360.37593984962405 L 301.5465242579881,360.37593984962405 L 301.5465242579881,359.47368421052636 L 301.60106308959416,359.47368421052636 L 301.60106308959416,358.57142857142856 L 302.56521152830976,358.57142857142856 L 302.56521152830976,357.6691729323308 L 303.3933421385949,357.6691729323308 L 303.3933421385949,356.76691729323306 L 304.814314815991,356.76691729323306 L 304.814314815991,355.8646616541353 L 308.11265455625335,355.8646616541353 L 308.11265455625335,354.9624060150376 L 308.6334118489474,354.9624060150376 L 308.6334118489474,354.0601503759399 L 309.73484360637286,354.0601503759399 L 309.73484360637286,353.1578947368421 L 309.7529988956128,353.1578947368421 L 309.7529988956128,352.2556390977444 L 310.27300255785934,352.2556390977444 L 310.27300255785934,351.3533834586466 L 310.30231154897007,351.3533834586466 L 310.30231154897007,350.4511278195489 L 311.1584800404589,350.4511278195489 L 311.1584800404589,349.5488721804511 L 312.049298409288,349.5488721804511 L 312.049298409288,348.6466165413534 L 312.14873847405926,348.6466165413534 L 312.14873847405926,347.74436090225566 L 313.4526992922299,347.74436090225566 L 313.4526992922299,346.8421052631579 L 314.03291561228696,346.8421052631579 L 314.03291561228696,345.9398496240602 L 315.1971928735673,345.9398496240602 L 315.1971928735673,345.0375939849624 L 316.47245238857545,345.0375939849624 L 316.47245238857545,344.1353383458647 L 316.8835077201697,344.1353383458647 L 316.8835077201697,343.23308270676694 L 317.2523066625984,343.23308270676694 L 317.2523066625984,342.3308270676692 L 317.3588248500482,342.3308270676692 L 317.3588248500482,341.42857142857144 L 320.0871933011268,341.42857142857144 L 320.0871933011268,340.5263157894737 L 322.1765531930012,340.5263157894737 L 322.1765531930012,339.62406015037595 L 322.32591447665305,339.62406015037595 L 322.32591447665305,338.7218045112782 L 322.3640969292539,338.7218045112782 L 322.3640969292539,337.81954887218046 L 323.68631954553217,337.81954887218046 L 323.68631954553217,336.9172932330827 L 324.4406892851092,336.9172932330827 L 324.4406892851092,336.01503759398497 L 325.08062536838776,336.01503759398497 L 325.08062536838776,335.1127819548872 L 325.34811860632016,335.1127819548872 L 325.34811860632016,334.2105263157895 L 325.76871440330973,334.2105263157895 L 325.76871440330973,333.30827067669173 L 326.8542381463657,333.30827067669173 L 326.8542381463657,332.406015037594 L 328.2312133751974,332.406015037594 L 328.2312133751974,331.50375939849624 L 328.9823883003824,331.50375939849624 L 328.9823883003824,330.6015037593985 L 330.9771833584466,330.6015037593985 L 330.9771833584466,329.69924812030075 L 332.03697051212635,329.69924812030075 L 332.03697051212635,328.796992481203 L 332.4103135665743,328.796992481203 L 332.4103135665743,327.89473684210526 L 333.01671105308714,327.89473684210526 L 333.01671105308714,326.9924812030075 L 333.35949314787376,326.9924812030075 L 333.35949314787376,326.0902255639098 L 333.4460335545993,326.0902255639098 L 333.4460335545993,325.187969924812 L 334.42562216270744,325.187969924812 L 334.42562216270744,324.2857142857143 L 334.58945220686917,324.2857142857143 L 334.58945220686917,323.38345864661653 L 335.2829152076551,323.38345864661653 L 335.2829152076551,322.4812030075188 L 336.0307582822466,322.4812030075188 L 336.0307582822466,321.57894736842104 L 337.09227179107484,321.57894736842104 L 337.09227179107484,320.67669172932335 L 338.58488980664794,320.67669172932335 L 338.58488980664794,319.77443609022555 L 339.95350795906944,319.77443609022555 L 339.95350795906944,318.8721804511278 L 340.9856797210418,318.8721804511278 L 340.9856797210418,317.96992481203006 L 342.01818022030847,317.96992481203006 L 342.01818022030847,317.0676691729323 L 343.658410184631,317.0676691729323 L 343.658410184631,316.16541353383457 L 344.2935464966124,316.16541353383457 L 344.2935464966124,315.2631578947369 L 345.13152763808915,315.2631578947369 L 345.13152763808915,314.3609022556391 L 345.21757524682704,314.3609022556391 L 345.21757524682704,313.45864661654133 L 345.3504671918838,313.45864661654133 L 345.3504671918838,312.5563909774436 L 345.5754756460995,312.5563909774436 L 345.5754756460995,311.6541353383459 L 345.5796745428785,311.6541353383459 L 345.5796745428785,310.7518796992481 L 346.6151152460652,310.7518796992481 L 346.6151152460652,309.8496240601504 L 347.4416283781483,309.8496240601504 L 347.4416283781483,308.94736842105266 L 347.7440396993163,308.94736842105266 L 347.7440396993163,308.0451127819549 L 349.3619630604168,308.0451127819549 L 349.3619630604168,307.14285714285717 L 351.2394417196967,307.14285714285717 L 351.2394417196967,306.2406015037594 L 352.22585627609516,306.2406015037594 L 352.22585627609516,305.3383458646617 L 354.41277798718573,305.3383458646617 L 354.41277798718573,304.43609022556393 L 354.4829562502191,304.43609022556393 L 354.4829562502191,303.5338345864662 L 354.9150565581946,303.5338345864662 L 354.9150565581946,302.63157894736844 L 355.01300130647047,302.63157894736844 L 355.01300130647047,301.7293233082707 L 356.8220225237087,301.7293233082707 L 356.8220225237087,300.82706766917295 L 357.11783528950093,300.82706766917295 L 357.11783528950093,299.9248120300752 L 357.3204197726431,299.9248120300752 L 357.3204197726431,299.02255639097746 L 357.7705310298356,299.02255639097746 L 357.7705310298356,298.1203007518797 L 357.8039722308772,298.1203007518797 L 357.8039722308772,297.21804511278197 L 358.09360134687824,297.21804511278197 L 358.09360134687824,296.3157894736842 L 359.328818033423,296.3157894736842 L 359.328818033423,295.4135338345865 L 360.76536973500345,295.4135338345865 L 360.76536973500345,294.5112781954887 L 361.5978865840777,294.5112781954887 L 361.5978865840777,293.609022556391 L 362.0513501747303,293.609022556391 L 362.0513501747303,292.70676691729324 L 363.70720905175705,292.70676691729324 L 363.70720905175705,291.8045112781955 L 364.5711842125871,291.8045112781955 L 364.5711842125871,290.90225563909775 L 365.9221905836373,290.90225563909775 L 365.9221905836373,290.0 L 366.343820587368,290.0 L 366.343820587368,289.09774436090225 L 367.7529089395113,289.09774436090225 L 367.7529089395113,288.1954887218045 L 368.43836215498493,288.1954887218045 L 368.43836215498493,287.29323308270676 L 368.69301003747876,287.29323308270676 L 368.69301003747876,286.390977443609 L 368.8140099393859,286.390977443609 L 368.8140099393859,285.48872180451133 L 369.1481320037704,285.48872180451133 L 369.1481320037704,284.5864661654135 L 369.8582950231977,284.5864661654135 L 369.8582950231977,283.68421052631584 L 371.389139452277,283.68421052631584 L 371.389139452277,282.78195488721803 L 372.6210508260157,282.78195488721803 L 372.6210508260157,281.87969924812035 L 373.2450426101136,281.87969924812035 L 373.2450426101136,280.97744360902254 L 373.33787885442536,280.97744360902254 L 373.33787885442536,280.07518796992485 L 373.48645784335025,280.07518796992485 L 373.48645784335025,279.17293233082705 L 375.3506920581016,279.17293233082705 L 375.3506920581016,278.27067669172936 L 376.8970789533488,278.27067669172936 L 376.8970789533488,277.36842105263156 L 377.36736619282425,277.36842105263156 L 377.36736619282425,276.4661654135339 L 379.5283224555395,276.4661654135339 L 379.5283224555395,275.56390977443607 L 380.22225910939744,275.56390977443607 L 380.22225910939744,274.6616541353384 L 380.52216005228735,274.6616541353384 L 380.52216005228735,273.7593984962406 L 380.7718507110257,273.7593984962406 L 380.7718507110257,272.8571428571429 L 380.962726694295,272.8571428571429 L 380.962726694295,271.95488721804514 L 381.6368010364387,271.95488721804514 L 381.6368010364387,271.0526315789474 L 381.7463055826437,271.0526315789474 L 381.7463055826437,270.1503759398496 L 381.828502554606,270.1503759398496 L 381.828502554606,269.2481203007519 L 382.47003465831074,269.2481203007519 L 382.47003465831074,268.3458646616541 L 383.0101666036744,268.3458646616541 L 383.0101666036744,267.4436090225564 L 384.11672098632624,267.4436090225564 L 384.11672098632624,266.54135338345867 L 384.76351665583917,266.54135338345867 L 384.76351665583917,265.6390977443609 L 384.9990447164942,265.6390977443609 L 384.9990447164942,264.7368421052631 L 385.06663921390094,264.7368421052631 L 385.06663921390094,263.83458646616543 L 387.1405674059756,263.83458646616543 L 387.1405674059756,262.9323308270677 L 387.83739467011316,262.9323308270677 L 387.83739467011316,262.03007518796994 L 389.2228736244859,262.03007518796994 L 389.2228736244859,261.1278195488722 L 390.0791494145804,261.1278195488722 L 390.0791494145804,260.22556390977445 L 390.6207615544459,260.22556390977445 L 390.6207615544459,259.3233082706767 L 390.62128004665095,259.3233082706767 L 390.62128004665095,258.42105263157896 L 390.87897519275276,258.42105263157896 L 390.87897519275276,257.5187969924812 L 392.44916385164834,257.5187969924812 L 392.44916385164834,256.61654135338347 L 392.5348743953462,256.61654135338347 L 392.5348743953462,255.71428571428572 L 392.8442657842945,255.71428571428572 L 392.8442657842945,254.81203007518798 L 392.9856985791295,254.81203007518798 L 392.9856985791295,253.90977443609023 L 394.36991333243583,253.90977443609023 L 394.36991333243583,253.00751879699249 L 396.21977389486625,253.00751879699249 L 396.21977389486625,252.10526315789474 L 396.7517296110302,252.10526315789474 L 396.7517296110302,251.203007518797 L 398.4809929314335,251.203007518797 L 398.4809929314335,250.30075187969925 L 398.7574038405657,250.30075187969925 L 398.7574038405657,249.39849624060153 L 399.76210788491153,249.39849624060153 L 399.76210788491153,248.49624060150379 L 400.7557388980471,248.49624060150379 L 400.7557388980471,247.593984962406 L 403.1221755289958,247.593984962406 L 403.1221755289958,246.69172932330827 L 403.4263530123634,246.69172932330827 L 403.4263530123634,245.78947368421052 L 403.52082178534505,245.78947368421052 L 403.52082178534505,244.88721804511277 L 404.75267365834225,244.88721804511277 L 404.75267365834225,243.98496240601506 L 404.85941869608433,243.98496240601506 L 404.85941869608433,243.0827067669173 L 405.02956164071804,243.0827067669173 L 405.02956164071804,242.18045112781957 L 405.14641593596974,242.18045112781957 L 405.14641593596974,241.27819548872182 L 405.3016781370234,241.27819548872182 L 405.3016781370234,240.37593984962407 L 406.3542734182492,240.37593984962407 L 406.3542734182492,239.47368421052633 L 406.4119091783378,239.47368421052633 L 406.4119091783378,238.57142857142858 L 406.508016088416,238.57142857142858 L 406.508016088416,237.66917293233084 L 409.5074125643041,237.66917293233084 L 409.5074125643041,236.76691729323312 L 409.5159595349266,236.76691729323312 L 409.5159595349266,235.86466165413535 L 409.5833926127766,235.86466165413535 L 409.5833926127766,234.9624060150376 L 410.25615261332155,234.9624060150376 L 410.25615261332155,234.06015037593986 L 410.2828892954045,234.06015037593986 L 410.2828892954045,233.1578947368421 L 411.9213137658635,233.1578947368421 L 411.9213137658635,232.25563909774436 L 411.9533329891278,232.25563909774436 L 411.9533329891278,231.35338345864665 L 412.78668099761364,231.35338345864665 L 412.78668099761364,230.4511278195489 L 414.0231989238154,230.4511278195489 L 414.0231989238154,229.54887218045116 L 415.3020372845225,229.54887218045116 L 415.3020372845225,228.64661654135335 L 415.30436998356004,228.64661654135335 L 415.30436998356004,227.74436090225564 L 415.7910851594863,227.74436090225564 L 415.7910851594863,226.8421052631579 L 416.18909450990037,226.8421052631579 L 416.18909450990037,225.93984962406017 L 416.2030686263232,225.93984962406017 L 416.2030686263232,225.0375939849624 L 416.68578622933364,225.0375939849624 L 416.68578622933364,224.13533834586465 L 416.83571150597015,224.13533834586465 L 416.83571150597015,223.2330827067669 L 417.1824189048117,223.2330827067669 L 417.1824189048117,222.33082706766916 L 418.38551380111966,222.33082706766916 L 418.38551380111966,221.42857142857142 L 419.5567164741579,221.42857142857142 L 419.5567164741579,220.5263157894737 L 419.6736206358943,220.5263157894737 L 419.6736206358943,219.62406015037593 L 420.7872082252036,219.62406015037593 L 420.7872082252036,218.7218045112782 L 421.200817051721,218.7218045112782 L 421.200817051721,217.81954887218043 L 422.8766373203368,217.81954887218043 L 422.8766373203368,216.9172932330827 L 424.6031835015544,216.9172932330827 L 424.6031835015544,216.01503759398494 L 424.871630682559,216.01503759398494 L 424.871630682559,215.11278195488723 L 425.35530969641127,215.11278195488723 L 425.35530969641127,214.21052631578945 L 425.5688284654625,214.21052631578945 L 425.5688284654625,213.30827067669173 L 425.8975928249835,213.30827067669173 L 425.8975928249835,212.40601503759396 L 426.46138358591196,212.40601503759396 L 426.46138358591196,211.50375939849621 L 427.2248348983337,211.50375939849621 L 427.2248348983337,210.60150375939847 L 427.7622282178121,210.60150375939847 L 427.7622282178121,209.69924812030075 L 427.93300745916736,209.69924812030075 L 427.93300745916736,208.79699248120298 L 429.30190048935856,208.79699248120298 L 429.30190048935856,207.89473684210526 L 429.9317687555024,207.89473684210526 L 429.9317687555024,206.99248120300754 L 430.0524077122242,206.99248120300754 L 430.0524077122242,206.09022556390974 L 430.35188644436556,206.09022556390974 L 430.35188644436556,205.18796992481202 L 430.40181481803637,205.18796992481202 L 430.40181481803637,204.28571428571428 L 430.4420576219659,204.28571428571428 L 430.4420576219659,203.38345864661656 L 430.5378733195969,203.38345864661656 L 430.5378733195969,202.4812030075188 L 430.9225886859329,202.4812030075188 L 430.9225886859329,201.57894736842107 L 432.0371179451133,201.57894736842107 L 432.0371179451133,200.6766917293233 L 432.31522261315587,200.6766917293233 L 432.31522261315587,199.77443609022555 L 432.3829970760909,199.77443609022555 L 432.3829970760909,198.8721804511278 L 433.2815165128261,198.8721804511278 L 433.2815165128261,197.9699248120301 L 433.4962881743208,197.9699248120301 L 433.4962881743208,197.0676691729323 L 434.12012955426815,197.0676691729323 L 434.12012955426815,196.1654135338346 L 434.30752349545327,196.1654135338346 L 434.30752349545327,195.26315789473685 L 435.1306092203315,195.26315789473685 L 435.1306092203315,194.36090225563908 L 435.5843514666385,194.36090225563908 L 435.5843514666385,193.45864661654133 L 436.189284264307,193.45864661654133 L 436.189284264307,192.5563909774436 L 436.6747278290057,192.5563909774436 L 436.6747278290057,191.65413533834584 L 437.6091492013776,191.65413533834584 L 437.6091492013776,190.75187969924812 L 438.36093002957557,190.75187969924812 L 438.36093002957557,189.84962406015038 L 438.93471311141116,189.84962406015038 L 438.93471311141116,188.9473684210526 L 439.62288948611894,188.9473684210526 L 439.62288948611894,188.04511278195486 L 440.04654121901683,188.04511278195486 L 440.04654121901683,187.14285714285714 L 440.95580313983226,187.14285714285714 L 440.95580313983226,186.24060150375936 L 441.64939006591374,186.24060150375936 L 441.64939006591374,185.33834586466165 L 443.2671493625163,185.33834586466165 L 443.2671493625163,184.43609022556393 L 443.9812011113496,184.43609022556393 L 443.9812011113496,183.53383458646616 L 444.898632427145,183.53383458646616 L 444.898632427145,182.6315789473684 L 445.36245179423975,182.6315789473684 L 445.36245179423975,181.72932330827066 L 447.04145079854095,181.72932330827066 L 447.04145079854095,180.82706766917295 L 447.44318379767725,180.82706766917295 L 447.44318379767725,179.92481203007517 L 447.78946974666763,179.92481203007517 L 447.78946974666763,179.02255639097746 L 448.61646258353306,179.02255639097746 L 448.61646258353306,178.1203007518797 L 450.29905708354414,178.1203007518797 L 450.29905708354414,177.21804511278194 L 450.65178968275785,177.21804511278194 L 450.65178968275785,176.3157894736842 L 453.02554864677217,176.3157894736842 L 453.02554864677217,175.41353383458647 L 453.66198444140105,175.41353383458647 L 453.66198444140105,174.5112781954887 L 454.6741156010301,174.5112781954887 L 454.6741156010301,173.60902255639098 L 454.7772094822437,173.60902255639098 L 454.7772094822437,172.70676691729324 L 457.2600257803833,172.70676691729324 L 457.2600257803833,171.8045112781955 L 457.3168877611075,171.8045112781955 L 457.3168877611075,170.90225563909772 L 457.3983284008876,170.90225563909772 L 457.3983284008876,170.0 L 457.639904105391,170.0 L 457.639904105391,169.09774436090223 L 458.8208294214238,169.09774436090223 L 458.8208294214238,168.1954887218045 L 459.15832375878927,168.1954887218045 L 459.15832375878927,167.29323308270676 L 460.3017740040357,167.29323308270676 L 460.3017740040357,166.39097744360902 L 461.9472750177669,166.39097744360902 L 461.9472750177669,165.48872180451124 L 462.34116902589807,165.48872180451124 L 462.34116902589807,164.58646616541353 L 462.8081410614837,164.58646616541353 L 462.8081410614837,163.68421052631575 L 463.1066068361638,163.68421052631575 L 463.1066068361638,162.78195488721803 L 464.485277180834,162.78195488721803 L 464.485277180834,161.87969924812032 L 464.56928966852803,161.87969924812032 L 464.56928966852803,160.97744360902254 L 464.8235287130535,160.97744360902254 L 464.8235287130535,160.07518796992483 L 464.90528092192415,160.07518796992483 L 464.90528092192415,159.17293233082705 L 464.9434659480514,159.17293233082705 L 464.9434659480514,158.27067669172934 L 466.17063278494135,158.27067669172934 L 466.17063278494135,157.36842105263156 L 466.68006796980126,157.36842105263156 L 466.68006796980126,156.46616541353384 L 467.1896537016799,156.46616541353384 L 467.1896537016799,155.5639097744361 L 467.7049030224974,155.5639097744361 L 467.7049030224974,154.66165413533835 L 468.18127997909306,154.66165413533835 L 468.18127997909306,153.75939849624058 L 468.26283507073816,153.75939849624058 L 468.26283507073816,152.8571428571429 L 468.39320294193175,152.8571428571429 L 468.39320294193175,151.9548872180451 L 468.48930046486703,151.9548872180451 L 468.48930046486703,151.0526315789474 L 468.96273053191334,151.0526315789474 L 468.96273053191334,150.1503759398496 L 469.2613140517054,150.1503759398496 L 469.2613140517054,149.24812030075185 L 469.54382982651777,149.24812030075185 L 469.54382982651777,148.3458646616541 L 469.7831358693609,148.3458646616541 L 469.7831358693609,147.44360902255636 L 470.1045923038064,147.44360902255636 L 470.1045923038064,146.54135338345867 L 471.4429449161684,146.54135338345867 L 471.4429449161684,145.63909774436092 L 472.3041807827608,145.63909774436092 L 472.3041807827608,144.73684210526312 L 473.23006011946626,144.73684210526312 L 473.23006011946626,143.83458646616543 L 474.22654663021535,143.83458646616543 L 474.22654663021535,142.93233082706763 L 474.60471041465775,142.93233082706763 L 474.60471041465775,142.03007518796994 L 474.79710555480455,142.03007518796994 L 474.79710555480455,141.12781954887214 L 475.77596054636024,141.12781954887214 L 475.77596054636024,140.22556390977445 L 476.58049480556303,140.22556390977445 L 476.58049480556303,139.3233082706767 L 477.3749070638411,139.3233082706767 L 477.3749070638411,138.4210526315789 L 477.65172929771455,138.4210526315789 L 477.65172929771455,137.5187969924812 L 477.79641003700084,137.5187969924812 L 477.79641003700084,136.6165413533834 L 478.5939042382452,136.6165413533834 L 478.5939042382452,135.71428571428572 L 480.7334977798949,135.71428571428572 L 480.7334977798949,134.81203007518798 L 480.92976411686203,134.81203007518798 L 480.92976411686203,133.9097744360903 L 481.498578974957,133.9097744360903 L 481.498578974957,133.00751879699249 L 482.66031082608333,133.00751879699249 L 482.66031082608333,132.10526315789474 L 484.0524649735231,132.10526315789474 L 484.0524649735231,131.203007518797 L 485.29323599991994,131.203007518797 L 485.29323599991994,130.30075187969925 L 487.06343356051326,130.30075187969925 L 487.06343356051326,129.3984962406015 L 489.22996761495807,129.3984962406015 L 489.22996761495807,128.49624060150376 L 490.01436135448387,128.49624060150376 L 490.01436135448387,127.59398496240601 L 490.2601902829553,127.59398496240601 L 490.2601902829553,126.69172932330827 L 490.75368380007535,126.69172932330827 L 490.75368380007535,125.78947368421046 L 491.19788720660364,125.78947368421046 L 491.19788720660364,124.88721804511277 L 492.714830307667,124.88721804511277 L 492.714830307667,123.98496240601503 L 492.7618044130526,123.98496240601503 L 492.7618044130526,123.08270676691734 L 492.9082939877128,123.08270676691734 L 492.9082939877128,122.18045112781954 L 493.22406539083806,122.18045112781954 L 493.22406539083806,121.27819548872179 L 496.0210221051331,121.27819548872179 L 496.0210221051331,120.37593984962405 L 496.06378139523406,120.37593984962405 L 496.06378139523406,119.4736842105263 L 497.126385109543,119.4736842105263 L 497.126385109543,118.57142857142856 L 497.12775408065073,118.57142857142856 L 497.12775408065073,117.66917293233081 L 498.1882472419896,117.66917293233081 L 498.1882472419896,116.76691729323312 L 499.33932611120514,116.76691729323312 L 499.33932611120514,115.86466165413532 L 499.40206674966316,115.86466165413532 L 499.40206674966316,114.96240601503757 L 500.98584804385524,114.96240601503757 L 500.98584804385524,114.06015037593983 L 501.8246576386658,114.06015037593983 L 501.8246576386658,113.15789473684208 L 503.7913329771278,113.15789473684208 L 503.7913329771278,112.25563909774439 L 504.86512266525716,112.25563909774439 L 504.86512266525716,111.35338345864665 L 505.76403990603814,111.35338345864665 L 505.76403990603814,110.4511278195489 L 506.5237517849253,110.4511278195489 L 506.5237517849253,109.54887218045116 L 507.0647529730193,109.54887218045116 L 507.0647529730193,108.64661654135335 L 507.2207012983765,108.64661654135335 L 507.2207012983765,107.74436090225566 L 507.9730603020711,107.74436090225566 L 507.9730603020711,106.84210526315786 L 510.2913928305179,106.84210526315786 L 510.2913928305179,105.93984962406017 L 511.1597714523895,105.93984962406017 L 511.1597714523895,105.03759398496237 L 511.53956541809026,105.03759398496237 L 511.53956541809026,104.13533834586468 L 513.4918214109364,104.13533834586468 L 513.4918214109364,103.23308270676688 L 515.1925083938925,103.23308270676688 L 515.1925083938925,102.33082706766913 L 516.3116734708626,102.33082706766913 L 516.3116734708626,101.42857142857144 L 516.6163229138376,101.42857142857144 L 516.6163229138376,100.5263157894737 L 517.6707068600729,100.5263157894737 L 517.6707068600729,99.62406015037595 L 520.7967386957018,99.62406015037595 L 520.7967386957018,98.72180451127821 L 521.4285826190396,98.72180451127821 L 521.4285826190396,97.8195488721804 L 522.964042663597,97.8195488721804 L 522.964042663597,96.91729323308272 L 526.3546416237941,96.91729323308272 L 526.3546416237941,96.01503759398491 L 526.4756192243527,96.01503759398491 L 526.4756192243527,95.11278195488723 L 528.7143925134042,95.11278195488723 L 528.7143925134042,94.21052631578948 L 529.3234891381021,94.21052631578948 L 529.3234891381021,93.30827067669173 L 531.0864984480754,93.30827067669173 L 531.0864984480754,92.40601503759399 L 531.5784097267763,92.40601503759399 L 531.5784097267763,91.50375939849619 L 532.0139325704557,91.50375939849619 L 532.0139325704557,90.6015037593985 L 533.6470147988784,90.6015037593985 L 533.6470147988784,89.69924812030075 L 537.2427105088477,89.69924812030075 L 537.2427105088477,88.79699248120306 L 537.3937149877457,88.79699248120306 L 537.3937149877457,87.89473684210526 L 538.0222858538509,87.89473684210526 L 538.0222858538509,86.99248120300757 L 539.1314260278293,86.99248120300757 L 539.1314260278293,86.09022556390977 L 540.7034360705927,86.09022556390977 L 540.7034360705927,85.18796992481202 L 540.747625594837,85.18796992481202 L 540.747625594837,84.28571428571428 L 541.4162813531935,84.28571428571428 L 541.4162813531935,83.38345864661653 L 542.3640277044341,83.38345864661653 L 542.3640277044341,82.48120300751879 L 543.6805089589284,82.48120300751879 L 543.6805089589284,81.57894736842104 L 543.9463499665231,81.57894736842104 L 543.9463499665231,80.6766917293233 L 547.3781158900198,80.6766917293233 L 547.3781158900198,79.77443609022555 L 549.7653440071429,79.77443609022555 L 549.7653440071429,78.8721804511278 L 550.3590839250701,78.8721804511278 L 550.3590839250701,77.96992481203011 L 554.0646040679974,77.96992481203011 L 554.0646040679974,77.06766917293231 L 554.5561451551966,77.06766917293231 L 554.5561451551966,76.16541353383462 L 557.7982802848637,76.16541353383462 L 557.7982802848637,75.26315789473682 L 558.0894228366166,75.26315789473682 L 558.0894228366166,74.36090225563913 L 559.638942185624,74.36090225563913 L 559.638942185624,73.45864661654133 L 562.2273594411357,73.45864661654133 L 562.2273594411357,72.55639097744358 L 563.9108264321972,72.55639097744358 L 563.9108264321972,71.6541353383459 L 563.9641749776941,71.6541353383459 L 563.9641749776941,70.7518796992481 L 565.5427606648934,70.7518796992481 L 565.5427606648934,69.8496240601504 L 568.5558235613629,69.8496240601504 L 568.5558235613629,68.9473684210526 L 571.1552979794627,68.9473684210526 L 571.1552979794627,68.04511278195486 L 571.48154595582,68.04511278195486 L 571.48154595582,67.14285714285717 L 573.7338453182568,67.14285714285717 L 573.7338453182568,66.24060150375942 L 573.9819631760371,66.24060150375942 L 573.9819631760371,65.33834586466168 L 578.3739613238381,65.33834586466168 L 578.3739613238381,64.43609022556393 L 580.2922825254012,64.43609022556393 L 580.2922825254012,63.533834586466185 L 581.959755168628,63.533834586466185 L 581.959755168628,62.63157894736844 L 587.6389851764153,62.63157894736844 L 587.6389851764153,61.72932330827064 L 591.329631876083,61.72932330827064 L 591.329631876083,60.82706766917295 L 594.5781807259241,60.82706766917295 L 594.5781807259241,59.924812030075145 L 610.503432348424,59.924812030075145 L 610.503432348424,59.022556390977456 L 615.5089526633544,59.022556390977456 L 615.5089526633544,58.120300751879654 L 619.8698828029488,58.120300751879654 L 619.8698828029488,57.218045112781965 L 639.0130035878133,57.218045112781965 L 639.0130035878133,56.31578947368422 L 652.9668907249561,56.31578947368422 L 652.9668907249561,55.413533834586474 L 657.4993320036092,55.413533834586474 L 657.4993320036092,54.51127819548873 L 666.0611792366899,54.51127819548873 L 666.0611792366899,53.60902255639098 L 673.264015484861,53.60902255639098 L 673.264015484861,52.70676691729324 L 704.1214529522787,52.70676691729324 L 704.1214529522787,51.80451127819549 L 705.1307357160803,51.80451127819549 L 705.1307357160803,50.902255639097746 L 706.0422335955014,50.902255639097746 L 706.0422335955014,50.0 L 710,50.0" fill="none" stroke="#3b82f6" stroke-width="2.0" class="series-28640"/>
<path d="M 50,410.0 L 304.96727276888817,410.0 L 328.9982136550309,410.0 L 328.9982136550309,409.09774436090225 L 335.1137878783769,409.09774436090225 L 335.1137878783769,408.1954887218045 L 352.8013833927477,408.1954887218045 L 352.8013833927477,407.29323308270676 L 368.8524390106015,407.29323308270676 L 368.8524390106015,406.390977443609 L 370.5044932851424,406.390977443609 L 370.5044932851424,405.4887218045113 L 372.4505770525874,405.4887218045113 L 372.4505770525874,404.5864661654135 L 375.6582369965512,404.5864661654135 L 375.6582369965512,403.6842105263158 L 376.06258692303516,403.6842105263158 L 376.06258692303516,402.78195488721803 L 377.3190082123316,402.78195488721803 L 377.3190082123316,401.8796992481203 L 377.82717340489245,401.8796992481203 L 377.82717340489245,400.97744360902254 L 378.06056217531955,400.97744360902254 L 378.06056217531955,400.0751879699248 L 378.59844038590677,400.0751879699248 L 378.59844038590677,399.17293233082705 L 389.53092547948495,399.17293233082705 L 389.53092547948495,398.2706766917293 L 390.67190365696234,398.2706766917293 L 390.67190365696234,397.36842105263156 L 394.4906748224147,397.36842105263156 L 394.4906748224147,396.4661654135338 L 395.7132080450246,396.4661654135338 L 395.7132080450246,395.56390977443607 L 399.0524428049928,395.56390977443607 L 399.0524428049928,394.6616541353383 L 403.7225129823387,394.6616541353383 L 403.7225129823387,393.7593984962406 L 406.1805073525424,393.7593984962406 L 406.1805073525424,392.85714285714283 L 407.0797845970808,392.85714285714283 L 407.0797845970808,391.9548872180451 L 407.6527160016067,391.9548872180451 L 407.6527160016067,391.0526315789474 L 408.6634881812975,391.0526315789474 L 408.6634881812975,390.1503759398496 L 412.1156978463754,390.1503759398496 L 412.1156978463754,389.2481203007519 L 412.31906893981517,389.2481203007519 L 412.31906893981517,388.34586466165416 L 412.3234189371445,388.34586466165416 L 412.3234189371445,387.4436090225564 L 413.7654010180715,387.4436090225564 L 413.7654010180715,386.54135338345867 L 417.71697124472416,386.54135338345867 L 417.71697124472416,385.6390977443609 L 418.5429496065224,385.6390977443609 L 418.5429496065224,384.7368421052632 L 419.0948998533811,384.7368421052632 L 419.0948998533811,383.83458646616543 L 421.90124293409957,383.83458646616543 L 421.90124293409957,382.9323308270677 L 422.70861864356687,382.9323308270677 L 422.70861864356687,382.03007518796994 L 422.88460376129103,382.03007518796994 L 422.88460376129103,381.1278195488722 L 423.9116018033772,381.1278195488722 L 423.9116018033772,380.22556390977445 L 425.1408271259319,380.22556390977445 L 425.1408271259319,379.3233082706767 L 425.7532854989538,379.3233082706767 L 425.7532854989538,378.42105263157896 L 425.7682371587416,378.42105263157896 L 425.7682371587416,377.5187969924812 L 426.93715589728555,377.5187969924812 L 426.93715589728555,376.61654135338347 L 429.76371466504224,376.61654135338347 L 429.76371466504224,375.7142857142857 L 429.79869061507395,375.7142857142857 L 429.79869061507395,374.812030075188 L 430.0428175157713,374.812030075188 L 430.0428175157713,373.90977443609023 L 431.15820490536635,373.90977443609023 L 431.15820490536635,373.0075187969925 L 431.6116585699885,373.0075187969925 L 431.6116585699885,372.10526315789474 L 432.20091922642166,372.10526315789474 L 432.20091922642166,371.203007518797 L 432.73051812060856,371.203007518797 L 432.73051812060856,370.30075187969925 L 435.22477698927065,370.30075187969925 L 435.22477698927065,369.3984962406015 L 436.0756976048529,369.3984962406015 L 436.0756976048529,368.49624060150376 L 436.2541143218171,368.49624060150376 L 436.2541143218171,367.593984962406 L 436.29666566725405,367.593984962406 L 436.29666566725405,366.69172932330827 L 437.0402673847416,366.69172932330827 L 437.0402673847416,365.7894736842105 L 437.074783022407,365.7894736842105 L 437.074783022407,364.8872180451128 L 437.2583777528866,364.8872180451128 L 437.2583777528866,363.98496240601503 L 437.97719361914375,363.98496240601503 L 437.97719361914375,363.0827067669173 L 438.7966968414681,363.0827067669173 L 438.7966968414681,362.18045112781954 L 439.48400805251384,362.18045112781954 L 439.48400805251384,361.2781954887218 L 439.994611857671,361.2781954887218 L 439.994611857671,360.37593984962405 L 441.5009307487682,360.37593984962405 L 441.5009307487682,359.47368421052636 L 441.86504088294566,359.47368421052636 L 441.86504088294566,358.57142857142856 L 442.2594039690204,358.57142857142856 L 442.2594039690204,357.6691729323308 L 443.6754750196407,357.6691729323308 L 443.6754750196407,356.76691729323306 L 443.9808902297492,356.76691729323306 L 443.9808902297492,355.8646616541353 L 444.00857910080197,355.8646616541353 L 444.00857910080197,354.9624060150376 L 445.12588355681277,354.9624060150376 L 445.12588355681277,354.0601503759399 L 445.9639072770614,354.0601503759399 L 445.9639072770614,353.1578947368421 L 446.6489199276902,353.1578947368421 L 446.6489199276902,352.2556390977444 L 446.6757810368371,352.2556390977444 L 446.6757810368371,351.3533834586466 L 447.3053374469122,351.3533834586466 L 447.3053374469122,350.4511278195489 L 447.50402389723484,350.4511278195489 L 447.50402389723484,349.5488721804511 L 448.37087229477993,349.5488721804511 L 448.37087229477993,348.6466165413534 L 449.39704629403866,348.6466165413534 L 449.39704629403866,347.74436090225566 L 450.68128582843707,347.74436090225566 L 450.68128582843707,346.8421052631579 L 450.99286705896566,346.8421052631579 L 450.99286705896566,345.9398496240602 L 451.09371211901737,345.9398496240602 L 451.09371211901737,345.0375939849624 L 451.2253601855508,345.0375939849624 L 451.2253601855508,344.1353383458647 L 452.5216950925374,344.1353383458647 L 452.5216950925374,343.23308270676694 L 453.19893701365385,343.23308270676694 L 453.19893701365385,342.3308270676692 L 453.71215074340864,342.3308270676692 L 453.71215074340864,341.42857142857144 L 456.5308670607603,341.42857142857144 L 456.5308670607603,340.5263157894737 L 456.91273808382823,340.5263157894737 L 456.91273808382823,339.62406015037595 L 457.05801053855396,339.62406015037595 L 457.05801053855396,338.7218045112782 L 458.2317608160715,338.7218045112782 L 458.2317608160715,337.81954887218046 L 458.62831256900773,337.81954887218046 L 458.62831256900773,336.9172932330827 L 462.2212534669671,336.9172932330827 L 462.2212534669671,336.01503759398497 L 462.7779051776454,336.01503759398497 L 462.7779051776454,335.1127819548872 L 463.05035196775435,335.1127819548872 L 463.05035196775435,334.2105263157895 L 463.6063837565534,334.2105263157895 L 463.6063837565534,333.30827067669173 L 463.85299098575695,333.30827067669173 L 463.85299098575695,332.406015037594 L 465.1744395286491,332.406015037594 L 465.1744395286491,331.50375939849624 L 465.3028938387277,331.50375939849624 L 465.3028938387277,330.6015037593985 L 466.7745592532455,330.6015037593985 L 466.7745592532455,329.69924812030075 L 467.8468897530387,329.69924812030075 L 467.8468897530387,328.796992481203 L 468.2876226616516,328.796992481203 L 468.2876226616516,327.89473684210526 L 468.4874634486037,327.89473684210526 L 468.4874634486037,326.9924812030075 L 469.1015505166684,326.9924812030075 L 469.1015505166684,326.0902255639098 L 470.999459312581,326.0902255639098 L 470.999459312581,325.187969924812 L 471.72945170736915,325.187969924812 L 471.72945170736915,324.2857142857143 L 471.99692113163405,324.2857142857143 L 471.99692113163405,323.38345864661653 L 472.1763748313819,323.38345864661653 L 472.1763748313819,322.4812030075188 L 475.2164505291997,322.4812030075188 L 475.2164505291997,321.57894736842104 L 475.2549519671386,321.57894736842104 L 475.2549519671386,320.67669172932335 L 475.67532291043864,320.67669172932335 L 475.67532291043864,319.77443609022555 L 475.73169299589904,319.77443609022555 L 475.73169299589904,318.8721804511278 L 476.16441234293166,318.8721804511278 L 476.16441234293166,317.96992481203006 L 477.06908381362126,317.96992481203006 L 477.06908381362126,317.0676691729323 L 477.23846121439493,317.0676691729323 L 477.23846121439493,316.16541353383457 L 478.29842494754763,316.16541353383457 L 478.29842494754763,315.2631578947369 L 478.65044583548416,315.2631578947369 L 478.65044583548416,314.3609022556391 L 478.72235308431544,314.3609022556391 L 478.72235308431544,313.45864661654133 L 479.89717070631275,313.45864661654133 L 479.89717070631275,312.5563909774436 L 482.7113230314018,312.5563909774436 L 482.7113230314018,311.6541353383459 L 482.8092004231311,311.6541353383459 L 482.8092004231311,310.7518796992481 L 483.55589453667375,310.7518796992481 L 483.55589453667375,309.8496240601504 L 484.0820096783673,309.8496240601504 L 484.0820096783673,308.94736842105266 L 484.1526723135259,308.94736842105266 L 484.1526723135259,308.0451127819549 L 484.2868364479258,308.0451127819549 L 484.2868364479258,307.14285714285717 L 485.021658242056,307.14285714285717 L 485.021658242056,306.2406015037594 L 485.03019988854294,306.2406015037594 L 485.03019988854294,305.3383458646617 L 485.16310587914745,305.3383458646617 L 485.16310587914745,304.43609022556393 L 485.729653082324,304.43609022556393 L 485.729653082324,303.5338345864662 L 485.8418473159319,303.5338345864662 L 485.8418473159319,302.63157894736844 L 486.11054246891473,302.63157894736844 L 486.11054246891473,301.7293233082707 L 486.30322321926604,301.7293233082707 L 486.30322321926604,300.82706766917295 L 487.6206710320682,300.82706766917295 L 487.6206710320682,299.9248120300752 L 487.6895846389116,299.9248120300752 L 487.6895846389116,299.02255639097746 L 488.03651761117993,299.02255639097746 L 488.03651761117993,298.1203007518797 L 488.2626007610781,298.1203007518797 L 488.2626007610781,297.21804511278197 L 489.6894305038465,297.21804511278197 L 489.6894305038465,296.3157894736842 L 489.87623597282754,296.3157894736842 L 489.87623597282754,295.4135338345865 L 490.6025582238999,295.4135338345865 L 490.6025582238999,294.5112781954887 L 490.9092665116343,294.5112781954887 L 490.9092665116343,293.609022556391 L 491.6745964598127,293.609022556391 L 491.6745964598127,292.70676691729324 L 491.7168082296045,292.70676691729324 L 491.7168082296045,291.8045112781955 L 492.0090983468835,291.8045112781955 L 492.0090983468835,290.90225563909775 L 493.4589552130517,290.90225563909775 L 493.4589552130517,290.0 L 494.66201004946385,290.0 L 494.66201004946385,289.09774436090225 L 494.8302472245475,289.09774436090225 L 494.8302472245475,288.1954887218045 L 495.0146094999089,288.1954887218045 L 495.0146094999089,287.29323308270676 L 495.26758166106134,287.29323308270676 L 495.26758166106134,286.390977443609 L 496.2690032764554,286.390977443609 L 496.2690032764554,285.48872180451133 L 496.90655113279286,285.48872180451133 L 496.90655113279286,284.5864661654135 L 497.2830900244653,284.5864661654135 L 497.2830900244653,283.68421052631584 L 498.3156836368521,283.68421052631584 L 498.3156836368521,282.78195488721803 L 499.37414254794504,282.78195488721803 L 499.37414254794504,281.87969924812035 L 499.9918583792357,281.87969924812035 L 499.9918583792357,280.97744360902254 L 500.52150268619454,280.97744360902254 L 500.52150268619454,280.07518796992485 L 500.6167683545034,280.07518796992485 L 500.6167683545034,279.17293233082705 L 500.7619082997544,279.17293233082705 L 500.7619082997544,278.27067669172936 L 500.9352206372696,278.27067669172936 L 500.9352206372696,277.36842105263156 L 501.5284398705272,277.36842105263156 L 501.5284398705272,276.4661654135339 L 501.85519702364377,276.4661654135339 L 501.85519702364377,275.56390977443607 L 502.5375175035076,275.56390977443607 L 502.5375175035076,274.6616541353384 L 502.79511464518697,274.6616541353384 L 502.79511464518697,273.7593984962406 L 502.83414413104924,273.7593984962406 L 502.83414413104924,272.8571428571429 L 503.3008957347664,272.8571428571429 L 503.3008957347664,271.95488721804514 L 503.35272755470106,271.95488721804514 L 503.35272755470106,271.0526315789474 L 503.4072198265957,271.0526315789474 L 503.4072198265957,270.1503759398496 L 504.4685371642241,270.1503759398496 L 504.4685371642241,269.2481203007519 L 504.47061747962,269.2481203007519 L 504.47061747962,268.3458646616541 L 504.59482303335903,268.3458646616541 L 504.59482303335903,267.4436090225564 L 505.1847908297594,267.4436090225564 L 505.1847908297594,266.54135338345867 L 505.86277638593475,266.54135338345867 L 505.86277638593475,265.6390977443609 L 506.3418633678793,265.6390977443609 L 506.3418633678793,264.7368421052631 L 506.97920331138397,264.7368421052631 L 506.97920331138397,263.83458646616543 L 507.7153015867981,263.83458646616543 L 507.7153015867981,262.9323308270677 L 508.69903649201586,262.9323308270677 L 508.69903649201586,262.03007518796994 L 509.109968598231,262.03007518796994 L 509.109968598231,261.1278195488722 L 509.21919426240754,261.1278195488722 L 509.21919426240754,260.22556390977445 L 509.55760294603454,260.22556390977445 L 509.55760294603454,259.3233082706767 L 509.9686862963739,259.3233082706767 L 509.9686862963739,258.42105263157896 L 510.0266333644721,258.42105263157896 L 510.0266333644721,257.5187969924812 L 510.1612527808282,257.5187969924812 L 510.1612527808282,256.61654135338347 L 511.21640202880417,256.61654135338347 L 511.21640202880417,255.71428571428572 L 511.67810567141373,255.71428571428572 L 511.67810567141373,254.81203007518798 L 512.0962496618658,254.81203007518798 L 512.0962496618658,253.90977443609023 L 512.2144118462415,253.90977443609023 L 512.2144118462415,253.00751879699249 L 512.4301245585635,253.00751879699249 L 512.4301245585635,252.10526315789474 L 512.9985568838642,252.10526315789474 L 512.9985568838642,251.203007518797 L 515.101257849416,251.203007518797 L 515.101257849416,250.30075187969925 L 515.278592567942,250.30075187969925 L 515.278592567942,249.39849624060153 L 515.4387354490765,249.39849624060153 L 515.4387354490765,248.49624060150379 L 515.5631524033215,248.49624060150379 L 515.5631524033215,247.593984962406 L 515.8437360896055,247.593984962406 L 515.8437360896055,246.69172932330827 L 516.4322252757034,246.69172932330827 L 516.4322252757034,245.78947368421052 L 516.5279123034322,245.78947368421052 L 516.5279123034322,244.88721804511277 L 516.7585413938417,244.88721804511277 L 516.7585413938417,243.98496240601506 L 517.455032181305,243.98496240601506 L 517.455032181305,243.0827067669173 L 517.5147020241886,243.0827067669173 L 517.5147020241886,242.18045112781957 L 517.5909131353111,242.18045112781957 L 517.5909131353111,241.27819548872182 L 517.5980801616458,241.27819548872182 L 517.5980801616458,240.37593984962407 L 518.3119800513707,240.37593984962407 L 518.3119800513707,239.47368421052633 L 518.3311185930756,239.47368421052633 L 518.3311185930756,238.57142857142858 L 518.5163033557416,238.57142857142858 L 518.5163033557416,237.66917293233084 L 518.5520743702964,237.66917293233084 L 518.5520743702964,236.76691729323312 L 519.1764529804869,236.76691729323312 L 519.1764529804869,235.86466165413535 L 519.2171041833701,235.86466165413535 L 519.2171041833701,234.9624060150376 L 519.3403665699112,234.9624060150376 L 519.3403665699112,234.06015037593986 L 519.492817934857,234.06015037593986 L 519.492817934857,233.1578947368421 L 519.5967710583477,233.1578947368421 L 519.5967710583477,232.25563909774436 L 521.2655982921831,232.25563909774436 L 521.2655982921831,231.35338345864665 L 521.418794969228,231.35338345864665 L 521.418794969228,230.4511278195489 L 521.4670742573096,230.4511278195489 L 521.4670742573096,229.54887218045116 L 521.7306797385407,229.54887218045116 L 521.7306797385407,228.64661654135335 L 521.9350415992955,228.64661654135335 L 521.9350415992955,227.74436090225564 L 522.018652353134,227.74436090225564 L 522.018652353134,226.8421052631579 L 522.6095092493472,226.8421052631579 L 522.6095092493472,225.93984962406017 L 522.8933760471916,225.93984962406017 L 522.8933760471916,225.0375939849624 L 522.9975962548797,225.0375939849624 L 522.9975962548797,224.13533834586465 L 523.5813404540218,224.13533834586465 L 523.5813404540218,223.2330827067669 L 524.548015897362,223.2330827067669 L 524.548015897362,222.33082706766916 L 524.8681971225396,222.33082706766916 L 524.8681971225396,221.42857142857142 L 525.6633038281698,221.42857142857142 L 525.6633038281698,220.5263157894737 L 525.7475423253411,220.5263157894737 L 525.7475423253411,219.62406015037593 L 526.1111425614035,219.62406015037593 L 526.1111425614035,218.7218045112782 L 526.8849984873794,218.7218045112782 L 526.8849984873794,217.81954887218043 L 527.1478502729206,217.81954887218043 L 527.1478502729206,216.9172932330827 L 529.2130902343706,216.9172932330827 L 529.2130902343706,216.01503759398494 L 529.2625579523185,216.01503759398494 L 529.2625579523185,215.11278195488723 L 529.4600572465863,215.11278195488723 L 529.4600572465863,214.21052631578945 L 530.1216036822094,214.21052631578945 L 530.1216036822094,213.30827067669173 L 530.5553482585908,213.30827067669173 L 530.5553482585908,212.40601503759396 L 531.4090734949041,212.40601503759396 L 531.4090734949041,211.50375939849621 L 531.6526194214493,211.50375939849621 L 531.6526194214493,210.60150375939847 L 533.1526839809592,210.60150375939847 L 533.1526839809592,209.69924812030075 L 533.1585141311673,209.69924812030075 L 533.1585141311673,208.79699248120298 L 533.3173354332853,208.79699248120298 L 533.3173354332853,207.89473684210526 L 533.4728433006466,207.89473684210526 L 533.4728433006466,206.99248120300754 L 533.7831808074577,206.99248120300754 L 533.7831808074577,206.09022556390974 L 534.5212212816714,206.09022556390974 L 534.5212212816714,205.18796992481202 L 535.804504305062,205.18796992481202 L 535.804504305062,204.28571428571428 L 536.1798025817012,204.28571428571428 L 536.1798025817012,203.38345864661656 L 536.4565994441654,203.38345864661656 L 536.4565994441654,202.4812030075188 L 537.6607819843271,202.4812030075188 L 537.6607819843271,201.57894736842107 L 537.7794124786241,201.57894736842107 L 537.7794124786241,200.6766917293233 L 537.7881677723014,200.6766917293233 L 537.7881677723014,199.77443609022555 L 538.2561874125058,199.77443609022555 L 538.2561874125058,198.8721804511278 L 539.621942092293,198.8721804511278 L 539.621942092293,197.9699248120301 L 539.6331937387424,197.9699248120301 L 539.6331937387424,197.0676691729323 L 540.0557566010078,197.0676691729323 L 540.0557566010078,196.1654135338346 L 540.1720132920514,196.1654135338346 L 540.1720132920514,195.26315789473685 L 540.1941953981504,195.26315789473685 L 540.1941953981504,194.36090225563908 L 540.1992479187516,194.36090225563908 L 540.1992479187516,193.45864661654133 L 540.2116377447386,193.45864661654133 L 540.2116377447386,192.5563909774436 L 540.2791464977144,192.5563909774436 L 540.2791464977144,191.65413533834584 L 540.6027183555802,191.65413533834584 L 540.6027183555802,190.75187969924812 L 541.657598729519,190.75187969924812 L 541.657598729519,189.84962406015038 L 542.3050036903426,189.84962406015038 L 542.3050036903426,188.9473684210526 L 542.6325503234093,188.9473684210526 L 542.6325503234093,188.04511278195486 L 543.2449239961991,188.04511278195486 L 543.2449239961991,187.14285714285714 L 543.4813703220577,187.14285714285714 L 543.4813703220577,186.24060150375936 L 544.3672114497818,186.24060150375936 L 544.3672114497818,185.33834586466165 L 544.6963423955865,185.33834586466165 L 544.6963423955865,184.43609022556393 L 544.7165738092191,184.43609022556393 L 544.7165738092191,183.53383458646616 L 544.8347697557256,183.53383458646616 L 544.8347697557256,182.6315789473684 L 544.9891449412496,182.6315789473684 L 544.9891449412496,181.72932330827066 L 545.5431707219868,181.72932330827066 L 545.5431707219868,180.82706766917295 L 546.1443390485604,180.82706766917295 L 546.1443390485604,179.92481203007517 L 547.221385869906,179.92481203007517 L 547.221385869906,179.02255639097746 L 547.7405514861463,179.02255639097746 L 547.7405514861463,178.1203007518797 L 547.9053253370297,178.1203007518797 L 547.9053253370297,177.21804511278194 L 548.1206578198833,177.21804511278194 L 548.1206578198833,176.3157894736842 L 548.4166607681046,176.3157894736842 L 548.4166607681046,175.41353383458647 L 548.9119087246,175.41353383458647 L 548.9119087246,174.5112781954887 L 549.3814424487596,174.5112781954887 L 549.3814424487596,173.60902255639098 L 550.2690192630764,173.60902255639098 L 550.2690192630764,172.70676691729324 L 551.6654672302338,172.70676691729324 L 551.6654672302338,171.8045112781955 L 552.3137046268953,171.8045112781955 L 552.3137046268953,170.90225563909772 L 552.4018956715668,170.90225563909772 L 552.4018956715668,170.0 L 552.5122065912377,170.0 L 552.5122065912377,169.09774436090223 L 552.7587225380989,169.09774436090223 L 552.7587225380989,168.1954887218045 L 554.5535725232935,168.1954887218045 L 554.5535725232935,167.29323308270676 L 554.8170259311048,167.29323308270676 L 554.8170259311048,166.39097744360902 L 557.1832302994796,166.39097744360902 L 557.1832302994796,165.48872180451124 L 557.6673579634946,165.48872180451124 L 557.6673579634946,164.58646616541353 L 558.1930110888404,164.58646616541353 L 558.1930110888404,163.68421052631575 L 558.552394838191,163.68421052631575 L 558.552394838191,162.78195488721803 L 558.8338538805842,162.78195488721803 L 558.8338538805842,161.87969924812032 L 559.4032634528477,161.87969924812032 L 559.4032634528477,160.97744360902254 L 560.0074022899105,160.97744360902254 L 560.0074022899105,160.07518796992483 L 561.0090599173989,160.07518796992483 L 561.0090599173989,159.17293233082705 L 562.3484420655337,159.17293233082705 L 562.3484420655337,158.27067669172934 L 562.6015582772061,158.27067669172934 L 562.6015582772061,157.36842105263156 L 563.4690221555974,157.36842105263156 L 563.4690221555974,156.46616541353384 L 563.4970851852179,156.46616541353384 L 563.4970851852179,155.5639097744361 L 564.0389635993189,155.5639097744361 L 564.0389635993189,154.66165413533835 L 564.9575004069555,154.66165413533835 L 564.9575004069555,153.75939849624058 L 564.9729972509135,153.75939849624058 L 564.9729972509135,152.8571428571429 L 565.2063032157965,152.8571428571429 L 565.2063032157965,151.9548872180451 L 565.5629945343503,151.9548872180451 L 565.5629945343503,151.0526315789474 L 565.5987728782873,151.0526315789474 L 565.5987728782873,150.1503759398496 L 565.6028330737855,150.1503759398496 L 565.6028330737855,149.24812030075185 L 566.0276744072727,149.24812030075185 L 566.0276744072727,148.3458646616541 L 566.2321833242776,148.3458646616541 L 566.2321833242776,147.44360902255636 L 566.7520738273057,147.44360902255636 L 566.7520738273057,146.54135338345867 L 566.816779806618,146.54135338345867 L 566.816779806618,145.63909774436092 L 567.0038478023386,145.63909774436092 L 567.0038478023386,144.73684210526312 L 568.485749306223,144.73684210526312 L 568.485749306223,143.83458646616543 L 569.4312397788036,143.83458646616543 L 569.4312397788036,142.93233082706763 L 569.8702785139548,142.93233082706763 L 569.8702785139548,142.03007518796994 L 570.4012056382065,142.03007518796994 L 570.4012056382065,141.12781954887214 L 572.2695734880039,141.12781954887214 L 572.2695734880039,140.22556390977445 L 572.5477082098645,140.22556390977445 L 572.5477082098645,139.3233082706767 L 572.7678256328021,139.3233082706767 L 572.7678256328021,138.4210526315789 L 572.9076507131471,138.4210526315789 L 572.9076507131471,137.5187969924812 L 572.992649553176,137.5187969924812 L 572.992649553176,136.6165413533834 L 574.3258078537006,136.6165413533834 L 574.3258078537006,135.71428571428572 L 575.3411415673273,135.71428571428572 L 575.3411415673273,134.81203007518798 L 576.0166238798586,134.81203007518798 L 576.0166238798586,133.9097744360903 L 576.1764681799876,133.9097744360903 L 576.1764681799876,133.00751879699249 L 576.3940072560266,133.00751879699249 L 576.3940072560266,132.10526315789474 L 576.5002263055316,132.10526315789474 L 576.5002263055316,131.203007518797 L 577.1388884044167,131.203007518797 L 577.1388884044167,130.30075187969925 L 577.31251804872,130.30075187969925 L 577.31251804872,129.3984962406015 L 577.9906514593508,129.3984962406015 L 577.9906514593508,128.49624060150376 L 578.647764137425,128.49624060150376 L 578.647764137425,127.59398496240601 L 579.0304691743705,127.59398496240601 L 579.0304691743705,126.69172932330827 L 579.2014881942573,126.69172932330827 L 579.2014881942573,125.78947368421046 L 579.6883690931107,125.78947368421046 L 579.6883690931107,124.88721804511277 L 580.14730959759,124.88721804511277 L 580.14730959759,123.98496240601503 L 580.9662481675371,123.98496240601503 L 580.9662481675371,123.08270676691734 L 581.6235749414972,123.08270676691734 L 581.6235749414972,122.18045112781954 L 581.8897001084196,122.18045112781954 L 581.8897001084196,121.27819548872179 L 582.1620851028737,121.27819548872179 L 582.1620851028737,120.37593984962405 L 585.4585133825203,120.37593984962405 L 585.4585133825203,119.4736842105263 L 586.3813516493303,119.4736842105263 L 586.3813516493303,118.57142857142856 L 587.5214163579988,118.57142857142856 L 587.5214163579988,117.66917293233081 L 588.860315343189,117.66917293233081 L 588.860315343189,116.76691729323312 L 589.1915385790184,116.76691729323312 L 589.1915385790184,115.86466165413532 L 589.5391957287276,115.86466165413532 L 589.5391957287276,114.96240601503757 L 589.9198873546429,114.96240601503757 L 589.9198873546429,114.06015037593983 L 590.5043504025889,114.06015037593983 L 590.5043504025889,113.15789473684208 L 590.6232231002667,113.15789473684208 L 590.6232231002667,112.25563909774439 L 593.7715027890123,112.25563909774439 L 593.7715027890123,111.35338345864665 L 594.0977994361118,111.35338345864665 L 594.0977994361118,110.4511278195489 L 594.313833088962,110.4511278195489 L 594.313833088962,109.54887218045116 L 594.7744330197659,109.54887218045116 L 594.7744330197659,108.64661654135335 L 594.826374027896,108.64661654135335 L 594.826374027896,107.74436090225566 L 596.0283130971357,107.74436090225566 L 596.0283130971357,106.84210526315786 L 596.1980774552244,106.84210526315786 L 596.1980774552244,105.93984962406017 L 599.5480588109672,105.93984962406017 L 599.5480588109672,105.03759398496237 L 599.8995262516687,105.03759398496237 L 599.8995262516687,104.13533834586468 L 599.9609490894363,104.13533834586468 L 599.9609490894363,103.23308270676688 L 601.3384836095751,103.23308270676688 L 601.3384836095751,102.33082706766913 L 601.4749742383598,102.33082706766913 L 601.4749742383598,101.42857142857144 L 602.6989554180624,101.42857142857144 L 602.6989554180624,100.5263157894737 L 603.1301382265705,100.5263157894737 L 603.1301382265705,99.62406015037595 L 604.5883396402652,99.62406015037595 L 604.5883396402652,98.72180451127821 L 605.121691550828,98.72180451127821 L 605.121691550828,97.8195488721804 L 606.8906914094514,97.8195488721804 L 606.8906914094514,96.91729323308272 L 606.9307460625585,96.91729323308272 L 606.9307460625585,96.01503759398491 L 607.6776178050491,96.01503759398491 L 607.6776178050491,95.11278195488723 L 609.1533018133287,95.11278195488723 L 609.1533018133287,94.21052631578948 L 609.9302320021872,94.21052631578948 L 609.9302320021872,93.30827067669173 L 610.2783749189596,93.30827067669173 L 610.2783749189596,92.40601503759399 L 610.3448098645437,92.40601503759399 L 610.3448098645437,91.50375939849619 L 610.5251092628077,91.50375939849619 L 610.5251092628077,90.6015037593985 L 611.6053829195379,90.6015037593985 L 611.6053829195379,89.69924812030075 L 612.0258262854894,89.69924812030075 L 612.0258262854894,88.79699248120306 L 614.6373333733997,88.79699248120306 L 614.6373333733997,87.89473684210526 L 615.17179600457,87.89473684210526 L 615.17179600457,86.99248120300757 L 615.4459303387903,86.99248120300757 L 615.4459303387903,86.09022556390977 L 616.2924693049118,86.09022556390977 L 616.2924693049118,85.18796992481202 L 617.8572642859021,85.18796992481202 L 617.8572642859021,84.28571428571428 L 618.4279101492411,84.28571428571428 L 618.4279101492411,83.38345864661653 L 619.4638718464412,83.38345864661653 L 619.4638718464412,82.48120300751879 L 620.8420594033993,82.48120300751879 L 620.8420594033993,81.57894736842104 L 621.3046660136408,81.57894736842104 L 621.3046660136408,80.6766917293233 L 621.4975819934994,80.6766917293233 L 621.4975819934994,79.77443609022555 L 622.6700953469488,79.77443609022555 L 622.6700953469488,78.8721804511278 L 624.2103217587102,78.8721804511278 L 624.2103217587102,77.96992481203011 L 627.1247996428494,77.96992481203011 L 627.1247996428494,77.06766917293231 L 628.4657529346281,77.06766917293231 L 628.4657529346281,76.16541353383462 L 629.2377720057061,76.16541353383462 L 629.2377720057061,75.26315789473682 L 630.7175978282394,75.26315789473682 L 630.7175978282394,74.36090225563913 L 636.7752986447451,74.36090225563913 L 636.7752986447451,73.45864661654133 L 637.2295825368585,73.45864661654133 L 637.2295825368585,72.55639097744358 L 640.4207975459877,72.55639097744358 L 640.4207975459877,71.6541353383459 L 641.2743437747455,71.6541353383459 L 641.2743437747455,70.7518796992481 L 641.2953123304987,70.7518796992481 L 641.2953123304987,69.8496240601504 L 641.833249702808,69.8496240601504 L 641.833249702808,68.9473684210526 L 642.8876731227631,68.9473684210526 L 642.8876731227631,68.04511278195486 L 645.9917482749754,68.04511278195486 L 645.9917482749754,67.14285714285717 L 646.9247203259526,67.14285714285717 L 646.9247203259526,66.24060150375942 L 647.5763506181672,66.24060150375942 L 647.5763506181672,65.33834586466168 L 648.5736930343977,65.33834586466168 L 648.5736930343977,64.43609022556393 L 652.4910937638849,64.43609022556393 L 652.4910937638849,63.533834586466185 L 660.0681906151788,63.533834586466185 L 660.0681906151788,62.63157894736844 L 663.9721613392672,62.63157894736844 L 663.9721613392672,61.72932330827064 L 670.6891801462101,61.72932330827064 L 670.6891801462101,60.82706766917295 L 671.9188642028081,60.82706766917295 L 671.9188642028081,59.924812030075145 L 672.6602723041685,59.924812030075145 L 672.6602723041685,59.022556390977456 L 675.8138739460015,59.022556390977456 L 675.8138739460015,58.120300751879654 L 679.4284833609678,58.120300751879654 L 679.4284833609678,57.218045112781965 L 685.3139134166166,57.218045112781965 L 685.3139134166166,56.31578947368422 L 691.2996556093483,56.31578947368422 L 691.2996556093483,55.413533834586474 L 694.6568143670298,55.413533834586474 L 694.6568143670298,54.51127819548873 L 694.8990714869016,54.51127819548873 L 694.8990714869016,53.60902255639098 L 695.4921743553725,53.60902255639098 L 695.4921743553725,52.70676691729324 L 698.1343056043188,52.70676691729324 L 698.1343056043188,51.80451127819549 L 701.5875547128327,51.80451127819549 L 701.5875547128327,50.902255639097746 L 702.3228250035751,50.902255639097746 L 702.3228250035751,50.0 L 710,50.0" fill="none" stroke="#ef4444" stroke-width="2.0" class="series-58448"/>
<g class="glyphx-legend">
<rect x="10" y="20" width="12" height="12" fill="#3b82f6" class="legend-icon" data-target="series-28640" />
<text x="30" y="30" font-size="12" font-family="sans-serif" fill="#000000" class="legend-label" data-target="series-28640">Control  (n=400)</text>
<rect x="10" y="42" width="12" height="12" fill="#ef4444" class="legend-icon" data-target="series-58448" />
<text x="30" y="52" font-size="12" font-family="sans-serif" fill="#000000" class="legend-label" data-target="series-58448">Treatment  (n=400)</text>
</g></svg>