<svg id="glyphx-chart-10" data-glyphx="true" width="100%" viewBox="0 0 760 460" height="auto" xmlns="http://www.w3.org/2000/svg" viewBox="0 0 760 460" role="img" focusable="false" aria-labelledby="glyphx-chart-10-title glyphx-chart-10-desc"><title id="glyphx-chart-10-title">ECDF  —  No Bin-Width Required  —  ECDFSeries</title><desc id="glyphx-chart-10-desc">Ecdf chart titled &quot;ECDF  —  No Bin-Width Required  —  ECDFSeries&quot;. X axis: Response Time (ms). Y axis: Cumulative Proportion. Series &quot;Control  (n=400)&quot;: 400 data points. Ranges from 0.0025 (at 12.575982959885863) to 1 (at 89.40359124477027). Series &quot;Treatment  (n=400)&quot;: 400 data points. Ranges from 0.0025 (at 33.82330947698575) to 1 (at 94.93165761731143).</desc><rect width="760" height="460" fill="#ffffff"/>
<text x="380" y="28" text-anchor="middle" font-size="20" font-weight="bold" font-family="sans-serif" fill="#000000">ECDF  —  No Bin-Width Required  —  ECDFSeries</text>
<line x1="50" y1="410" x2="710" y2="410" stroke="#333" />
<line x1="50" y1="50" x2="50" y2="410" stroke="#333" />
<text x="380" y="450" text-anchor="middle" font-size="13" font-family="sans-serif" fill="#000000">Response Time (ms)</text>
<text x="15" y="230" text-anchor="middle" font-size="13" font-family="sans-serif" fill="#000000" transform="rotate(-90, 15, 230)">Cumulative Proportion</text>
<line x1="50" x2="710" y1="410.0" y2="410.0" stroke="#ddd" stroke-dasharray="3,3" />
<text x="42" y="414.0" text-anchor="end" font-size="11" font-family="sans-serif" fill="#000000">0.00</text>
<line x1="50" x2="710" y1="338.0" y2="338.0" stroke="#ddd" stroke-dasharray="3,3" />
<text x="42" y="342.0" text-anchor="end" font-size="11" font-family="sans-serif" fill="#000000">0.20</text>
<line x1="50" x2="710" y1="266.0" y2="266.0" stroke="#ddd" stroke-dasharray="3,3" />
<text x="42" y="270.0" text-anchor="end" font-size="11" font-family="sans-serif" fill="#000000">0.40</text>
<line x1="50" x2="710" y1="194.0" y2="194.0" stroke="#ddd" stroke-dasharray="3,3" />
<text x="42" y="198.0" text-anchor="end" font-size="11" font-family="sans-serif" fill="#000000">0.60</text>
<line x1="50" x2="710" y1="122.0" y2="122.0" stroke="#ddd" stroke-dasharray="3,3" />
<text x="42" y="126.0" text-anchor="end" font-size="11" font-family="sans-serif" fill="#000000">0.80</text>
<line x1="50" x2="710" y1="50.0" y2="50.0" stroke="#ddd" stroke-dasharray="3,3" />
<text x="42" y="54.0" text-anchor="end" font-size="11" font-family="sans-serif" fill="#000000">1</text>
<line y1="50" y2="410" x1="50.0" x2="50.0" stroke="#ddd" stroke-dasharray="3,3" />
<text x="50.0" y="426" text-anchor="middle" font-size="11" font-family="sans-serif" fill="#000000" >12.1</text>
<line y1="50" y2="410" x1="182.0" x2="182.0" stroke="#ddd" stroke-dasharray="3,3" />
<text x="182.0" y="426" text-anchor="middle" font-size="11" font-family="sans-serif" fill="#000000" >28.7</text>
<line y1="50" y2="410" x1="314.0" x2="314.0" stroke="#ddd" stroke-dasharray="3,3" />
<text x="314.0" y="426" text-anchor="middle" font-size="11" font-family="sans-serif" fill="#000000" >45.4</text>
<line y1="50" y2="410" x1="445.99999999999994" x2="445.99999999999994" stroke="#ddd" stroke-dasharray="3,3" />
<text x="445.99999999999994" y="426" text-anchor="middle" font-size="11" font-family="sans-serif" fill="#000000" >62.1</text>
<line y1="50" y2="410" x1="578.0" x2="578.0" stroke="#ddd" stroke-dasharray="3,3" />
<text x="578.0" y="426" text-anchor="middle" font-size="11" font-family="sans-serif" fill="#000000" >78.8</text>
<line y1="50" y2="410" x1="710.0" x2="710.0" stroke="#ddd" stroke-dasharray="3,3" />
<text x="710.0" y="426" text-anchor="middle" font-size="11" font-family="sans-serif" fill="#000000" >95.4</text>
<path d="M 50,410.0 L 53.95893862482946,410.0 L 54.06312784437389,410.0 L 54.06312784437389,409.09774436090225 L 87.71640963983629,409.09774436090225 L 87.71640963983629,408.1954887218045 L 121.05071738100887,408.1954887218045 L 121.05071738100887,407.29323308270676 L 143.5288508998574,407.29323308270676 L 143.5288508998574,406.390977443609 L 145.84241191712852,406.390977443609 L 145.84241191712852,405.4887218045113 L 148.56773614532662,405.4887218045113 L 148.56773614532662,404.5864661654135 L 153.05979013978663,404.5864661654135 L 153.05979013978663,403.6842105263158 L 153.62604770266836,403.6842105263158 L 153.62604770266836,402.78195488721803 L 155.38555848931807,402.78195488721803 L 155.38555848931807,401.8796992481203 L 156.4240415267161,401.8796992481203 L 156.4240415267161,400.97744360902254 L 157.17729405554113,400.97744360902254 L 157.17729405554113,400.0751879699248 L 170.3335787620162,400.0751879699248 L 170.3335787620162,399.17293233082705 L 172.48730639846332,399.17293233082705 L 172.48730639846332,398.2706766917293 L 174.08514895947854,398.2706766917293 L 174.08514895947854,397.36842105263156 L 179.433012064475,397.36842105263156 L 179.433012064475,396.4661654135338 L 181.1450655059003,396.4661654135338 L 181.1450655059003,395.56390977443607 L 185.82137880094953,395.56390977443607 L 185.82137880094953,394.6616541353383 L 192.36141351816832,394.6616541353383 L 192.36141351816832,393.7593984962406 L 195.80362485662766,393.7593984962406 L 195.80362485662766,392.85714285714283 L 197.062985888977,392.85714285714283 L 197.062985888977,391.9548872180451 L 197.86532742430558,391.9548872180451 L 197.86532742430558,391.0526315789474 L 199.28082759782419,391.0526315789474 L 199.28082759782419,390.1503759398496 L 204.11535260566015,390.1503759398496 L 204.11535260566015,389.2481203007519 L 204.4001564653595,389.2481203007519 L 204.4001564653595,388.34586466165416 L 204.40624826536958,388.34586466165416 L 204.40624826536958,387.4436090225564 L 206.4256211040514,387.4436090225564 L 206.4256211040514,386.54135338345867 L 211.95945796055105,386.54135338345867 L 211.95945796055105,385.6390977443609 L 213.11617016330052,385.6390977443609 L 213.11617016330052,384.7368421052632 L 213.3755427003543,384.7368421052632 L 213.3755427003543,383.83458646616543 L 213.8891293779486,383.83458646616543 L 213.8891293779486,382.9323308270677 L 216.5736243062061,382.9323308270677 L 216.5736243062061,382.03007518796994 L 217.81917335573667,382.03007518796994 L 217.81917335573667,381.1278195488722 L 218.94983413153602,381.1278195488722 L 218.94983413153602,380.22556390977445 L 219.19628626949606,380.22556390977445 L 219.19628626949606,379.3233082706767 L 220.63450937850646,379.3233082706767 L 220.63450937850646,378.42105263157896 L 222.3559345347684,378.42105263157896 L 222.3559345347684,377.5187969924812 L 223.21363021605498,377.5187969924812 L 223.21363021605498,376.61654135338347 L 223.2345687395415,376.61654135338347 L 223.2345687395415,375.7142857142857 L 224.87153967174913,375.7142857142857 L 224.87153967174913,374.812030075188 L 228.82989399393065,374.812030075188 L 228.82989399393065,373.90977443609023 L 228.87887482693506,373.90977443609023 L 228.87887482693506,373.0075187969925 L 229.2207537164027,373.0075187969925 L 229.2207537164027,372.10526315789474 L 230.78275856302918,372.10526315789474 L 230.78275856302918,371.203007518797 L 232.24299097943342,371.203007518797 L 232.24299097943342,370.30075187969925 L 232.9846490322362,370.30075187969925 L 232.9846490322362,369.3984962406015 L 235.49437476673714,369.3984962406015 L 235.49437476673714,368.49624060150376 L 236.4776457058006,368.49624060150376 L 236.4776457058006,367.593984962406 L 237.66928740628305,367.593984962406 L 237.66928740628305,366.69172932330827 L 237.91914479145436,366.69172932330827 L 237.91914479145436,365.7894736842105 L 237.97873431920326,365.7894736842105 L 237.97873431920326,364.8872180451128 L 239.02008506201284,364.8872180451128 L 239.02008506201284,363.98496240601503 L 239.06842126683338,363.98496240601503 L 239.06842126683338,363.0827067669173 L 239.32553001801645,363.0827067669173 L 239.32553001801645,362.18045112781954 L 240.3321702915212,362.18045112781954 L 240.3321702915212,361.2781954887218 L 241.47981461405672,361.2781954887218 L 241.47981461405672,360.37593984962405 L 242.44233530669604,360.37593984962405 L 242.44233530669604,359.47368421052636 L 243.15739235844455,359.47368421052636 L 243.15739235844455,358.57142857142856 L 245.26686340895827,358.57142857142856 L 245.26686340895827,357.6691729323308 L 245.7767685769712,357.6691729323308 L 245.7767685769712,356.76691729323306 L 246.32904042218448,356.76691729323306 L 246.32904042218448,355.8646616541353 L 248.3121270742932,355.8646616541353 L 248.3121270742932,354.9624060150376 L 248.73983501045336,354.9624060150376 L 248.73983501045336,354.0601503759399 L 248.77861091126192,354.0601503759399 L 248.77861091126192,353.1578947368421 L 250.34330044579198,353.1578947368421 L 250.34330044579198,352.2556390977444 L 251.5168811450426,352.2556390977444 L 251.5168811450426,351.3533834586466 L 252.47618289998803,351.3533834586466 L 252.47618289998803,350.4511278195489 L 252.51379959089257,350.4511278195489 L 252.51379959089257,349.5488721804511 L 253.39543961384373,349.5488721804511 L 253.39543961384373,348.6466165413534 L 254.88763023043563,348.6466165413534 L 254.88763023043563,347.74436090225566 L 255.59504719619903,347.74436090225566 L 255.59504719619903,346.8421052631579 L 256.3246993377941,346.8421052631579 L 256.3246993377941,345.9398496240602 L 256.9717591478453,345.9398496240602 L 256.9717591478453,345.0375939849624 L 258.12316720256683,345.0375939849624 L 258.12316720256683,344.1353383458647 L 258.55951012408775,344.1353383458647 L 258.55951012408775,343.23308270676694 L 258.7007350240898,343.23308270676694 L 258.7007350240898,342.3308270676692 L 258.8850969057935,342.3308270676692 L 258.8850969057935,341.42857142857144 L 259.5857534413976,341.42857142857144 L 259.5857534413976,340.5263157894737 L 260.70050330759904,340.5263157894737 L 260.70050330759904,339.62406015037595 L 262.3676348474577,339.62406015037595 L 262.3676348474577,338.7218045112782 L 266.3150064871592,338.7218045112782 L 266.3150064871592,337.81954887218046 L 266.7575090375334,337.81954887218046 L 266.7575090375334,336.9172932330827 L 266.849784264264,336.9172932330827 L 266.849784264264,336.01503759398497 L 267.05322593886035,336.01503759398497 L 267.05322593886035,335.1127819548872 L 268.69696302905396,335.1127819548872 L 268.69696302905396,334.2105263157895 L 269.2522999154155,334.2105263157895 L 269.2522999154155,333.30827067669173 L 275.0634502177067,333.30827067669173 L 275.0634502177067,332.406015037594 L 275.4449886953404,332.406015037594 L 275.4449886953404,331.50375939849624 L 276.2236637611377,331.50375939849624 L 276.2236637611377,330.6015037593985 L 276.5690161389954,330.6015037593985 L 276.5690161389954,329.69924812030075 L 278.41959204456873,329.69924812030075 L 278.41959204456873,328.796992481203 L 278.5994813429278,328.796992481203 L 278.5994813429278,327.89473684210526 L 279.20290363824273,327.89473684210526 L 279.20290363824273,326.9924812030075 L 280.66042315698553,326.9924812030075 L 280.66042315698553,326.0902255639098 L 280.71311715683476,326.0902255639098 L 280.71311715683476,325.187969924812 L 282.1621305041258,325.187969924812 L 282.1621305041258,324.2857142857143 L 282.77933932838096,324.2857142857143 L 282.77933932838096,323.38345864661653 L 283.05919929513766,323.38345864661653 L 283.05919929513766,322.4812030075188 L 283.919175824831,322.4812030075188 L 283.919175824831,321.57894736842104 L 286.5770351168807,321.57894736842104 L 286.5770351168807,320.67669172932335 L 287.97389526629604,320.67669172932335 L 287.97389526629604,319.77443609022555 L 288.2252048573547,319.77443609022555 L 288.2252048573547,318.8721804511278 L 292.48257141752936,318.8721804511278 L 292.48257141752936,317.96992481203006 L 292.53648939546576,317.96992481203006 L 292.53648939546576,317.0676691729323 L 293.1251830250879,317.0676691729323 L 293.1251830250879,316.16541353383457 L 293.81011103406,316.16541353383457 L 293.81011103406,315.2631578947369 L 295.077026219765,315.2631578947369 L 295.077026219765,314.3609022556391 L 295.3142248140699,314.3609022556391 L 295.3142248140699,313.45864661654133 L 297.29158877037577,313.45864661654133 L 297.29158877037577,312.5563909774436 L 297.3922887354551,312.5563909774436 L 297.3922887354551,311.6541353383459 L 299.0375205505002,311.6541353383459 L 299.0375205505002,310.7518796992481 L 300.6911231755458,310.7518796992481 L 300.6911231755458,309.8496240601504 L 302.61295657827736,309.8496240601504 L 302.61295657827736,308.94736842105266 L 302.9785007085509,308.94736842105266 L 302.9785007085509,308.0451127819549 L 303.1155696423424,308.0451127819549 L 303.1155696423424,307.14285714285717 L 304.1612510219072,307.14285714285717 L 304.1612510219072,306.2406015037594 L 304.8980303766633,306.2406015037594 L 304.8980303766633,305.3383458646617 L 304.9969873665152,305.3383458646617 L 304.9969873665152,304.43609022556393 L 305.1848727865325,304.43609022556393 L 305.1848727865325,303.5338345864662 L 306.21392799600085,303.5338345864662 L 306.21392799600085,302.63157894736844 L 306.41201333992876,302.63157894736844 L 306.41201333992876,301.7293233082707 L 307.20541434612596,301.7293233082707 L 307.20541434612596,300.82706766917295 L 307.3625327951006,300.82706766917295 L 307.3625327951006,299.9248120300752 L 307.73881742512197,299.9248120300752 L 307.73881742512197,299.02255639097746 L 308.008650371691,299.02255639097746 L 308.008650371691,298.1203007518797 L 309.2611067928431,298.1203007518797 L 309.2611067928431,297.21804511278197 L 309.85362359621473,297.21804511278197 L 309.85362359621473,296.3157894736842 L 309.9501312211816,296.3157894736842 L 309.9501312211816,295.4135338345865 L 310.4359812399221,295.4135338345865 L 310.4359812399221,294.5112781954887 L 310.7525913963358,294.5112781954887 L 310.7525913963358,293.609022556391 L 312.7507446785995,293.609022556391 L 312.7507446785995,292.70676691729324 L 313.01234979503414,292.70676691729324 L 313.01234979503414,291.8045112781955 L 314.02950211984165,291.8045112781955 L 314.02950211984165,290.90225563909775 L 314.4590209008597,290.90225563909775 L 314.4590209008597,290.0 L 315.53080017636046,290.0 L 315.53080017636046,289.09774436090225 L 315.5899141573993,289.09774436090225 L 315.5899141573993,288.1954887218045 L 315.9992415212101,288.1954887218045 L 315.9992415212101,287.29323308270676 L 318.0296423245504,287.29323308270676 L 318.0296423245504,286.390977443609 L 319.71441794848437,286.390977443609 L 319.71441794848437,285.48872180451133 L 319.95001975402283,285.48872180451133 L 319.95001975402283,284.5864661654135 L 320.2082033863069,284.5864661654135 L 320.2082033863069,283.68421052631584 L 320.5624693081451,283.68421052631584 L 320.5624693081451,282.78195488721803 L 321.96487481438805,282.78195488721803 L 321.96487481438805,281.87969924812035 L 322.96149771209355,281.87969924812035 L 322.96149771209355,280.97744360902254 L 323.38501675795624,280.97744360902254 L 323.38501675795624,280.07518796992485 L 324.83107598562003,280.07518796992485 L 324.83107598562003,279.17293233082705 L 326.31335735665317,279.17293233082705 L 326.31335735665317,278.27067669172936 L 327.1784156595483,278.27067669172936 L 327.1784156595483,277.36842105263156 L 327.9201373090626,277.36842105263156 L 327.9201373090626,276.4661654135339 L 328.0535487471009,276.4661654135339 L 328.0535487471009,275.56390977443607 L 328.49951399087195,275.56390977443607 L 328.49951399087195,274.6616541353384 L 329.7878624047983,274.6616541353384 L 329.7878624047983,273.7593984962406 L 330.52800537383246,273.7593984962406 L 330.52800537383246,272.8571428571429 L 330.74339400435036,272.8571428571429 L 330.74339400435036,271.95488721804514 L 331.1041368166985,271.95488721804514 L 331.1041368166985,271.0526315789474 L 331.15879428068536,271.0526315789474 L 331.15879428068536,270.1503759398496 L 331.88502610711686,270.1503759398496 L 331.88502610711686,269.2481203007519 L 333.4476222367182,269.2481203007519 L 333.4476222367182,268.3458646616541 L 333.45053554088605,268.3458646616541 L 333.45053554088605,267.4436090225564 L 333.62447481860073,267.4436090225564 L 333.62447481860073,266.54135338345867 L 334.4506743667823,266.54135338345867 L 334.4506743667823,265.6390977443609 L 335.40013527567163,265.6390977443609 L 335.40013527567163,264.7368421052631 L 336.07105570630756,264.7368421052631 L 336.07105570630756,263.83458646616543 L 336.96359590354297,263.83458646616543 L 336.96359590354297,262.9323308270677 L 337.9944387161083,262.9323308270677 L 337.9944387161083,262.03007518796994 L 339.37207549421794,262.03007518796994 L 339.37207549421794,261.1278195488722 L 339.9475508380583,261.1278195488722 L 339.9475508380583,260.22556390977445 L 340.10051205889624,260.22556390977445 L 340.10051205889624,259.3233082706767 L 340.5744245388981,259.3233082706767 L 340.5744245388981,258.42105263157896 L 341.1501116872265,258.42105263157896 L 341.1501116872265,257.5187969924812 L 341.23126161061776,257.5187969924812 L 341.23126161061776,256.61654135338347 L 341.41978461415874,256.61654135338347 L 341.41978461415874,255.71428571428572 L 342.89743108445913,255.71428571428572 L 342.89743108445913,254.81203007518798 L 343.54400763193394,254.81203007518798 L 343.54400763193394,253.90977443609023 L 344.1295826041514,253.90977443609023 L 344.1295826041514,253.00751879699249 L 344.29505865884283,253.00751879699249 L 344.29505865884283,252.10526315789474 L 344.597145902494,252.10526315789474 L 344.597145902494,251.203007518797 L 345.39318686134067,251.203007518797 L 345.39318686134067,250.30075187969925 L 348.58618224772704,250.30075187969925 L 348.58618224772704,249.39849624060153 L 348.81044868539567,249.39849624060153 L 348.81044868539567,248.49624060150379 L 348.9846840114769,248.49624060150379 L 348.9846840114769,247.593984962406 L 349.3776175177621,247.593984962406 L 349.3776175177621,246.69172932330827 L 350.2017463984069,246.69172932330827 L 350.2017463984069,245.78947368421052 L 351.63410017846235,245.78947368421052 L 351.63410017846235,244.88721804511277 L 351.7176627009107,244.88721804511277 L 351.7176627009107,243.98496240601506 L 351.82438985781647,243.98496240601506 L 351.82438985781647,243.0827067669173 L 351.8344266665299,243.0827067669173 L 351.8344266665299,242.18045112781957 L 352.83418253445416,242.18045112781957 L 352.83418253445416,241.27819548872182 L 352.86098442873725,241.27819548872182 L 352.86098442873725,240.37593984962407 L 353.1203198842962,240.37593984962407 L 353.1203198842962,239.47368421052633 L 353.17041413731073,239.47368421052633 L 353.17041413731073,238.57142857142858 L 354.04480309342176,238.57142857142858 L 354.04480309342176,237.66917293233084 L 354.10173163369114,237.66917293233084 L 354.10173163369114,236.76691729323312 L 354.2743500862397,236.76691729323312 L 354.2743500862397,235.86466165413535 L 354.4878452119167,235.86466165413535 L 354.4878452119167,234.9624060150376 L 354.63342268950805,234.9624060150376 L 354.63342268950805,234.06015037593986 L 356.97047280478637,234.06015037593986 L 356.97047280478637,233.1578947368421 L 357.18501167644945,233.1578947368421 L 357.18501167644945,232.25563909774436 L 357.25262269902214,232.25563909774436 L 357.25262269902214,231.35338345864665 L 357.62177967813216,231.35338345864665 L 357.62177967813216,230.4511278195489 L 357.90797102289923,230.4511278195489 L 357.90797102289923,229.54887218045116 L 358.8525054044974,229.54887218045116 L 358.8525054044974,228.64661654135335 L 359.25003662832654,228.64661654135335 L 359.25003662832654,227.74436090225564 L 359.3959881345421,227.74436090225564 L 359.3959881345421,226.8421052631579 L 360.21347206591486,226.8421052631579 L 360.21347206591486,225.93984962406017 L 361.5672185236012,225.93984962406017 L 361.5672185236012,225.0375939849624 L 362.01560500366315,225.0375939849624 L 362.01560500366315,224.13533834586465 L 363.1290840866845,224.13533834586465 L 363.1290840866845,223.2330827067669 L 363.247052912656,223.2330827067669 L 363.247052912656,222.33082706766916 L 363.40555581373206,222.33082706766916 L 363.40555581373206,221.42857142857142 L 363.75624401187594,221.42857142857142 L 363.75624401187594,220.5263157894737 L 364.8399631916344,220.5263157894737 L 364.8399631916344,219.62406015037593 L 365.2080646842546,219.62406015037593 L 365.2080646842546,218.7218045112782 L 368.1002569927965,218.7218045112782 L 368.1002569927965,217.81954887218043 L 368.1695323099705,217.81954887218043 L 368.1695323099705,216.9172932330827 L 368.44611321605714,216.9172932330827 L 368.44611321605714,216.01503759398494 L 369.37255253960643,216.01503759398494 L 369.37255253960643,215.11278195488723 L 371.1755441334456,215.11278195488723 L 371.1755441334456,214.21052631578945 L 371.5166094181965,214.21052631578945 L 371.5166094181965,213.30827067669173 L 373.2572680605594,213.30827067669173 L 373.2572680605594,212.40601503759396 L 373.6173218110966,212.40601503759396 L 373.6173218110966,211.50375939849621 L 373.6254864388903,211.50375939849621 L 373.6254864388903,210.60150375939847 L 374.0656776143893,210.60150375939847 L 374.0656776143893,209.69924812030075 L 374.50027880698923,209.69924812030075 L 374.50027880698923,208.79699248120298 L 375.53384150321693,208.79699248120298 L 375.53384150321693,207.89473684210526 L 377.3309698559564,207.89473684210526 L 377.3309698559564,206.99248120300754 L 377.85654306263746,206.99248120300754 L 377.85654306263746,206.09022556390974 L 378.2441734453488,206.09022556390974 L 378.2441734453488,205.18796992481202 L 378.25649673054835,205.18796992481202 L 378.25649673054835,204.28571428571428 L 379.93052832214045,204.28571428571428 L 379.93052832214045,203.38345864661656 L 380.09666020490886,203.38345864661656 L 380.09666020490886,202.4812030075188 L 380.1089212464852,202.4812030075188 L 380.1089212464852,201.57894736842107 L 380.764342809554,201.57894736842107 L 380.764342809554,200.6766917293233 L 381.9283975913867,200.6766917293233 L 381.9283975913867,199.77443609022555 L 382.676965678551,199.77443609022555 L 382.676965678551,198.8721804511278 L 382.692722649134,198.8721804511278 L 382.692722649134,197.9699248120301 L 383.2844858741983,197.9699248120301 L 383.2844858741983,197.0676691729323 L 383.447293448102,197.0676691729323 L 383.447293448102,196.1654135338346 L 383.47835759456643,196.1654135338346 L 383.47835759456643,195.26315789473685 L 383.485433218462,195.26315789473685 L 383.485433218462,194.36090225563908 L 383.5027841123499,194.36090225563908 L 383.5027841123499,193.45864661654133 L 383.5973243593723,193.45864661654133 L 383.5973243593723,192.5563909774436 L 384.05045913114145,192.5563909774436 L 384.05045913114145,191.65413533834584 L 385.52772906629957,191.65413533834584 L 385.52772906629957,190.75187969924812 L 386.43436446129317,190.75187969924812 L 386.43436446129317,189.84962406015038 L 386.8930655665049,189.84962406015038 L 386.8930655665049,188.9473684210526 L 387.75064263234515,188.9473684210526 L 387.75064263234515,188.04511278195486 L 388.0817655322485,188.04511278195486 L 388.0817655322485,187.14285714285714 L 389.32231042970193,187.14285714285714 L 389.32231042970193,186.24060150375936 L 389.7832302296902,186.24060150375936 L 389.7832302296902,185.33834586466165 L 389.8115625978366,185.33834586466165 L 389.8115625978366,184.43609022556393 L 389.9770859335111,184.43609022556393 L 389.9770859335111,183.53383458646616 L 390.19327520571983,183.53383458646616 L 390.19327520571983,182.6315789473684 L 390.9691410284289,182.6315789473684 L 390.9691410284289,181.72932330827066 L 391.8110259632109,181.72932330827066 L 391.8110259632109,180.82706766917295 L 394.27713696920904,180.82706766917295 L 394.27713696920904,179.92481203007517 L 394.5786917339401,179.92481203007517 L 394.5786917339401,179.02255639097746 L 394.6696887376542,179.02255639097746 L 394.6696887376542,178.1203007518797 L 394.9932186006151,178.1203007518797 L 394.9932186006151,177.21804511278194 L 396.34431300528325,177.21804511278194 L 396.34431300528325,176.3157894736842 L 396.6840254566116,176.3157894736842 L 396.6840254566116,175.41353383458647 L 397.587288583678,175.41353383458647 L 397.587288583678,174.5112781954887 L 399.54289478212485,174.5112781954887 L 399.54289478212485,173.60902255639098 L 400.45069593246535,173.60902255639098 L 400.45069593246535,172.70676691729324 L 400.7286809924187,172.70676691729324 L 400.7286809924187,171.8045112781955 L 401.0739055371464,171.8045112781955 L 401.0739055371464,170.90225563909772 L 403.5874397603181,170.90225563909772 L 403.5874397603181,170.0 L 403.95638377358233,170.0 L 403.95638377358233,169.09774436090223 L 404.10478401553803,169.09774436090223 L 404.10478401553803,168.1954887218045 L 407.2700510482784,168.1954887218045 L 407.2700510482784,167.29323308270676 L 407.94803052395827,167.29323308270676 L 407.94803052395827,166.39097744360902 L 409.1874491336851,166.39097744360902 L 409.1874491336851,165.48872180451124 L 410.3790180113092,165.48872180451124 L 410.3790180113092,164.58646616541353 L 411.22506289251425,164.58646616541353 L 411.22506289251425,163.68421052631575 L 412.62779891355274,163.68421052631575 L 412.62779891355274,162.78195488721803 L 414.50348930272855,162.78195488721803 L 414.50348930272855,161.87969924812032 L 414.8579569550262,161.87969924812032 L 414.8579569550262,160.97744360902254 L 416.11206596114147,160.97744360902254 L 416.11206596114147,160.07518796992483 L 416.870920433591,160.07518796992483 L 416.870920433591,159.17293233082705 L 418.15725284035614,159.17293233082705 L 418.15725284035614,158.27067669172934 L 418.17895484774436,158.27067669172934 L 418.17895484774436,157.36842105263156 L 418.5056799401147,157.36842105263156 L 418.5056799401147,156.46616541353384 L 419.0051956900039,156.46616541353384 L 419.0051956900039,155.5639097744361 L 419.05530020719243,155.5639097744361 L 419.05530020719243,154.66165413533835 L 419.06098616447133,154.66165413533835 L 419.06098616447133,153.75939849624058 L 419.655940194026,153.75939849624058 L 419.655940194026,152.8571428571429 L 419.942337478521,152.8571428571429 L 419.942337478521,151.9548872180451 L 420.6703997580666,151.9548872180451 L 420.6703997580666,151.0526315789474 L 420.76101495977525,151.0526315789474 L 420.76101495977525,150.1503759398496 L 421.0229877225033,150.1503759398496 L 421.0229877225033,149.24812030075185 L 421.55377695033707,149.24812030075185 L 421.55377695033707,148.3458646616541 L 421.63781432104236,148.3458646616541 L 421.63781432104236,147.44360902255636 L 423.09826430612225,147.44360902255636 L 423.09826430612225,146.54135338345867 L 423.74921779747405,146.54135338345867 L 423.74921779747405,145.63909774436092 L 425.7806974248486,145.63909774436092 L 425.7806974248486,144.73684210526312 L 428.3971871430297,144.73684210526312 L 428.3971871430297,143.83458646616543 L 428.7866910836466,143.83458646616543 L 428.7866910836466,142.93233082706763 L 429.0949467485955,142.93233082706763 L 429.0949467485955,142.03007518796994 L 429.2907598402767,142.03007518796994 L 429.2907598402767,141.12781954887214 L 429.37499637306564,141.12781954887214 L 429.37499637306564,140.22556390977445 L 429.4097934615291,140.22556390977445 L 429.4097934615291,139.3233082706767 L 431.27676788329967,139.3233082706767 L 431.27676788329967,138.4210526315789 L 432.6986560957925,138.4210526315789 L 432.6986560957925,137.5187969924812 L 433.644611425597,137.5187969924812 L 433.644611425597,136.6165413533834 L 433.8684597260497,136.6165413533834 L 433.8684597260497,135.71428571428572 L 434.1731046362157,135.71428571428572 L 434.1731046362157,134.81203007518798 L 434.32185534980505,134.81203007518798 L 434.32185534980505,133.9097744360903 L 435.21624711281146,133.9097744360903 L 435.21624711281146,133.00751879699249 L 435.45940061127305,133.00751879699249 L 435.45940061127305,132.10526315789474 L 436.4090685777088,132.10526315789474 L 436.4090685777088,131.203007518797 L 437.8652445445702,131.203007518797 L 437.8652445445702,130.30075187969925 L 438.0031344522219,130.30075187969925 L 438.0031344522219,129.3984962406015 L 438.10474208633934,129.3984962406015 L 438.10474208633934,128.49624060150376 L 438.7865772324361,128.49624060150376 L 438.7865772324361,127.59398496240601 L 439.42928424077877,127.59398496240601 L 439.42928424077877,126.69172932330827 L 440.57613781585013,126.69172932330827 L 440.57613781585013,125.78947368421046 L 441.49666786336644,125.78947368421046 L 441.49666786336644,124.88721804511277 L 442.2508053853381,124.88721804511277 L 442.2508053853381,123.98496240601503 L 446.867171858007,123.98496240601503 L 446.867171858007,123.08270676691734 L 448.27429877821055,123.08270676691734 L 448.27429877821055,122.18045112781954 L 449.75609141714534,122.18045112781954 L 449.75609141714534,121.27819548872179 L 451.6311051778528,121.27819548872179 L 451.6311051778528,120.37593984962405 L 452.0949550514545,120.37593984962405 L 452.0949550514545,119.4736842105263 L 452.58181921889627,119.4736842105263 L 452.58181921889627,118.57142857142856 L 453.0988622038964,118.57142857142856 L 453.0988622038964,117.66917293233081 L 453.11494535094414,117.66917293233081 L 453.11494535094414,116.76691729323312 L 453.93343596871716,116.76691729323312 L 453.93343596871716,115.86466165413532 L 454.0999070366496,115.86466165413532 L 454.0999070366496,114.96240601503757 L 458.50880405147177,114.96240601503757 L 458.50880405147177,114.06015037593983 L 458.9657546580162,114.06015037593983 L 458.9657546580162,113.15789473684208 L 459.2682913514864,113.15789473684208 L 459.2682913514864,112.25563909774439 L 459.9133222447734,112.25563909774439 L 459.9133222447734,111.35338345864665 L 459.9860611937651,111.35338345864665 L 459.9860611937651,110.4511278195489 L 461.669274280999,110.4511278195489 L 461.669274280999,109.54887218045116 L 461.9070147759989,109.54887218045116 L 461.9070147759989,108.64661654135335 L 462.8447657141597,108.64661654135335 L 462.8447657141597,107.74436090225566 L 466.59837776126454,107.74436090225566 L 466.59837776126454,106.84210526315786 L 467.09057791605255,106.84210526315786 L 467.09057791605255,105.93984962406017 L 467.1765953582269,105.93984962406017 L 467.1765953582269,105.03759398496237 L 467.3734595604123,105.03759398496237 L 467.3734595604123,104.13533834586468 L 469.1057148882882,104.13533834586468 L 469.1057148882882,103.23308270676688 L 469.2968583651372,103.23308270676688 L 469.2968583651372,102.33082706766913 L 471.01093954689514,102.33082706766913 L 471.01093954689514,101.42857142857144 L 471.61477427100476,101.42857142857144 L 471.61477427100476,100.5263157894737 L 473.6568609009924,100.5263157894737 L 473.6568609009924,99.62406015037595 L 474.4037747329292,99.62406015037595 L 474.4037747329292,98.72180451127821 L 476.8811080600115,98.72180451127821 L 476.8811080600115,97.8195488721804 L 476.937201183232,97.8195488721804 L 476.937201183232,96.91729323308272 L 477.98313131697887,96.91729323308272 L 477.98313131697887,96.01503759398491 L 480.0497008286342,96.01503759398491 L 480.0497008286342,95.11278195488723 L 481.13772525118736,95.11278195488723 L 481.13772525118736,94.21052631578948 L 481.62526969394315,94.21052631578948 L 481.62526969394315,93.30827067669173 L 481.71830616535726,93.30827067669173 L 481.71830616535726,92.40601503759399 L 481.97080008501223,92.40601503759399 L 481.97080008501223,91.50375939849619 L 483.4836311455355,91.50375939849619 L 483.4836311455355,90.6015037593985 L 484.07242619690027,90.6015037593985 L 484.07242619690027,89.69924812030075 L 487.7296189949968,89.69924812030075 L 487.7296189949968,88.79699248120306 L 488.47808829635045,88.79699248120306 L 488.47808829635045,87.89473684210526 L 488.861990035489,87.89473684210526 L 488.861990035489,86.99248120300757 L 490.04749560985283,86.99248120300757 L 490.04749560985283,86.09022556390977 L 490.7359990504546,86.09022556390977 L 490.7359990504546,85.18796992481202 L 492.2388574336323,85.18796992481202 L 492.2388574336323,84.28571428571428 L 494.48877420658374,84.28571428571428 L 494.48877420658374,83.38345864661653 L 497.06664933555714,83.38345864661653 L 497.06664933555714,82.48120300751879 L 497.79451030920524,82.48120300751879 L 497.79451030920524,81.57894736842104 L 498.97881658457635,81.57894736842104 L 498.97881658457635,80.6766917293233 L 501.1357722239499,80.6766917293233 L 501.1357722239499,79.77443609022555 L 505.2172497651867,79.77443609022555 L 505.2172497651867,78.8721804511278 L 507.09514040694705,78.8721804511278 L 507.09514040694705,77.96992481203011 L 508.176287228187,77.96992481203011 L 508.176287228187,77.06766917293231 L 510.2486569972223,77.06766917293231 L 510.2486569972223,76.16541353383462 L 511.1596356479917,76.16541353383462 L 511.1596356479917,75.26315789473682 L 511.6513223209575,75.26315789473682 L 511.6513223209575,74.36090225563913 L 518.7319499975405,74.36090225563913 L 518.7319499975405,73.45864661654133 L 519.3681358176823,73.45864661654133 L 519.3681358176823,72.55639097744358 L 523.8371600843959,72.55639097744358 L 523.8371600843959,71.6541353383459 L 525.0324787320483,71.6541353383459 L 525.0324787320483,70.7518796992481 L 525.061843404824,70.7518796992481 L 525.061843404824,69.8496240601504 L 530.8347025792368,69.8496240601504 L 530.8347025792368,68.9473684210526 L 531.6388011287286,68.9473684210526 L 531.6388011287286,68.04511278195486 L 532.9453488618192,68.04511278195486 L 532.9453488618192,67.14285714285717 L 535.2545944087685,67.14285714285717 L 535.2545944087685,66.24060150375942 L 540.7405798006765,66.24060150375942 L 540.7405798006765,65.33834586466168 L 551.3516572751813,65.33834586466168 L 551.3516572751813,64.43609022556393 L 556.8188350907094,64.43609022556393 L 556.8188350907094,63.533834586466185 L 566.2254466672797,63.533834586466185 L 566.2254466672797,62.63157894736844 L 567.9475142414185,62.63157894736844 L 567.9475142414185,61.72932330827064 L 568.985793012056,61.72932330827064 L 568.985793012056,60.82706766917295 L 573.4021429679764,60.82706766917295 L 573.4021429679764,59.924812030075145 L 578.4640949655586,59.924812030075145 L 578.4640949655586,59.022556390977456 L 586.7061374677082,59.022556390977456 L 586.7061374677082,58.120300751879654 L 595.0886585567242,58.120300751879654 L 595.0886585567242,57.218045112781965 L 596.13319537961,57.218045112781965 L 596.13319537961,56.31578947368422 L 599.7900728808512,56.31578947368422 L 599.7900728808512,55.413533834586474 L 600.9599232509032,55.413533834586474 L 600.9599232509032,54.51127819548873 L 604.6600025729185,54.51127819548873 L 604.6600025729185,53.60902255639098 L 609.4959832325756,53.60902255639098 L 609.4959832325756,52.70676691729324 L 610.5256665232722,52.70676691729324 L 610.5256665232722,51.80451127819549 L 661.260928713937,51.80451127819549 L 661.260928713937,50.902255639097746 L 662.2705104094224,50.902255639097746 L 662.2705104094224,50.0 L 710,50.0" fill="none" stroke="#3b82f6" stroke-width="2.0" class="series-31024"/>
<path d="M 50,410.0 L 222.1926618706492,410.0 L 289.92586356596473,410.0 L 289.92586356596473,409.09774436090225 L 292.14397010345965,409.09774436090225 L 292.14397010345965,408.1954887218045 L 293.96326892223067,408.1954887218045 L 293.96326892223067,407.29323308270676 L 300.14376921408757,407.29323308270676 L 300.14376921408757,406.390977443609 L 322.5959793714544,406.390977443609 L 322.5959793714544,405.4887218045113 L 330.8380277293908,405.4887218045113 L 330.8380277293908,404.5864661654135 L 331.57542534995525,404.5864661654135 L 331.57542534995525,403.6842105263158 L 334.8700065784653,403.6842105263158 L 334.8700065784653,402.78195488721803 L 338.6319713163395,402.78195488721803 L 338.6319713163395,401.8796992481203 L 338.77094844740486,401.8796992481203 L 338.77094844740486,400.97744360902254 L 339.25803943206535,400.97744360902254 L 339.25803943206535,400.0751879699248 L 340.7331758058575,400.0751879699248 L 340.7331758058575,399.17293233082705 L 343.9594967626171,399.17293233082705 L 343.9594967626171,398.2706766917293 L 344.0357989161089,398.2706766917293 L 344.0357989161089,397.36842105263156 L 344.25977554676416,397.36842105263156 L 344.25977554676416,396.4661654135338 L 344.70833175597886,396.4661654135338 L 344.70833175597886,395.56390977443607 L 348.9462745625251,395.56390977443607 L 348.9462745625251,394.6616541353383 L 351.8656117274573,394.6616541353383 L 351.8656117274573,393.7593984962406 L 357.4433613663444,393.7593984962406 L 357.4433613663444,392.85714285714283 L 359.76034165965996,392.85714285714283 L 359.76034165965996,391.9548872180451 L 359.8383634825949,391.9548872180451 L 359.8383634825949,391.0526315789474 L 364.3045675668352,391.0526315789474 L 364.3045675668352,390.1503759398496 L 365.63905180243717,390.1503759398496 L 365.63905180243717,389.2481203007519 L 366.1797719612589,389.2481203007519 L 366.1797719612589,388.34586466165416 L 367.6645829999438,388.34586466165416 L 367.6645829999438,387.4436090225564 L 368.6658449357786,387.4436090225564 L 368.6658449357786,386.54135338345867 L 369.82622992284865,386.54135338345867 L 369.82622992284865,385.6390977443609 L 371.4207668355149,385.6390977443609 L 371.4207668355149,384.7368421052632 L 371.5265949688972,384.7368421052632 L 371.5265949688972,383.83458646616543 L 371.81532675543093,383.83458646616543 L 371.81532675543093,382.9323308270677 L 371.8404910005785,382.9323308270677 L 371.8404910005785,382.03007518796994 L 371.9165701242979,382.03007518796994 L 371.9165701242979,381.1278195488722 L 373.1737243929159,381.1278195488722 L 373.1737243929159,380.22556390977445 L 373.9064514110049,380.22556390977445 L 373.9064514110049,379.3233082706767 L 374.2223003001493,379.3233082706767 L 374.2223003001493,378.42105263157896 L 375.94882223026684,378.42105263157896 L 375.94882223026684,377.5187969924812 L 376.0674305582429,377.5187969924812 L 376.0674305582429,376.61654135338347 L 376.3404901583467,376.61654135338347 L 376.3404901583467,375.7142857142857 L 377.80607656854744,375.7142857142857 L 377.80607656854744,374.812030075188 L 378.5655878000111,374.812030075188 L 378.5655878000111,373.90977443609023 L 378.7122101210156,373.90977443609023 L 378.7122101210156,373.0075187969925 L 379.3580749370882,373.0075187969925 L 379.3580749370882,372.10526315789474 L 380.9233721535845,372.10526315789474 L 380.9233721535845,371.203007518797 L 384.0343860927032,371.203007518797 L 384.0343860927032,370.30075187969925 L 385.3378527050376,370.30075187969925 L 385.3378527050376,369.3984962406015 L 388.67042175573437,369.3984962406015 L 388.67042175573437,368.49624060150376 L 388.82983547626606,368.49624060150376 L 388.82983547626606,367.593984962406 L 389.3019750969092,367.593984962406 L 389.3019750969092,366.69172932330827 L 391.78241990981513,366.69172932330827 L 391.78241990981513,365.7894736842105 L 393.6898098643962,365.7894736842105 L 393.6898098643962,364.8872180451128 L 394.6929208698582,364.8872180451128 L 394.6929208698582,363.98496240601503 L 395.8915343687197,363.98496240601503 L 395.8915343687197,363.0827067669173 L 396.6440944474279,363.0827067669173 L 396.6440944474279,362.18045112781954 L 397.3154211506002,362.18045112781954 L 397.3154211506002,361.2781954887218 L 399.1612125836462,361.2781954887218 L 399.1612125836462,360.37593984962405 L 399.6701452100612,360.37593984962405 L 399.6701452100612,359.47368421052636 L 400.0140201524863,359.47368421052636 L 400.0140201524863,358.57142857142856 L 400.586034846835,358.57142857142856 L 400.586034846835,357.6691729323308 L 400.92555948223196,357.6691729323308 L 400.92555948223196,356.76691729323306 L 403.38295427823107,356.76691729323306 L 403.38295427823107,355.8646616541353 L 404.09846498163756,355.8646616541353 L 404.09846498163756,354.9624060150376 L 404.5674941201932,354.9624060150376 L 404.5674941201932,354.0601503759399 L 404.99366657262163,354.0601503759399 L 404.99366657262163,353.1578947368421 L 406.02376703862063,353.1578947368421 L 406.02376703862063,352.2556390977444 L 407.1230603823536,352.2556390977444 L 407.1230603823536,351.3533834586466 L 407.9611045478933,351.3533834586466 L 407.9611045478933,350.4511278195489 L 409.0204297342871,350.4511278195489 L 409.0204297342871,349.5488721804511 L 410.2640939690406,349.5488721804511 L 410.2640939690406,348.6466165413534 L 411.25975408197456,348.6466165413534 L 411.25975408197456,347.74436090225566 L 411.2719528976326,347.74436090225566 L 411.2719528976326,346.8421052631579 L 411.4110480512945,346.8421052631579 L 411.4110480512945,345.9398496240602 L 411.4542323979661,345.9398496240602 L 411.4542323979661,345.0375939849624 L 411.50397474121525,345.0375939849624 L 411.50397474121525,344.1353383458647 L 413.6506724467273,344.1353383458647 L 413.6506724467273,343.23308270676694 L 414.08433966955073,343.23308270676694 L 414.08433966955073,342.3308270676692 L 414.39061827435455,342.3308270676692 L 414.39061827435455,341.42857142857144 L 415.01708406248787,341.42857142857144 L 415.01708406248787,340.5263157894737 L 415.18152336789626,340.5263157894737 L 415.18152336789626,339.62406015037595 L 416.4563746317281,339.62406015037595 L 416.4563746317281,338.7218045112782 L 418.0276241991512,338.7218045112782 L 418.0276241991512,337.81954887218046 L 418.33500219505373,337.81954887218046 L 418.33500219505373,336.9172932330827 L 418.6643429106226,336.9172932330827 L 418.6643429106226,336.01503759398497 L 419.28908267273397,336.01503759398497 L 419.28908267273397,335.1127819548872 L 419.64206030997804,335.1127819548872 L 419.64206030997804,334.2105263157895 L 422.8232563253503,334.2105263157895 L 422.8232563253503,333.30827067669173 L 423.180929323665,333.30827067669173 L 423.180929323665,332.406015037594 L 423.24858342771506,332.406015037594 L 423.24858342771506,331.50375939849624 L 424.806713264257,331.50375939849624 L 424.806713264257,330.6015037593985 L 425.50577784194115,330.6015037593985 L 425.50577784194115,329.69924812030075 L 428.8000970730983,329.69924812030075 L 428.8000970730983,328.796992481203 L 429.9192358271384,328.796992481203 L 429.9192358271384,327.89473684210526 L 430.9167404092293,327.89473684210526 L 430.9167404092293,326.9924812030075 L 432.80352375463235,326.9924812030075 L 432.80352375463235,326.0902255639098 L 433.68017451010905,326.0902255639098 L 433.68017451010905,325.187969924812 L 433.94856891516014,325.187969924812 L 433.94856891516014,324.2857142857143 L 434.6384128685875,324.2857142857143 L 434.6384128685875,323.38345864661653 L 435.37101592683723,323.38345864661653 L 435.37101592683723,322.4812030075188 L 436.2616493975444,322.4812030075188 L 436.2616493975444,321.57894736842104 L 436.8969866169956,321.57894736842104 L 436.8969866169956,320.67669172932335 L 437.15980239242083,320.67669172932335 L 437.15980239242083,319.77443609022555 L 437.5403511361369,319.77443609022555 L 437.5403511361369,318.8721804511278 L 438.00630932976657,318.8721804511278 L 438.00630932976657,317.96992481203006 L 438.3828753010917,317.96992481203006 L 438.3828753010917,317.0676691729323 L 438.83080219967616,317.0676691729323 L 438.83080219967616,316.16541353383457 L 439.1978234494282,316.16541353383457 L 439.1978234494282,315.2631578947369 L 439.6317319792537,315.2631578947369 L 439.6317319792537,314.3609022556391 L 439.6555114760307,314.3609022556391 L 439.6555114760307,313.45864661654133 L 441.0035980714101,313.45864661654133 L 441.0035980714101,312.5563909774436 L 441.08710631976214,312.5563909774436 L 441.08710631976214,311.6541353383459 L 441.42446969797646,311.6541353383459 L 441.42446969797646,310.7518796992481 L 441.8118853063483,310.7518796992481 L 441.8118853063483,309.8496240601504 L 442.1047847003742,309.8496240601504 L 442.1047847003742,308.94736842105266 L 442.39791677423017,308.94736842105266 L 442.39791677423017,308.0451127819549 L 442.5362635317405,308.0451127819549 L 442.5362635317405,307.14285714285717 L 442.67114987300585,307.14285714285717 L 442.67114987300585,306.2406015037594 L 443.98339885441925,306.2406015037594 L 443.98339885441925,305.3383458646617 L 445.7611236948662,305.3383458646617 L 445.7611236948662,304.43609022556393 L 445.8573360897154,304.43609022556393 L 445.8573360897154,303.5338345864662 L 446.033390003858,303.5338345864662 L 446.033390003858,302.63157894736844 L 446.4862732583007,302.63157894736844 L 446.4862732583007,301.7293233082707 L 447.22062711166416,301.7293233082707 L 447.22062711166416,300.82706766917295 L 447.34690748187717,300.82706766917295 L 447.34690748187717,299.9248120300752 L 447.5413423666771,299.9248120300752 L 447.5413423666771,299.02255639097746 L 447.90841873998596,299.02255639097746 L 447.90841873998596,298.1203007518797 L 450.9625346876417,298.1203007518797 L 450.9625346876417,297.21804511278197 L 451.23692423900246,297.21804511278197 L 451.23692423900246,296.3157894736842 L 452.76460919220114,296.3157894736842 L 452.76460919220114,295.4135338345865 L 452.78750923144526,295.4135338345865 L 452.78750923144526,294.5112781954887 L 453.1493092825308,294.5112781954887 L 453.1493092825308,293.609022556391 L 453.2079003340354,293.609022556391 L 453.2079003340354,292.70676691729324 L 453.53600358514245,292.70676691729324 L 453.53600358514245,291.8045112781955 L 453.98465350957446,291.8045112781955 L 453.98465350957446,290.90225563909775 L 455.00604242692714,290.90225563909775 L 455.00604242692714,290.0 L 455.8139365361166,290.0 L 455.8139365361166,289.09774436090225 L 455.9386507035659,289.09774436090225 L 455.9386507035659,288.1954887218045 L 456.14911963560314,288.1954887218045 L 456.14911963560314,287.29323308270676 L 457.23650507004317,287.29323308270676 L 457.23650507004317,286.390977443609 L 457.6429672628002,286.390977443609 L 457.6429672628002,285.48872180451133 L 457.84115256506414,285.48872180451133 L 457.84115256506414,284.5864661654135 L 458.6079111689157,284.5864661654135 L 458.6079111689157,283.68421052631584 L 459.57047029177244,283.68421052631584 L 459.57047029177244,282.78195488721803 L 459.8847855384989,282.78195488721803 L 459.8847855384989,281.87969924812035 L 460.297448396666,281.87969924812035 L 460.297448396666,280.97744360902254 L 460.380892003198,280.97744360902254 L 460.380892003198,280.07518796992485 L 460.42374508816874,280.07518796992485 L 460.42374508816874,279.17293233082705 L 460.4872475863406,279.17293233082705 L 460.4872475863406,278.27067669172936 L 460.96017505532575,278.27067669172936 L 460.96017505532575,277.36842105263156 L 461.3235491606455,277.36842105263156 L 461.3235491606455,276.4661654135339 L 461.54692821304303,276.4661654135339 L 461.54692821304303,275.56390977443607 L 462.11104107296404,275.56390977443607 L 462.11104107296404,274.6616541353384 L 462.7927781584241,274.6616541353384 L 462.7927781584241,273.7593984962406 L 463.08315346067417,273.7593984962406 L 463.08315346067417,272.8571428571429 L 464.0617320428947,272.8571428571429 L 464.0617320428947,271.95488721804514 L 464.5630877064204,271.95488721804514 L 464.5630877064204,271.0526315789474 L 465.0504447631218,271.0526315789474 L 465.0504447631218,270.1503759398496 L 466.3741729543357,270.1503759398496 L 466.3741729543357,269.2481203007519 L 466.4961851117016,269.2481203007519 L 466.4961851117016,268.3458646616541 L 468.17314675107957,268.3458646616541 L 468.17314675107957,267.4436090225564 L 468.4340075576651,267.4436090225564 L 468.4340075576651,266.54135338345867 L 468.4393924555056,266.54135338345867 L 468.4393924555056,265.6390977443609 L 468.4464931110414,265.6390977443609 L 468.4464931110414,264.7368421052631 L 470.4228734257804,264.7368421052631 L 470.4228734257804,263.83458646616543 L 470.91117012413747,263.83458646616543 L 470.91117012413747,262.9323308270677 L 471.0952702244101,262.9323308270677 L 471.0952702244101,262.03007518796994 L 472.18474917616334,262.03007518796994 L 472.18474917616334,261.1278195488722 L 473.274794442022,261.1278195488722 L 473.274794442022,260.22556390977445 L 473.40272069008836,260.22556390977445 L 473.40272069008836,259.3233082706767 L 473.61182617996786,259.3233082706767 L 473.61182617996786,258.42105263157896 L 473.84252357863033,258.42105263157896 L 473.84252357863033,257.5187969924812 L 474.15460779514177,257.5187969924812 L 474.15460779514177,256.61654135338347 L 474.2874717729442,256.61654135338347 L 474.2874717729442,255.71428571428572 L 475.1417606180153,255.71428571428572 L 475.1417606180153,254.81203007518798 L 476.10209562570844,254.81203007518798 L 476.10209562570844,253.90977443609023 L 476.4793373723457,253.90977443609023 L 476.4793373723457,253.00751879699249 L 477.0733079839464,253.00751879699249 L 477.0733079839464,252.10526315789474 L 477.16855801099643,252.10526315789474 L 477.16855801099643,251.203007518797 L 478.5251071733503,251.203007518797 L 478.5251071733503,250.30075187969925 L 478.7364261666171,250.30075187969925 L 478.7364261666171,249.39849624060153 L 478.9733316681228,249.39849624060153 L 478.9733316681228,248.49624060150379 L 479.09145241933095,248.49624060150379 L 479.09145241933095,247.593984962406 L 479.1041924896507,247.593984962406 L 479.1041924896507,246.69172932330827 L 479.204476445239,246.69172932330827 L 479.204476445239,245.78947368421052 L 479.58063908773937,245.78947368421052 L 479.58063908773937,244.88721804511277 L 479.8534903574705,244.88721804511277 L 479.8534903574705,243.98496240601506 L 480.1490400956012,243.98496240601506 L 480.1490400956012,243.0827067669173 L 480.15444629747327,243.0827067669173 L 480.15444629747327,242.18045112781957 L 480.91155100622035,242.18045112781957 L 480.91155100622035,241.27819548872182 L 481.2041776091396,241.27819548872182 L 481.2041776091396,240.37593984962407 L 481.91648925120785,240.37593984962407 L 481.91648925120785,239.47368421052633 L 482.9915842968515,239.47368421052633 L 482.9915842968515,238.57142857142858 L 483.60503460907097,238.57142857142858 L 483.60503460907097,237.66917293233084 L 484.26171730296954,237.66917293233084 L 484.26171730296954,236.76691729323312 L 484.56711741759085,236.76691729323312 L 484.56711741759085,235.86466165413535 L 485.21550005318716,235.86466165413535 L 485.21550005318716,234.9624060150376 L 487.2892736916569,234.9624060150376 L 487.2892736916569,234.06015037593986 L 487.64341681328017,234.06015037593986 L 487.64341681328017,233.1578947368421 L 487.96302665296486,233.1578947368421 L 487.96302665296486,232.25563909774436 L 488.8241233350843,232.25563909774436 L 488.8241233350843,231.35338345864665 L 489.0200222480105,231.35338345864665 L 489.0200222480105,230.4511278195489 L 489.21883242762067,230.4511278195489 L 489.21883242762067,229.54887218045116 L 489.53380386550583,229.54887218045116 L 489.53380386550583,228.64661654135335 L 489.56513068251553,228.64661654135335 L 489.56513068251553,227.74436090225564 L 490.40622203967064,227.74436090225564 L 490.40622203967064,226.8421052631579 L 490.9813684129308,226.8421052631579 L 490.9813684129308,225.93984962406017 L 491.09944017041306,225.93984962406017 L 491.09944017041306,225.0375939849624 L 491.68245499348495,225.0375939849624 L 491.68245499348495,224.13533834586465 L 491.7601437482589,224.13533834586465 L 491.7601437482589,223.2330827067669 L 492.02140166146785,223.2330827067669 L 492.02140166146785,222.33082706766916 L 493.2857961946978,222.33082706766916 L 493.2857961946978,221.42857142857142 L 494.13580945946126,221.42857142857142 L 494.13580945946126,220.5263157894737 L 494.5368793055188,220.5263157894737 L 494.5368793055188,219.62406015037593 L 495.4058984328654,219.62406015037593 L 495.4058984328654,218.7218045112782 L 495.55651743205135,218.7218045112782 L 495.55651743205135,217.81954887218043 L 496.71532758724396,217.81954887218043 L 496.71532758724396,216.9172932330827 L 496.9846516295599,216.9172932330827 L 496.9846516295599,216.01503759398494 L 497.6500106656003,216.01503759398494 L 497.6500106656003,215.11278195488723 L 498.2178615441833,215.11278195488723 L 498.2178615441833,214.21052631578945 L 498.4222674724679,214.21052631578945 L 498.4222674724679,213.30827067669173 L 499.9630127878852,213.30827067669173 L 499.9630127878852,212.40601503759396 L 500.392217752246,212.40601503759396 L 500.392217752246,211.50375939849621 L 500.7570240079523,211.50375939849621 L 500.7570240079523,210.60150375939847 L 501.1000178998939,210.60150375939847 L 501.1000178998939,209.69924812030075 L 501.4736180416175,209.69924812030075 L 501.4736180416175,208.79699248120298 L 501.6238069139225,208.79699248120298 L 501.6238069139225,207.89473684210526 L 502.13420024143704,207.89473684210526 L 502.13420024143704,206.99248120300754 L 503.27144907748703,206.99248120300754 L 503.27144907748703,206.09022556390974 L 503.31415393194413,206.09022556390974 L 503.31415393194413,205.18796992481202 L 503.602991967225,205.18796992481202 L 503.602991967225,204.28571428571428 L 503.65060625937247,204.28571428571428 L 503.65060625937247,203.38345864661656 L 503.7908810891334,203.38345864661656 L 503.7908810891334,202.4812030075188 L 503.8332962764249,202.4812030075188 L 503.8332962764249,201.57894736842107 L 503.9009541732691,201.57894736842107 L 503.9009541732691,200.6766917293233 L 504.306609298106,200.6766917293233 L 504.306609298106,199.77443609022555 L 504.31439060983917,199.77443609022555 L 504.31439060983917,198.8721804511278 L 504.8337099937425,198.8721804511278 L 504.8337099937425,197.9699248120301 L 506.00541416746967,197.9699248120301 L 506.00541416746967,197.0676691729323 L 506.4957323609208,197.0676691729323 L 506.4957323609208,196.1654135338346 L 507.8769027497524,196.1654135338346 L 507.8769027497524,195.26315789473685 L 508.0859441770822,195.26315789473685 L 508.0859441770822,194.36090225563908 L 508.1201060219455,194.36090225563908 L 508.1201060219455,193.45864661654133 L 508.56996553137117,193.45864661654133 L 508.56996553137117,192.5563909774436 L 509.4964347867747,192.5563909774436 L 509.4964347867747,191.65413533834584 L 510.40826793372133,191.65413533834584 L 510.40826793372133,190.75187969924812 L 511.09778160132316,190.75187969924812 L 511.09778160132316,189.84962406015038 L 511.13661191318425,189.84962406015038 L 511.13661191318425,188.9473684210526 L 511.4327977669074,188.9473684210526 L 511.4327977669074,188.04511278195486 L 511.56264381560635,188.04511278195486 L 511.56264381560635,187.14285714285714 L 511.91747829833076,187.14285714285714 L 511.91747829833076,186.24060150375936 L 512.22805317684,186.24060150375936 L 512.22805317684,185.33834586466165 L 512.4473539959766,185.33834586466165 L 512.4473539959766,184.43609022556393 L 512.6292720445945,184.43609022556393 L 512.6292720445945,183.53383458646616 L 512.635739884895,183.53383458646616 L 512.635739884895,182.6315789473684 L 512.8010861034853,182.6315789473684 L 512.8010861034853,181.72932330827066 L 512.9022703038054,181.72932330827066 L 512.9022703038054,180.82706766917295 L 513.3270334958921,180.82706766917295 L 513.3270334958921,179.92481203007517 L 513.8029576029178,179.92481203007517 L 513.8029576029178,179.02255639097746 L 514.1156955423623,179.02255639097746 L 514.1156955423623,178.1203007518797 L 514.1299420660885,178.1203007518797 L 514.1299420660885,177.21804511278194 L 515.0966089187989,177.21804511278194 L 515.0966089187989,176.3157894736842 L 515.2892654298948,176.3157894736842 L 515.2892654298948,175.41353383458647 L 515.9089737557429,175.41353383458647 L 515.9089737557429,174.5112781954887 L 515.9302980279265,174.5112781954887 L 515.9302980279265,173.60902255639098 L 515.937525867645,173.60902255639098 L 515.937525867645,172.70676691729324 L 516.1769971436349,172.70676691729324 L 516.1769971436349,171.8045112781955 L 517.2606913323268,171.8045112781955 L 517.2606913323268,170.90225563909772 L 517.3206395972426,170.90225563909772 L 517.3206395972426,170.0 L 517.3223871358616,170.0 L 517.3223871358616,169.09774436090223 L 517.497443025361,169.09774436090223 L 517.497443025361,168.1954887218045 L 518.1518118793903,168.1954887218045 L 518.1518118793903,167.29323308270676 L 518.4395331956298,167.29323308270676 L 518.4395331956298,166.39097744360902 L 520.5668391577103,166.39097744360902 L 520.5668391577103,165.48872180451124 L 520.8843050807225,165.48872180451124 L 520.8843050807225,164.58646616541353 L 521.7861096441007,164.58646616541353 L 521.7861096441007,163.68421052631575 L 521.9303222992787,163.68421052631575 L 521.9303222992787,162.78195488721803 L 522.1298631948806,162.78195488721803 L 522.1298631948806,161.87969924812032 L 522.9323668003797,161.87969924812032 L 522.9323668003797,160.97744360902254 L 523.0224228660959,160.97744360902254 L 523.0224228660959,160.07518796992483 L 523.9258240154504,160.07518796992483 L 523.9258240154504,159.17293233082705 L 523.9400742563175,159.17293233082705 L 523.9400742563175,158.27067669172934 L 524.3553363199137,158.27067669172934 L 524.3553363199137,157.36842105263156 L 524.6005901448829,157.36842105263156 L 524.6005901448829,156.46616541353384 L 524.6615001111511,156.46616541353384 L 524.6615001111511,155.5639097744361 L 525.411469883777,155.5639097744361 L 525.411469883777,154.66165413533835 L 525.4847210440612,154.66165413533835 L 525.4847210440612,153.75939849624058 L 526.5308226842068,153.75939849624058 L 526.5308226842068,152.8571428571429 L 526.6119522365907,152.8571428571429 L 526.6119522365907,151.9548872180451 L 526.9699914548573,151.9548872180451 L 526.9699914548573,151.0526315789474 L 528.2856475847682,151.0526315789474 L 528.2856475847682,150.1503759398496 L 529.234436003578,150.1503759398496 L 529.234436003578,149.24812030075185 L 530.7762588363033,149.24812030075185 L 530.7762588363033,148.3458646616541 L 531.0345212713452,148.3458646616541 L 531.0345212713452,147.44360902255636 L 533.2933326695522,147.44360902255636 L 533.2933326695522,146.54135338345867 L 533.4889248968254,146.54135338345867 L 533.4889248968254,145.63909774436092 L 534.9098477954951,145.63909774436092 L 534.9098477954951,144.73684210526312 L 535.611629250184,144.73684210526312 L 535.611629250184,143.83458646616543 L 535.7500768141513,143.83458646616543 L 535.7500768141513,142.93233082706763 L 535.8116612450244,142.93233082706763 L 535.8116612450244,142.03007518796994 L 536.8279693038961,142.03007518796994 L 536.8279693038961,141.12781954887214 L 538.9929729891771,141.12781954887214 L 538.9929729891771,140.22556390977445 L 540.4699810184588,140.22556390977445 L 540.4699810184588,139.3233082706767 L 540.5657651057197,139.3233082706767 L 540.5657651057197,138.4210526315789 L 540.7786747081118,138.4210526315789 L 540.7786747081118,137.5187969924812 L 540.8260719009894,137.5187969924812 L 540.8260719009894,136.6165413533834 L 541.4815999538939,136.6165413533834 L 541.4815999538939,135.71428571428572 L 541.5448318862627,135.71428571428572 L 541.5448318862627,134.81203007518798 L 541.6360487547475,134.81203007518798 L 541.6360487547475,133.9097744360903 L 541.6985905555462,133.9097744360903 L 541.6985905555462,133.00751879699249 L 542.0886365856959,133.00751879699249 L 542.0886365856959,132.10526315789474 L 542.1268349145,132.10526315789474 L 542.1268349145,131.203007518797 L 543.3467050694161,131.203007518797 L 543.3467050694161,130.30075187969925 L 543.4859548777431,130.30075187969925 L 543.4859548777431,129.3984962406015 L 543.8273248969551,129.3984962406015 L 543.8273248969551,128.49624060150376 L 544.2299269981263,128.49624060150376 L 544.2299269981263,127.59398496240601 L 544.654581444822,127.59398496240601 L 544.654581444822,126.69172932330827 L 545.2405809627082,126.69172932330827 L 545.2405809627082,125.78947368421046 L 545.4729674754939,125.78947368421046 L 545.4729674754939,124.88721804511277 L 545.8824533664861,124.88721804511277 L 545.8824533664861,123.98496240601503 L 546.3554225522009,123.98496240601503 L 546.3554225522009,123.08270676691734 L 547.6062371846065,123.08270676691734 L 547.6062371846065,122.18045112781954 L 547.9239704585798,122.18045112781954 L 547.9239704585798,121.27819548872179 L 548.7306740235142,121.27819548872179 L 548.7306740235142,120.37593984962405 L 548.7399070169599,120.37593984962405 L 548.7399070169599,119.4736842105263 L 549.4299040978301,119.4736842105263 L 549.4299040978301,118.57142857142856 L 549.6725718194976,118.57142857142856 L 549.6725718194976,117.66917293233081 L 550.4903301532677,117.66917293233081 L 550.4903301532677,116.76691729323312 L 551.9203061207143,116.76691729323312 L 551.9203061207143,115.86466165413532 L 554.1611844783286,115.86466165413532 L 554.1611844783286,114.96240601503757 L 555.7687634469668,114.96240601503757 L 555.7687634469668,114.06015037593983 L 556.5205134539178,114.06015037593983 L 556.5205134539178,113.15789473684208 L 557.0934285416936,113.15789473684208 L 557.0934285416936,112.25563909774439 L 558.9999445921084,112.25563909774439 L 558.9999445921084,111.35338345864665 L 559.4596816941573,111.35338345864665 L 559.4596816941573,110.4511278195489 L 562.0745979400067,110.4511278195489 L 562.0745979400067,109.54887218045116 L 562.874835524639,109.54887218045116 L 562.874835524639,108.64661654135335 L 563.3821237955003,108.64661654135335 L 563.3821237955003,107.74436090225566 L 564.5974507983726,107.74436090225566 L 564.5974507983726,106.84210526315786 L 565.0030873104002,106.84210526315786 L 565.0030873104002,105.93984962406017 L 565.7217207876773,105.93984962406017 L 565.7217207876773,105.03759398496237 L 566.7802439346684,105.03759398496237 L 566.7802439346684,104.13533834586468 L 567.2258030981442,104.13533834586468 L 567.2258030981442,103.23308270676688 L 567.8986883120292,103.23308270676688 L 567.8986883120292,102.33082706766913 L 567.9584057763564,102.33082706766913 L 567.9584057763564,101.42857142857144 L 570.6468718733425,101.42857142857144 L 570.6468718733425,100.5263157894737 L 571.4657211485124,100.5263157894737 L 571.4657211485124,99.62406015037595 L 572.2420396341623,99.62406015037595 L 572.2420396341623,98.72180451127821 L 572.721075875096,98.72180451127821 L 572.721075875096,97.8195488721804 L 574.5536028740357,97.8195488721804 L 574.5536028740357,96.91729323308272 L 575.5420050008505,96.91729323308272 L 575.5420050008505,96.01503759398491 L 576.5866790804056,96.01503759398491 L 576.5866790804056,95.11278195488723 L 577.0129199474759,95.11278195488723 L 577.0129199474759,94.21052631578948 L 577.9568692832717,94.21052631578948 L 577.9568692832717,93.30827067669173 L 578.6125860275558,93.30827067669173 L 578.6125860275558,92.40601503759399 L 578.6732192940044,92.40601503759399 L 578.6732192940044,91.50375939849619 L 579.1593280010401,91.50375939849619 L 579.1593280010401,90.6015037593985 L 579.5936946498186,90.6015037593985 L 579.5936946498186,89.69924812030075 L 579.8668081288871,89.69924812030075 L 579.8668081288871,88.79699248120306 L 582.7413212140357,88.79699248120306 L 582.7413212140357,87.89473684210526 L 583.1513781989579,87.89473684210526 L 583.1513781989579,86.99248120300757 L 583.1941212172748,86.99248120300757 L 583.1941212172748,86.09022556390977 L 584.1922133107977,86.09022556390977 L 584.1922133107977,85.18796992481202 L 587.3966783950812,85.18796992481202 L 587.3966783950812,84.28571428571428 L 593.3643999081338,84.28571428571428 L 593.3643999081338,83.38345864661653 L 593.6236527735782,83.38345864661653 L 593.6236527735782,82.48120300751879 L 593.9759953057703,82.48120300751879 L 593.9759953057703,81.57894736842104 L 594.0959249621068,81.57894736842104 L 594.0959249621068,80.6766917293233 L 598.9542768015674,80.6766917293233 L 598.9542768015674,79.77443609022555 L 599.0159154320226,79.77443609022555 L 599.0159154320226,78.8721804511278 L 600.0090125230694,78.8721804511278 L 600.0090125230694,77.96992481203011 L 600.9191208576325,77.96992481203011 L 600.9191208576325,77.06766917293231 L 603.2172784019297,77.06766917293231 L 603.2172784019297,76.16541353383462 L 604.050670769117,76.16541353383462 L 604.050670769117,75.26315789473682 L 604.3919230790093,75.26315789473682 L 604.3919230790093,74.36090225563913 L 604.5962748886925,74.36090225563913 L 604.5962748886925,73.45864661654133 L 604.6990787217278,73.45864661654133 L 604.6990787217278,72.55639097744358 L 605.8580935339621,72.55639097744358 L 605.8580935339621,71.6541353383459 L 609.1865578410152,71.6541353383459 L 609.1865578410152,70.7518796992481 L 609.8695357462774,70.7518796992481 L 609.8695357462774,69.8496240601504 L 611.0105821477893,69.8496240601504 L 611.0105821477893,68.9473684210526 L 613.2381527551427,68.9473684210526 L 613.2381527551427,68.04511278195486 L 614.299540389368,68.04511278195486 L 614.299540389368,67.14285714285717 L 621.7333115795406,67.14285714285717 L 621.7333115795406,66.24060150375942 L 622.5011422018907,66.24060150375942 L 622.5011422018907,65.33834586466168 L 623.0058257508135,65.33834586466168 L 623.0058257508135,64.43609022556393 L 624.115352615583,64.43609022556393 L 624.115352615583,63.533834586466185 L 629.3566731124793,63.533834586466185 L 629.3566731124793,62.63157894736844 L 629.5895578177971,62.63157894736844 L 629.5895578177971,61.72932330827064 L 636.4377711626021,61.72932330827064 L 636.4377711626021,60.82706766917295 L 640.1129268591665,60.82706766917295 L 640.1129268591665,59.924812030075145 L 640.7881272783433,59.924812030075145 L 640.7881272783433,59.022556390977456 L 641.9122593443707,59.022556390977456 L 641.9122593443707,58.120300751879654 L 647.8732944635028,58.120300751879654 L 647.8732944635028,57.218045112781965 L 652.0358157424656,57.218045112781965 L 652.0358157424656,56.31578947368422 L 656.3244509962934,56.31578947368422 L 656.3244509962934,55.413533834586474 L 660.521599404912,55.413533834586474 L 660.521599404912,54.51127819548873 L 668.3829493627761,54.51127819548873 L 668.3829493627761,53.60902255639098 L 668.8969518682237,53.60902255639098 L 668.8969518682237,52.70676691729324 L 678.7116404152159,52.70676691729324 L 678.7116404152159,51.80451127819549 L 694.7599960201392,51.80451127819549 L 694.7599960201392,50.902255639097746 L 706.0410613751706,50.902255639097746 L 706.0410613751706,50.0 L 710,50.0" fill="none" stroke="#ef4444" stroke-width="2.0" class="series-13056"/>
<g class="glyphx-legend">
<rect x="10" y="20" width="12" height="12" fill="#3b82f6" class="legend-icon" data-target="series-31024" />
<text x="30" y="30" font-size="12" font-family="sans-serif" fill="#000000" class="legend-label" data-target="series-31024">Control  (n=400)</text>
<rect x="10" y="42" width="12" height="12" fill="#ef4444" class="legend-icon" data-target="series-13056" />
<text x="30" y="52" font-size="12" font-family="sans-serif" fill="#000000" class="legend-label" data-target="series-13056">Treatment  (n=400)</text>
</g></svg>