<svg role="img" focusable="false" aria-labelledby="glyphx-chart-11-title glyphx-chart-11-desc" id="glyphx-chart-11" data-glyphx="true" width="800" height="580" xmlns="http://www.w3.org/2000/svg" viewBox="0 0 800 580"><title id="glyphx-chart-11-title">Subplot Grid  —  Figure(rows=2, cols=2)</title><desc id="glyphx-chart-11-desc">Chart chart titled &quot;Subplot Grid  —  Figure(rows=2, cols=2)&quot;.</desc><rect width="800" height="580" fill="#ffffff"/>
<text x="400" y="28" text-anchor="middle" font-size="20" font-weight="bold" font-family="sans-serif" fill="#000000">Subplot Grid  —  Figure(rows=2, cols=2)</text>
<g transform="translate(0,0)"><line x1="50" y1="240" x2="350" y2="240" stroke="#333" />
<line x1="50" y1="50" x2="50" y2="240" stroke="#333" /><line x1="50" x2="350" y1="240.0" y2="240.0" stroke="#ddd" stroke-dasharray="3,3" />
<text x="42" y="244.0" text-anchor="end" font-size="11" font-family="sans-serif" fill="#000000">4</text>
<line x1="50" x2="350" y1="201.99999999999997" y2="201.99999999999997" stroke="#ddd" stroke-dasharray="3,3" />
<text x="42" y="205.99999999999997" text-anchor="end" font-size="11" font-family="sans-serif" fill="#000000">4.40</text>
<line x1="50" x2="350" y1="164.0" y2="164.0" stroke="#ddd" stroke-dasharray="3,3" />
<text x="42" y="168.0" text-anchor="end" font-size="11" font-family="sans-serif" fill="#000000">4.80</text>
<line x1="50" x2="350" y1="125.99999999999999" y2="125.99999999999999" stroke="#ddd" stroke-dasharray="3,3" />
<text x="42" y="130.0" text-anchor="end" font-size="11" font-family="sans-serif" fill="#000000">5.20</text>
<line x1="50" x2="350" y1="88.00000000000003" y2="88.00000000000003" stroke="#ddd" stroke-dasharray="3,3" />
<text x="42" y="92.00000000000003" text-anchor="end" font-size="11" font-family="sans-serif" fill="#000000">5.60</text>
<line x1="50" x2="350" y1="50.0" y2="50.0" stroke="#ddd" stroke-dasharray="3,3" />
<text x="42" y="54.0" text-anchor="end" font-size="11" font-family="sans-serif" fill="#000000">6</text>
<line y1="50" y2="240" x1="50.0" x2="50.0" stroke="#ddd" stroke-dasharray="3,3" />
<text x="50.0" y="256" text-anchor="middle" font-size="11" font-family="sans-serif" fill="#000000" >0.50</text>
<line y1="50" y2="240" x1="110.0" x2="110.0" stroke="#ddd" stroke-dasharray="3,3" />
<text x="110.0" y="256" text-anchor="middle" font-size="11" font-family="sans-serif" fill="#000000" >1.10</text>
<line y1="50" y2="240" x1="170.0" x2="170.0" stroke="#ddd" stroke-dasharray="3,3" />
<text x="170.0" y="256" text-anchor="middle" font-size="11" font-family="sans-serif" fill="#000000" >1.70</text>
<line y1="50" y2="240" x1="230.0" x2="230.0" stroke="#ddd" stroke-dasharray="3,3" />
<text x="230.0" y="256" text-anchor="middle" font-size="11" font-family="sans-serif" fill="#000000" >2.30</text>
<line y1="50" y2="240" x1="290.0" x2="290.0" stroke="#ddd" stroke-dasharray="3,3" />
<text x="290.0" y="256" text-anchor="middle" font-size="11" font-family="sans-serif" fill="#000000" >2.90</text>
<line y1="50" y2="240" x1="350.0" x2="350.0" stroke="#ddd" stroke-dasharray="3,3" />
<text x="350.0" y="256" text-anchor="middle" font-size="11" font-family="sans-serif" fill="#000000" >3.50</text><polyline class="series-5136" fill="none" stroke="#2563eb" stroke-width="2" stroke-dasharray="" points="100.0,240.0 200.0,145.0 300.0,50.0"/>
<circle class="glyphx-point series-5136" tabindex="0" role="graphics-symbol" cx="100.0" cy="240.0" r="4" fill="#2563eb" data-x="1" data-y="4" data-label=""/>
<circle class="glyphx-point series-5136" tabindex="0" role="graphics-symbol" cx="200.0" cy="145.0" r="4" fill="#2563eb" data-x="2" data-y="5" data-label=""/>
<circle class="glyphx-point series-5136" tabindex="0" role="graphics-symbol" cx="300.0" cy="50.0" r="4" fill="#2563eb" data-x="3" data-y="6" data-label=""/></g>
<g transform="translate(400,0)"><line x1="50" y1="240" x2="350" y2="240" stroke="#333" />
<line x1="50" y1="50" x2="50" y2="240" stroke="#333" /><line x1="50" x2="350" y1="240.0" y2="240.0" stroke="#ddd" stroke-dasharray="3,3" />
<text x="42" y="244.0" text-anchor="end" font-size="11" font-family="sans-serif" fill="#000000">0</text>
<line x1="50" x2="350" y1="202.0" y2="202.0" stroke="#ddd" stroke-dasharray="3,3" />
<text x="42" y="206.0" text-anchor="end" font-size="11" font-family="sans-serif" fill="#000000">1.40</text>
<line x1="50" x2="350" y1="164.0" y2="164.0" stroke="#ddd" stroke-dasharray="3,3" />
<text x="42" y="168.0" text-anchor="end" font-size="11" font-family="sans-serif" fill="#000000">2.80</text>
<line x1="50" x2="350" y1="126.0" y2="126.0" stroke="#ddd" stroke-dasharray="3,3" />
<text x="42" y="130.0" text-anchor="end" font-size="11" font-family="sans-serif" fill="#000000">4.20</text>
<line x1="50" x2="350" y1="88.0" y2="88.0" stroke="#ddd" stroke-dasharray="3,3" />
<text x="42" y="92.0" text-anchor="end" font-size="11" font-family="sans-serif" fill="#000000">5.60</text>
<line x1="50" x2="350" y1="50.0" y2="50.0" stroke="#ddd" stroke-dasharray="3,3" />
<text x="42" y="54.0" text-anchor="end" font-size="11" font-family="sans-serif" fill="#000000">7</text>
<line y1="50" y2="240" x1="100.0" x2="100.0" stroke="#ddd" stroke-dasharray="3,3" />
<text x="100.0" y="256" text-anchor="middle" font-size="11" font-family="sans-serif" fill="#000000" >A</text>
<line y1="50" y2="240" x1="200.0" x2="200.0" stroke="#ddd" stroke-dasharray="3,3" />
<text x="200.0" y="256" text-anchor="middle" font-size="11" font-family="sans-serif" fill="#000000" >B</text>
<line y1="50" y2="240" x1="300.0" x2="300.0" stroke="#ddd" stroke-dasharray="3,3" />
<text x="300.0" y="256" text-anchor="middle" font-size="11" font-family="sans-serif" fill="#000000" >C</text><rect class="glyphx-point series-60224" tabindex="0" role="graphics-symbol" x="60.0" y="104.28571428571428" width="80.0" height="135.71428571428572" fill="#7c3aed" stroke="#00000033" data-x="A" data-y="5" data-label=""/>
<rect class="glyphx-point series-60224" tabindex="0" role="graphics-symbol" x="160.0" y="158.57142857142856" width="80.0" height="81.42857142857144" fill="#7c3aed" stroke="#00000033" data-x="B" data-y="3" data-label=""/>
<rect class="glyphx-point series-60224" tabindex="0" role="graphics-symbol" x="260.0" y="50.0" width="80.0" height="190.0" fill="#7c3aed" stroke="#00000033" data-x="C" data-y="7" data-label=""/></g>
<g transform="translate(0,290)"><line x1="50" y1="240" x2="350" y2="240" stroke="#333" />
<line x1="50" y1="50" x2="50" y2="240" stroke="#333" /><line x1="50" x2="350" y1="240.0" y2="240.0" stroke="#ddd" stroke-dasharray="3,3" />
<text x="42" y="244.0" text-anchor="end" font-size="11" font-family="sans-serif" fill="#000000">4</text>
<line x1="50" x2="350" y1="201.99999999999997" y2="201.99999999999997" stroke="#ddd" stroke-dasharray="3,3" />
<text x="42" y="205.99999999999997" text-anchor="end" font-size="11" font-family="sans-serif" fill="#000000">4.40</text>
<line x1="50" x2="350" y1="164.0" y2="164.0" stroke="#ddd" stroke-dasharray="3,3" />
<text x="42" y="168.0" text-anchor="end" font-size="11" font-family="sans-serif" fill="#000000">4.80</text>
<line x1="50" x2="350" y1="125.99999999999999" y2="125.99999999999999" stroke="#ddd" stroke-dasharray="3,3" />
<text x="42" y="130.0" text-anchor="end" font-size="11" font-family="sans-serif" fill="#000000">5.20</text>
<line x1="50" x2="350" y1="88.00000000000003" y2="88.00000000000003" stroke="#ddd" stroke-dasharray="3,3" />
<text x="42" y="92.00000000000003" text-anchor="end" font-size="11" font-family="sans-serif" fill="#000000">5.60</text>
<line x1="50" x2="350" y1="50.0" y2="50.0" stroke="#ddd" stroke-dasharray="3,3" />
<text x="42" y="54.0" text-anchor="end" font-size="11" font-family="sans-serif" fill="#000000">6</text>
<line y1="50" y2="240" x1="50.0" x2="50.0" stroke="#ddd" stroke-dasharray="3,3" />
<text x="50.0" y="256" text-anchor="middle" font-size="11" font-family="sans-serif" fill="#000000" >0.50</text>
<line y1="50" y2="240" x1="110.0" x2="110.0" stroke="#ddd" stroke-dasharray="3,3" />
<text x="110.0" y="256" text-anchor="middle" font-size="11" font-family="sans-serif" fill="#000000" >1.30</text>
<line y1="50" y2="240" x1="170.0" x2="170.0" stroke="#ddd" stroke-dasharray="3,3" />
<text x="170.0" y="256" text-anchor="middle" font-size="11" font-family="sans-serif" fill="#000000" >2.10</text>
<line y1="50" y2="240" x1="230.0" x2="230.0" stroke="#ddd" stroke-dasharray="3,3" />
<text x="230.0" y="256" text-anchor="middle" font-size="11" font-family="sans-serif" fill="#000000" >2.90</text>
<line y1="50" y2="240" x1="290.0" x2="290.0" stroke="#ddd" stroke-dasharray="3,3" />
<text x="290.0" y="256" text-anchor="middle" font-size="11" font-family="sans-serif" fill="#000000" >3.70</text>
<line y1="50" y2="240" x1="350.0" x2="350.0" stroke="#ddd" stroke-dasharray="3,3" />
<text x="350.0" y="256" text-anchor="middle" font-size="11" font-family="sans-serif" fill="#000000" >4.50</text><circle class="glyphx-point series-26368" tabindex="0" role="graphics-symbol" cx="87.5" cy="240.0" r="5" fill="#16a34a" data-x="1" data-y="4" data-label=""/>
<circle class="glyphx-point series-26368" tabindex="0" role="graphics-symbol" cx="162.5" cy="145.0" r="5" fill="#16a34a" data-x="2" data-y="5" data-label=""/>
<circle class="glyphx-point series-26368" tabindex="0" role="graphics-symbol" cx="237.5" cy="50.0" r="5" fill="#16a34a" data-x="3" data-y="6" data-label=""/>
<circle class="glyphx-point series-26368" tabindex="0" role="graphics-symbol" cx="312.5" cy="145.0" r="5" fill="#16a34a" data-x="4" data-y="5" data-label=""/></g>
<g transform="translate(400,290)"><line x1="50" y1="240" x2="350" y2="240" stroke="#333" />
<line x1="50" y1="50" x2="50" y2="240" stroke="#333" /><line x1="50" x2="350" y1="240.0" y2="240.0" stroke="#ddd" stroke-dasharray="3,3" />
<text x="42" y="244.0" text-anchor="end" font-size="11" font-family="sans-serif" fill="#000000">1</text>
<line x1="50" x2="350" y1="202.0" y2="202.0" stroke="#ddd" stroke-dasharray="3,3" />
<text x="42" y="206.0" text-anchor="end" font-size="11" font-family="sans-serif" fill="#000000">7.80</text>
<line x1="50" x2="350" y1="164.0" y2="164.0" stroke="#ddd" stroke-dasharray="3,3" />
<text x="42" y="168.0" text-anchor="end" font-size="11" font-family="sans-serif" fill="#000000">14.6</text>
<line x1="50" x2="350" y1="126.00000000000001" y2="126.00000000000001" stroke="#ddd" stroke-dasharray="3,3" />
<text x="42" y="130.0" text-anchor="end" font-size="11" font-family="sans-serif" fill="#000000">21.4</text>
<line x1="50" x2="350" y1="87.99999999999997" y2="87.99999999999997" stroke="#ddd" stroke-dasharray="3,3" />
<text x="42" y="91.99999999999997" text-anchor="end" font-size="11" font-family="sans-serif" fill="#000000">28.2</text>
<line x1="50" x2="350" y1="50.0" y2="50.0" stroke="#ddd" stroke-dasharray="3,3" />
<text x="42" y="54.0" text-anchor="end" font-size="11" font-family="sans-serif" fill="#000000">35</text>
<line y1="50" y2="240" x1="50.0" x2="50.0" stroke="#ddd" stroke-dasharray="3,3" />
<text x="50.0" y="256" text-anchor="middle" font-size="11" font-family="sans-serif" fill="#000000" >27.2</text>
<line y1="50" y2="240" x1="110.00000000000001" x2="110.00000000000001" stroke="#ddd" stroke-dasharray="3,3" />
<text x="110.00000000000001" y="256" text-anchor="middle" font-size="11" font-family="sans-serif" fill="#000000" >36.9</text>
<line y1="50" y2="240" x1="170.00000000000003" x2="170.00000000000003" stroke="#ddd" stroke-dasharray="3,3" />
<text x="170.00000000000003" y="256" text-anchor="middle" font-size="11" font-family="sans-serif" fill="#000000" >46.6</text>
<line y1="50" y2="240" x1="229.99999999999997" x2="229.99999999999997" stroke="#ddd" stroke-dasharray="3,3" />
<text x="229.99999999999997" y="256" text-anchor="middle" font-size="11" font-family="sans-serif" fill="#000000" >56.3</text>
<line y1="50" y2="240" x1="290.00000000000006" x2="290.00000000000006" stroke="#ddd" stroke-dasharray="3,3" />
<text x="290.00000000000006" y="256" text-anchor="middle" font-size="11" font-family="sans-serif" fill="#000000" >65.9</text>
<line y1="50" y2="240" x1="350.0" x2="350.0" stroke="#ddd" stroke-dasharray="3,3" />
<text x="350.0" y="256" text-anchor="middle" font-size="11" font-family="sans-serif" fill="#000000" >75.6</text><rect class="glyphx-point series-24768" tabindex="0" role="graphics-symbol" x="43.13287580227757" y="234.41176470588235" width="19.936290031817556" height="11.176470588235304" fill="#0891b2" stroke="#fff" data-x="27.7" data-y="2" data-label=""/>
<rect class="glyphx-point series-24768" tabindex="0" role="graphics-symbol" x="64.11844425682236" y="228.8235294117647" width="19.936290031817556" height="16.764705882352956" fill="#0891b2" stroke="#fff" data-x="31.1" data-y="3" data-label=""/>
<rect class="glyphx-point series-24768" tabindex="0" role="graphics-symbol" x="85.10401271136719" y="178.52941176470588" width="19.936290031817556" height="67.05882352941177" fill="#0891b2" stroke="#fff" data-x="34.5" data-y="12" data-label=""/>
<rect class="glyphx-point series-24768" tabindex="0" role="graphics-symbol" x="106.08958116591197" y="195.29411764705884" width="19.936290031817556" height="50.29411764705881" fill="#0891b2" stroke="#fff" data-x="37.9" data-y="9" data-label=""/>
<rect class="glyphx-point series-24768" tabindex="0" role="graphics-symbol" x="127.0751496204568" y="128.23529411764707" width="19.936290031817556" height="117.35294117647058" fill="#0891b2" stroke="#fff" data-x="41.3" data-y="21" data-label=""/>
<rect class="glyphx-point series-24768" tabindex="0" role="graphics-symbol" x="148.06071807500163" y="145.0" width="19.936290031817556" height="100.58823529411765" fill="#0891b2" stroke="#fff" data-x="44.7" data-y="18" data-label=""/>
<rect class="glyphx-point series-24768" tabindex="0" role="graphics-symbol" x="169.0462865295464" y="128.23529411764707" width="19.936290031817556" height="117.35294117647058" fill="#0891b2" stroke="#fff" data-x="48" data-y="21" data-label=""/>
<rect class="glyphx-point series-24768" tabindex="0" role="graphics-symbol" x="190.0318549840912" y="50.0" width="19.936290031817556" height="195.58823529411765" fill="#0891b2" stroke="#fff" data-x="51.4" data-y="35" data-label=""/>
<rect class="glyphx-point series-24768" tabindex="0" role="graphics-symbol" x="211.017423438636" y="94.70588235294119" width="19.936290031817556" height="150.88235294117646" fill="#0891b2" stroke="#fff" data-x="54.8" data-y="27" data-label=""/>
<rect class="glyphx-point series-24768" tabindex="0" role="graphics-symbol" x="232.00299189318085" y="133.8235294117647" width="19.936290031817556" height="111.76470588235296" fill="#0891b2" stroke="#fff" data-x="58.2" data-y="20" data-label=""/>
<rect class="glyphx-point series-24768" tabindex="0" role="graphics-symbol" x="252.98856034772567" y="145.0" width="19.936290031817556" height="100.58823529411765" fill="#0891b2" stroke="#fff" data-x="61.6" data-y="18" data-label=""/>
<rect class="glyphx-point series-24768" tabindex="0" role="graphics-symbol" x="273.9741288022704" y="212.05882352941177" width="19.936290031817556" height="33.529411764705884" fill="#0891b2" stroke="#fff" data-x="65" data-y="6" data-label=""/>
<rect class="glyphx-point series-24768" tabindex="0" role="graphics-symbol" x="294.9596972568152" y="223.23529411764707" width="19.936290031817556" height="22.35294117647058" fill="#0891b2" stroke="#fff" data-x="68.3" data-y="4" data-label=""/>
<rect class="glyphx-point series-24768" tabindex="0" role="graphics-symbol" x="315.94526571136004" y="228.8235294117647" width="19.936290031817556" height="16.764705882352956" fill="#0891b2" stroke="#fff" data-x="71.7" data-y="3" data-label=""/>
<rect class="glyphx-point series-24768" tabindex="0" role="graphics-symbol" x="336.93083416590486" y="240.0" width="19.936290031817556" height="5.588235294117652" fill="#0891b2" stroke="#fff" data-x="75.1" data-y="1" data-label=""/></g></svg>