<svg role="img" focusable="false" aria-labelledby="glyphx-chart-98adbae79309-title glyphx-chart-98adbae79309-desc" id="glyphx-chart-98adbae79309" data-glyphx="true" width="740" height="460" xmlns="http://www.w3.org/2000/svg" viewBox="0 0 740 460"><title id="glyphx-chart-98adbae79309-title">Parallel Coordinates — Iris Dataset</title><desc id="glyphx-chart-98adbae79309-desc">Parallelcoordinates chart titled &quot;Parallel Coordinates — Iris Dataset&quot;.</desc><rect width="740" height="460" fill="#ffffff"/>
<text x="370" y="28" text-anchor="middle" font-size="20" font-weight="bold" font-family="sans-serif" fill="#000000">Parallel Coordinates — Iris Dataset</text>
<line x1="100.0" x2="100.0" y1="50" y2="410" stroke="#000000" stroke-width="1.2" opacity="0.6"/>
<text x="100.0" y="42" text-anchor="middle" font-size="12" font-family="sans-serif" fill="#000000" font-weight="600">Sepal L</text>
<text x="94.0" y="413.0" text-anchor="end" font-size="9" font-family="sans-serif" fill="#000000" opacity="0.7">3.72</text>
<line x1="97.0" x2="103.0" y1="410.0" y2="410.0" stroke="#000000" stroke-width="0.8" opacity="0.4"/>
<text x="94.0" y="341.0" text-anchor="end" font-size="9" font-family="sans-serif" fill="#000000" opacity="0.7">4.69</text>
<line x1="97.0" x2="103.0" y1="338.0" y2="338.0" stroke="#000000" stroke-width="0.8" opacity="0.4"/>
<text x="94.0" y="269.0" text-anchor="end" font-size="9" font-family="sans-serif" fill="#000000" opacity="0.7">5.65</text>
<line x1="97.0" x2="103.0" y1="266.0" y2="266.0" stroke="#000000" stroke-width="0.8" opacity="0.4"/>
<text x="94.0" y="197.0" text-anchor="end" font-size="9" font-family="sans-serif" fill="#000000" opacity="0.7">6.62</text>
<line x1="97.0" x2="103.0" y1="194.0" y2="194.0" stroke="#000000" stroke-width="0.8" opacity="0.4"/>
<text x="94.0" y="125.0" text-anchor="end" font-size="9" font-family="sans-serif" fill="#000000" opacity="0.7">7.58</text>
<line x1="97.0" x2="103.0" y1="122.0" y2="122.0" stroke="#000000" stroke-width="0.8" opacity="0.4"/>
<text x="94.0" y="53.0" text-anchor="end" font-size="9" font-family="sans-serif" fill="#000000" opacity="0.7">8.54</text>
<line x1="97.0" x2="103.0" y1="50.0" y2="50.0" stroke="#000000" stroke-width="0.8" opacity="0.4"/>
<line x1="236.7" x2="236.7" y1="50" y2="410" stroke="#000000" stroke-width="1.2" opacity="0.6"/>
<text x="236.7" y="42" text-anchor="middle" font-size="12" font-family="sans-serif" fill="#000000" font-weight="600">Sepal W</text>
<text x="230.7" y="413.0" text-anchor="end" font-size="9" font-family="sans-serif" fill="#000000" opacity="0.7">0.81</text>
<line x1="233.7" x2="239.7" y1="410.0" y2="410.0" stroke="#000000" stroke-width="0.8" opacity="0.4"/>
<text x="230.7" y="341.0" text-anchor="end" font-size="9" font-family="sans-serif" fill="#000000" opacity="0.7">1.51</text>
<line x1="233.7" x2="239.7" y1="338.0" y2="338.0" stroke="#000000" stroke-width="0.8" opacity="0.4"/>
<text x="230.7" y="269.0" text-anchor="end" font-size="9" font-family="sans-serif" fill="#000000" opacity="0.7">2.21</text>
<line x1="233.7" x2="239.7" y1="266.0" y2="266.0" stroke="#000000" stroke-width="0.8" opacity="0.4"/>
<text x="230.7" y="197.0" text-anchor="end" font-size="9" font-family="sans-serif" fill="#000000" opacity="0.7">2.90</text>
<line x1="233.7" x2="239.7" y1="194.0" y2="194.0" stroke="#000000" stroke-width="0.8" opacity="0.4"/>
<text x="230.7" y="125.0" text-anchor="end" font-size="9" font-family="sans-serif" fill="#000000" opacity="0.7">3.60</text>
<line x1="233.7" x2="239.7" y1="122.0" y2="122.0" stroke="#000000" stroke-width="0.8" opacity="0.4"/>
<text x="230.7" y="53.0" text-anchor="end" font-size="9" font-family="sans-serif" fill="#000000" opacity="0.7">4.30</text>
<line x1="233.7" x2="239.7" y1="50.0" y2="50.0" stroke="#000000" stroke-width="0.8" opacity="0.4"/>
<line x1="373.3" x2="373.3" y1="50" y2="410" stroke="#000000" stroke-width="1.2" opacity="0.6"/>
<text x="373.3" y="42" text-anchor="middle" font-size="12" font-family="sans-serif" fill="#000000" font-weight="600">Petal L</text>
<text x="367.3" y="413.0" text-anchor="end" font-size="9" font-family="sans-serif" fill="#000000" opacity="0.7">0.37</text>
<line x1="370.3" x2="376.3" y1="410.0" y2="410.0" stroke="#000000" stroke-width="0.8" opacity="0.4"/>
<text x="367.3" y="341.0" text-anchor="end" font-size="9" font-family="sans-serif" fill="#000000" opacity="0.7">1.75</text>
<line x1="370.3" x2="376.3" y1="338.0" y2="338.0" stroke="#000000" stroke-width="0.8" opacity="0.4"/>
<text x="367.3" y="269.0" text-anchor="end" font-size="9" font-family="sans-serif" fill="#000000" opacity="0.7">3.14</text>
<line x1="370.3" x2="376.3" y1="266.0" y2="266.0" stroke="#000000" stroke-width="0.8" opacity="0.4"/>
<text x="367.3" y="197.0" text-anchor="end" font-size="9" font-family="sans-serif" fill="#000000" opacity="0.7">4.52</text>
<line x1="370.3" x2="376.3" y1="194.0" y2="194.0" stroke="#000000" stroke-width="0.8" opacity="0.4"/>
<text x="367.3" y="125.0" text-anchor="end" font-size="9" font-family="sans-serif" fill="#000000" opacity="0.7">5.91</text>
<line x1="370.3" x2="376.3" y1="122.0" y2="122.0" stroke="#000000" stroke-width="0.8" opacity="0.4"/>
<text x="367.3" y="53.0" text-anchor="end" font-size="9" font-family="sans-serif" fill="#000000" opacity="0.7">7.29</text>
<line x1="370.3" x2="376.3" y1="50.0" y2="50.0" stroke="#000000" stroke-width="0.8" opacity="0.4"/>
<line x1="510.0" x2="510.0" y1="50" y2="410" stroke="#000000" stroke-width="1.2" opacity="0.6"/>
<text x="510.0" y="42" text-anchor="middle" font-size="12" font-family="sans-serif" fill="#000000" font-weight="600">Petal W</text>
<text x="504.0" y="413.0" text-anchor="end" font-size="9" font-family="sans-serif" fill="#000000" opacity="0.7">-1.05</text>
<line x1="507.0" x2="513.0" y1="410.0" y2="410.0" stroke="#000000" stroke-width="0.8" opacity="0.4"/>
<text x="504.0" y="341.0" text-anchor="end" font-size="9" font-family="sans-serif" fill="#000000" opacity="0.7">-0.24</text>
<line x1="507.0" x2="513.0" y1="338.0" y2="338.0" stroke="#000000" stroke-width="0.8" opacity="0.4"/>
<text x="504.0" y="269.0" text-anchor="end" font-size="9" font-family="sans-serif" fill="#000000" opacity="0.7">0.57</text>
<line x1="507.0" x2="513.0" y1="266.0" y2="266.0" stroke="#000000" stroke-width="0.8" opacity="0.4"/>
<text x="504.0" y="197.0" text-anchor="end" font-size="9" font-family="sans-serif" fill="#000000" opacity="0.7">1.39</text>
<line x1="507.0" x2="513.0" y1="194.0" y2="194.0" stroke="#000000" stroke-width="0.8" opacity="0.4"/>
<text x="504.0" y="125.0" text-anchor="end" font-size="9" font-family="sans-serif" fill="#000000" opacity="0.7">2.20</text>
<line x1="507.0" x2="513.0" y1="122.0" y2="122.0" stroke="#000000" stroke-width="0.8" opacity="0.4"/>
<text x="504.0" y="53.0" text-anchor="end" font-size="9" font-family="sans-serif" fill="#000000" opacity="0.7">3.02</text>
<line x1="507.0" x2="513.0" y1="50.0" y2="50.0" stroke="#000000" stroke-width="0.8" opacity="0.4"/>
<polyline class="glyphx-point series-6256" tabindex="0" role="graphics-symbol" points="100.0,162.4 236.7,157.1 373.3,61.2 510.0,159.1" fill="none" stroke="#fde725" stroke-width="1.2" opacity="0.35"/>
<polyline class="glyphx-point series-6256" tabindex="0" role="graphics-symbol" points="100.0,216.6 236.7,122.9 373.3,166.6 510.0,206.4" fill="none" stroke="#fde725" stroke-width="1.2" opacity="0.35"/>
<polyline class="glyphx-point series-6256" tabindex="0" role="graphics-symbol" points="100.0,99.5 236.7,137.5 373.3,138.9 510.0,65.8" fill="none" stroke="#fde725" stroke-width="1.2" opacity="0.35"/>
<polyline class="glyphx-point series-6256" tabindex="0" role="graphics-symbol" points="100.0,122.0 236.7,160.0 373.3,160.3 510.0,59.5" fill="none" stroke="#fde725" stroke-width="1.2" opacity="0.35"/>
<polyline class="glyphx-point series-6256" tabindex="0" role="graphics-symbol" points="100.0,202.0 236.7,224.0 373.3,61.5 510.0,78.3" fill="none" stroke="#fde725" stroke-width="1.2" opacity="0.35"/>
<polyline class="glyphx-point series-6256" tabindex="0" role="graphics-symbol" points="100.0,156.9 236.7,81.7 373.3,132.1 510.0,188.7" fill="none" stroke="#fde725" stroke-width="1.2" opacity="0.35"/>
<polyline class="glyphx-point series-6256" tabindex="0" role="graphics-symbol" points="100.0,190.5 236.7,80.4 373.3,167.6 510.0,177.0" fill="none" stroke="#fde725" stroke-width="1.2" opacity="0.35"/>
<polyline class="glyphx-point series-6256" tabindex="0" role="graphics-symbol" points="100.0,141.2 236.7,135.5 373.3,151.4 510.0,88.9" fill="none" stroke="#fde725" stroke-width="1.2" opacity="0.35"/>
<polyline class="glyphx-point series-6256" tabindex="0" role="graphics-symbol" points="100.0,50.0 236.7,146.1 373.3,101.9 510.0,94.8" fill="none" stroke="#fde725" stroke-width="1.2" opacity="0.35"/>
<polyline class="glyphx-point series-6256" tabindex="0" role="graphics-symbol" points="100.0,133.3 236.7,237.4 373.3,145.3 510.0,236.8" fill="none" stroke="#fde725" stroke-width="1.2" opacity="0.35"/>
<polyline class="glyphx-point series-6256" tabindex="0" role="graphics-symbol" points="100.0,162.2 236.7,339.5 373.3,183.1 510.0,119.9" fill="none" stroke="#fde725" stroke-width="1.2" opacity="0.35"/>
<polyline class="glyphx-point series-6256" tabindex="0" role="graphics-symbol" points="100.0,191.4 236.7,250.6 373.3,183.4 510.0,97.7" fill="none" stroke="#fde725" stroke-width="1.2" opacity="0.35"/>
<polyline class="glyphx-point series-6256" tabindex="0" role="graphics-symbol" points="100.0,169.4 236.7,198.6 373.3,105.7 510.0,201.1" fill="none" stroke="#fde725" stroke-width="1.2" opacity="0.35"/>
<polyline class="glyphx-point series-6256" tabindex="0" role="graphics-symbol" points="100.0,303.1 236.7,157.1 373.3,145.1 510.0,128.7" fill="none" stroke="#fde725" stroke-width="1.2" opacity="0.35"/>
<polyline class="glyphx-point series-6256" tabindex="0" role="graphics-symbol" points="100.0,224.4 236.7,194.6 373.3,99.8 510.0,238.9" fill="none" stroke="#fde725" stroke-width="1.2" opacity="0.35"/>
<polyline class="glyphx-point series-6256" tabindex="0" role="graphics-symbol" points="100.0,116.3 236.7,180.9 373.3,179.3 510.0,162.0" fill="none" stroke="#fde725" stroke-width="1.2" opacity="0.35"/>
<polyline class="glyphx-point series-6256" tabindex="0" role="graphics-symbol" points="100.0,249.7 236.7,284.9 373.3,130.8 510.0,221.0" fill="none" stroke="#fde725" stroke-width="1.2" opacity="0.35"/>
<polyline class="glyphx-point series-6256" tabindex="0" role="graphics-symbol" points="100.0,180.4 236.7,172.2 373.3,116.6 510.0,122.4" fill="none" stroke="#fde725" stroke-width="1.2" opacity="0.35"/>
<polyline class="glyphx-point series-6256" tabindex="0" role="graphics-symbol" points="100.0,177.3 236.7,68.1 373.3,84.6 510.0,173.3" fill="none" stroke="#fde725" stroke-width="1.2" opacity="0.35"/>
<polyline class="glyphx-point series-6256" tabindex="0" role="graphics-symbol" points="100.0,269.3 236.7,50.0 373.3,168.0 510.0,193.5" fill="none" stroke="#fde725" stroke-width="1.2" opacity="0.35"/>
<polyline class="glyphx-point series-6256" tabindex="0" role="graphics-symbol" points="100.0,255.5 236.7,288.0 373.3,180.9 510.0,162.9" fill="none" stroke="#fde725" stroke-width="1.2" opacity="0.35"/>
<polyline class="glyphx-point series-6256" tabindex="0" role="graphics-symbol" points="100.0,269.2 236.7,331.4 373.3,73.5 510.0,157.0" fill="none" stroke="#fde725" stroke-width="1.2" opacity="0.35"/>
<polyline class="glyphx-point series-6256" tabindex="0" role="graphics-symbol" points="100.0,119.2 236.7,170.0 373.3,173.2 510.0,261.8" fill="none" stroke="#fde725" stroke-width="1.2" opacity="0.35"/>
<polyline class="glyphx-point series-6256" tabindex="0" role="graphics-symbol" points="100.0,244.6 236.7,144.2 373.3,190.2 510.0,119.6" fill="none" stroke="#fde725" stroke-width="1.2" opacity="0.35"/>
<polyline class="glyphx-point series-6256" tabindex="0" role="graphics-symbol" points="100.0,107.0 236.7,334.2 373.3,118.7 510.0,161.4" fill="none" stroke="#fde725" stroke-width="1.2" opacity="0.35"/>
<polyline class="glyphx-point series-6256" tabindex="0" role="graphics-symbol" points="100.0,129.3 236.7,197.2 373.3,189.8 510.0,121.6" fill="none" stroke="#fde725" stroke-width="1.2" opacity="0.35"/>
<polyline class="glyphx-point series-6256" tabindex="0" role="graphics-symbol" points="100.0,136.1 236.7,223.8 373.3,195.4 510.0,90.3" fill="none" stroke="#fde725" stroke-width="1.2" opacity="0.35"/>
<polyline class="glyphx-point series-6256" tabindex="0" role="graphics-symbol" points="100.0,213.8 236.7,171.8 373.3,162.7 510.0,87.5" fill="none" stroke="#fde725" stroke-width="1.2" opacity="0.35"/>
<polyline class="glyphx-point series-6256" tabindex="0" role="graphics-symbol" points="100.0,220.0 236.7,235.5 373.3,160.8 510.0,149.6" fill="none" stroke="#fde725" stroke-width="1.2" opacity="0.35"/>
<polyline class="glyphx-point series-6256" tabindex="0" role="graphics-symbol" points="100.0,133.2 236.7,111.8 373.3,147.2 510.0,71.7" fill="none" stroke="#fde725" stroke-width="1.2" opacity="0.35"/>
<polyline class="glyphx-point series-6256" tabindex="0" role="graphics-symbol" points="100.0,126.8 236.7,278.4 373.3,121.0 510.0,207.8" fill="none" stroke="#fde725" stroke-width="1.2" opacity="0.35"/>
<polyline class="glyphx-point series-6256" tabindex="0" role="graphics-symbol" points="100.0,231.1 236.7,168.8 373.3,185.4 510.0,83.7" fill="none" stroke="#fde725" stroke-width="1.2" opacity="0.35"/>
<polyline class="glyphx-point series-6256" tabindex="0" role="graphics-symbol" points="100.0,189.6 236.7,203.3 373.3,115.9 510.0,131.8" fill="none" stroke="#fde725" stroke-width="1.2" opacity="0.35"/>
<polyline class="glyphx-point series-6256" tabindex="0" role="graphics-symbol" points="100.0,153.2 236.7,98.0 373.3,134.0 510.0,197.2" fill="none" stroke="#fde725" stroke-width="1.2" opacity="0.35"/>
<polyline class="glyphx-point series-6256" tabindex="0" role="graphics-symbol" points="100.0,194.8 236.7,211.7 373.3,192.4 510.0,204.5" fill="none" stroke="#fde725" stroke-width="1.2" opacity="0.35"/>
<polyline class="glyphx-point series-6256" tabindex="0" role="graphics-symbol" points="100.0,85.2 236.7,410.0 373.3,150.4 510.0,118.5" fill="none" stroke="#fde725" stroke-width="1.2" opacity="0.35"/>
<polyline class="glyphx-point series-6256" tabindex="0" role="graphics-symbol" points="100.0,201.4 236.7,242.0 373.3,163.7 510.0,93.2" fill="none" stroke="#fde725" stroke-width="1.2" opacity="0.35"/>
<polyline class="glyphx-point series-6256" tabindex="0" role="graphics-symbol" points="100.0,133.8 236.7,407.7 373.3,162.1 510.0,207.6" fill="none" stroke="#fde725" stroke-width="1.2" opacity="0.35"/>
<polyline class="glyphx-point series-6256" tabindex="0" role="graphics-symbol" points="100.0,164.2 236.7,213.4 373.3,106.3 510.0,109.9" fill="none" stroke="#fde725" stroke-width="1.2" opacity="0.35"/>
<polyline class="glyphx-point series-6256" tabindex="0" role="graphics-symbol" points="100.0,219.8 236.7,121.3 373.3,50.0 510.0,196.8" fill="none" stroke="#fde725" stroke-width="1.2" opacity="0.35"/>
<polyline class="glyphx-point series-6256" tabindex="0" role="graphics-symbol" points="100.0,162.2 236.7,156.2 373.3,125.3 510.0,167.2" fill="none" stroke="#fde725" stroke-width="1.2" opacity="0.35"/>
<polyline class="glyphx-point series-6256" tabindex="0" role="graphics-symbol" points="100.0,201.4 236.7,142.1 373.3,118.6 510.0,195.1" fill="none" stroke="#fde725" stroke-width="1.2" opacity="0.35"/>
<polyline class="glyphx-point series-6256" tabindex="0" role="graphics-symbol" points="100.0,234.6 236.7,214.3 373.3,166.8 510.0,77.4" fill="none" stroke="#fde725" stroke-width="1.2" opacity="0.35"/>
<polyline class="glyphx-point series-6256" tabindex="0" role="graphics-symbol" points="100.0,259.6 236.7,212.4 373.3,197.1 510.0,140.8" fill="none" stroke="#fde725" stroke-width="1.2" opacity="0.35"/>
<polyline class="glyphx-point series-6256" tabindex="0" role="graphics-symbol" points="100.0,233.5 236.7,294.8 373.3,126.0 510.0,190.4" fill="none" stroke="#fde725" stroke-width="1.2" opacity="0.35"/>
<polyline class="glyphx-point series-6256" tabindex="0" role="graphics-symbol" points="100.0,216.6 236.7,233.2 373.3,118.2 510.0,329.1" fill="none" stroke="#fde725" stroke-width="1.2" opacity="0.35"/>
<polyline class="glyphx-point series-6256" tabindex="0" role="graphics-symbol" points="100.0,243.1 236.7,306.5 373.3,143.2 510.0,81.7" fill="none" stroke="#fde725" stroke-width="1.2" opacity="0.35"/>
<polyline class="glyphx-point series-6256" tabindex="0" role="graphics-symbol" points="100.0,155.6 236.7,217.7 373.3,97.9 510.0,50.0" fill="none" stroke="#fde725" stroke-width="1.2" opacity="0.35"/>
<polyline class="glyphx-point series-6256" tabindex="0" role="graphics-symbol" points="100.0,187.1 236.7,313.6 373.3,84.0 510.0,188.2" fill="none" stroke="#fde725" stroke-width="1.2" opacity="0.35"/>
<polyline class="glyphx-point series-6256" tabindex="0" role="graphics-symbol" points="100.0,198.6 236.7,121.1 373.3,195.6 510.0,110.2" fill="none" stroke="#fde725" stroke-width="1.2" opacity="0.35"/>
<polyline class="glyphx-point series-6256" tabindex="0" role="graphics-symbol" points="100.0,245.3 236.7,169.0 373.3,148.8 510.0,134.3" fill="none" stroke="#21918c" stroke-width="1.2" opacity="0.35"/>
<polyline class="glyphx-point series-6256" tabindex="0" role="graphics-symbol" points="100.0,294.1 236.7,225.7 373.3,264.7 510.0,141.0" fill="none" stroke="#21918c" stroke-width="1.2" opacity="0.35"/>
<polyline class="glyphx-point series-6256" tabindex="0" role="graphics-symbol" points="100.0,226.1 236.7,214.0 373.3,199.7 510.0,152.6" fill="none" stroke="#21918c" stroke-width="1.2" opacity="0.35"/>
<polyline class="glyphx-point series-6256" tabindex="0" role="graphics-symbol" points="100.0,410.0 236.7,315.6 373.3,208.1 510.0,212.8" fill="none" stroke="#21918c" stroke-width="1.2" opacity="0.35"/>
<polyline class="glyphx-point series-6256" tabindex="0" role="graphics-symbol" points="100.0,198.5 236.7,208.3 373.3,216.9 510.0,261.1" fill="none" stroke="#21918c" stroke-width="1.2" opacity="0.35"/>
<polyline class="glyphx-point series-6256" tabindex="0" role="graphics-symbol" points="100.0,324.5 236.7,119.3 373.3,206.2 510.0,168.1" fill="none" stroke="#21918c" stroke-width="1.2" opacity="0.35"/>
<polyline class="glyphx-point series-6256" tabindex="0" role="graphics-symbol" points="100.0,240.9 236.7,74.8 373.3,206.2 510.0,276.2" fill="none" stroke="#21918c" stroke-width="1.2" opacity="0.35"/>
<polyline class="glyphx-point series-6256" tabindex="0" role="graphics-symbol" points="100.0,277.1 236.7,366.4 373.3,184.0 510.0,301.7" fill="none" stroke="#21918c" stroke-width="1.2" opacity="0.35"/>
<polyline class="glyphx-point series-6256" tabindex="0" role="graphics-symbol" points="100.0,281.9 236.7,262.2 373.3,202.6 510.0,169.1" fill="none" stroke="#21918c" stroke-width="1.2" opacity="0.35"/>
<polyline class="glyphx-point series-6256" tabindex="0" role="graphics-symbol" points="100.0,214.3 236.7,131.3 373.3,223.4 510.0,187.5" fill="none" stroke="#21918c" stroke-width="1.2" opacity="0.35"/>
<polyline class="glyphx-point series-6256" tabindex="0" role="graphics-symbol" points="100.0,368.7 236.7,199.4 373.3,212.9 510.0,251.0" fill="none" stroke="#21918c" stroke-width="1.2" opacity="0.35"/>
<polyline class="glyphx-point series-6256" tabindex="0" role="graphics-symbol" points="100.0,258.1 236.7,372.1 373.3,208.6 510.0,197.3" fill="none" stroke="#21918c" stroke-width="1.2" opacity="0.35"/>
<polyline class="glyphx-point series-6256" tabindex="0" role="graphics-symbol" points="100.0,159.8 236.7,258.6 373.3,108.5 510.0,77.9" fill="none" stroke="#21918c" stroke-width="1.2" opacity="0.35"/>
<polyline class="glyphx-point series-6256" tabindex="0" role="graphics-symbol" points="100.0,306.6 236.7,247.8 373.3,190.1 510.0,153.5" fill="none" stroke="#21918c" stroke-width="1.2" opacity="0.35"/>
<polyline class="glyphx-point series-6256" tabindex="0" role="graphics-symbol" points="100.0,153.3 236.7,282.5 373.3,257.6 510.0,242.2" fill="none" stroke="#21918c" stroke-width="1.2" opacity="0.35"/>
<polyline class="glyphx-point series-6256" tabindex="0" role="graphics-symbol" points="100.0,226.7 236.7,310.0 373.3,209.2 510.0,210.3" fill="none" stroke="#21918c" stroke-width="1.2" opacity="0.35"/>
<polyline class="glyphx-point series-6256" tabindex="0" role="graphics-symbol" points="100.0,283.6 236.7,303.2 373.3,193.7 510.0,291.8" fill="none" stroke="#21918c" stroke-width="1.2" opacity="0.35"/>
<polyline class="glyphx-point series-6256" tabindex="0" role="graphics-symbol" points="100.0,206.4 236.7,222.4 373.3,215.1 510.0,187.4" fill="none" stroke="#21918c" stroke-width="1.2" opacity="0.35"/>
<polyline class="glyphx-point series-6256" tabindex="0" role="graphics-symbol" points="100.0,215.9 236.7,208.7 373.3,265.9 510.0,128.6" fill="none" stroke="#21918c" stroke-width="1.2" opacity="0.35"/>
<polyline class="glyphx-point series-6256" tabindex="0" role="graphics-symbol" points="100.0,213.7 236.7,188.6 373.3,239.0 510.0,274.3" fill="none" stroke="#21918c" stroke-width="1.2" opacity="0.35"/>
<polyline class="glyphx-point series-6256" tabindex="0" role="graphics-symbol" points="100.0,96.4 236.7,249.3 373.3,233.6 510.0,182.8" fill="none" stroke="#21918c" stroke-width="1.2" opacity="0.35"/>
<polyline class="glyphx-point series-6256" tabindex="0" role="graphics-symbol" points="100.0,176.3 236.7,182.1 373.3,237.3 510.0,240.3" fill="none" stroke="#21918c" stroke-width="1.2" opacity="0.35"/>
<polyline class="glyphx-point series-6256" tabindex="0" role="graphics-symbol" points="100.0,313.3 236.7,314.1 373.3,229.6 510.0,276.7" fill="none" stroke="#21918c" stroke-width="1.2" opacity="0.35"/>
<polyline class="glyphx-point series-6256" tabindex="0" role="graphics-symbol" points="100.0,198.1 236.7,215.6 373.3,208.1 510.0,114.7" fill="none" stroke="#21918c" stroke-width="1.2" opacity="0.35"/>
<polyline class="glyphx-point series-6256" tabindex="0" role="graphics-symbol" points="100.0,230.0 236.7,217.4 373.3,264.0 510.0,185.7" fill="none" stroke="#21918c" stroke-width="1.2" opacity="0.35"/>
<polyline class="glyphx-point series-6256" tabindex="0" role="graphics-symbol" points="100.0,150.4 236.7,204.1 373.3,143.8 510.0,239.5" fill="none" stroke="#21918c" stroke-width="1.2" opacity="0.35"/>
<polyline class="glyphx-point series-6256" tabindex="0" role="graphics-symbol" points="100.0,179.7 236.7,274.2 373.3,221.0 510.0,137.6" fill="none" stroke="#21918c" stroke-width="1.2" opacity="0.35"/>
<polyline class="glyphx-point series-6256" tabindex="0" role="graphics-symbol" points="100.0,318.1 236.7,140.1 373.3,187.4 510.0,203.7" fill="none" stroke="#21918c" stroke-width="1.2" opacity="0.35"/>
<polyline class="glyphx-point series-6256" tabindex="0" role="graphics-symbol" points="100.0,207.2 236.7,211.3 373.3,188.2 510.0,270.7" fill="none" stroke="#21918c" stroke-width="1.2" opacity="0.35"/>
<polyline class="glyphx-point series-6256" tabindex="0" role="graphics-symbol" points="100.0,278.4 236.7,359.7 373.3,270.6 510.0,215.8" fill="none" stroke="#21918c" stroke-width="1.2" opacity="0.35"/>
<polyline class="glyphx-point series-6256" tabindex="0" role="graphics-symbol" points="100.0,277.4 236.7,235.9 373.3,290.3 510.0,145.3" fill="none" stroke="#21918c" stroke-width="1.2" opacity="0.35"/>
<polyline class="glyphx-point series-6256" tabindex="0" role="graphics-symbol" points="100.0,221.0 236.7,257.6 373.3,183.3 510.0,143.3" fill="none" stroke="#21918c" stroke-width="1.2" opacity="0.35"/>
<polyline class="glyphx-point series-6256" tabindex="0" role="graphics-symbol" points="100.0,273.9 236.7,158.1 373.3,206.0 510.0,114.7" fill="none" stroke="#21918c" stroke-width="1.2" opacity="0.35"/>
<polyline class="glyphx-point series-6256" tabindex="0" role="graphics-symbol" points="100.0,170.3 236.7,200.2 373.3,224.5 510.0,182.5" fill="none" stroke="#21918c" stroke-width="1.2" opacity="0.35"/>
<polyline class="glyphx-point series-6256" tabindex="0" role="graphics-symbol" points="100.0,181.7 236.7,145.3 373.3,270.5 510.0,178.2" fill="none" stroke="#21918c" stroke-width="1.2" opacity="0.35"/>
<polyline class="glyphx-point series-6256" tabindex="0" role="graphics-symbol" points="100.0,272.1 236.7,277.5 373.3,206.2 510.0,162.5" fill="none" stroke="#21918c" stroke-width="1.2" opacity="0.35"/>
<polyline class="glyphx-point series-6256" tabindex="0" role="graphics-symbol" points="100.0,257.1 236.7,172.7 373.3,203.3 510.0,140.8" fill="none" stroke="#21918c" stroke-width="1.2" opacity="0.35"/>
<polyline class="glyphx-point series-6256" tabindex="0" role="graphics-symbol" points="100.0,253.0 236.7,307.1 373.3,211.7 510.0,216.2" fill="none" stroke="#21918c" stroke-width="1.2" opacity="0.35"/>
<polyline class="glyphx-point series-6256" tabindex="0" role="graphics-symbol" points="100.0,208.5 236.7,290.4 373.3,158.2 510.0,238.6" fill="none" stroke="#21918c" stroke-width="1.2" opacity="0.35"/>
<polyline class="glyphx-point series-6256" tabindex="0" role="graphics-symbol" points="100.0,254.4 236.7,343.5 373.3,158.6 510.0,200.6" fill="none" stroke="#21918c" stroke-width="1.2" opacity="0.35"/>
<polyline class="glyphx-point series-6256" tabindex="0" role="graphics-symbol" points="100.0,186.9 236.7,230.1 373.3,224.9 510.0,184.0" fill="none" stroke="#21918c" stroke-width="1.2" opacity="0.35"/>
<polyline class="glyphx-point series-6256" tabindex="0" role="graphics-symbol" points="100.0,196.0 236.7,197.7 373.3,191.0 510.0,128.6" fill="none" stroke="#21918c" stroke-width="1.2" opacity="0.35"/>
<polyline class="glyphx-point series-6256" tabindex="0" role="graphics-symbol" points="100.0,250.0 236.7,152.3 373.3,210.2 510.0,234.3" fill="none" stroke="#21918c" stroke-width="1.2" opacity="0.35"/>
<polyline class="glyphx-point series-6256" tabindex="0" role="graphics-symbol" points="100.0,302.2 236.7,203.1 373.3,180.4 510.0,248.1" fill="none" stroke="#21918c" stroke-width="1.2" opacity="0.35"/>
<polyline class="glyphx-point series-6256" tabindex="0" role="graphics-symbol" points="100.0,237.9 236.7,77.7 373.3,213.6 510.0,216.0" fill="none" stroke="#21918c" stroke-width="1.2" opacity="0.35"/>
<polyline class="glyphx-point series-6256" tabindex="0" role="graphics-symbol" points="100.0,278.6 236.7,201.9 373.3,212.7 510.0,164.8" fill="none" stroke="#21918c" stroke-width="1.2" opacity="0.35"/>
<polyline class="glyphx-point series-6256" tabindex="0" role="graphics-symbol" points="100.0,216.1 236.7,226.7 373.3,188.0 510.0,237.7" fill="none" stroke="#21918c" stroke-width="1.2" opacity="0.35"/>
<polyline class="glyphx-point series-6256" tabindex="0" role="graphics-symbol" points="100.0,270.8 236.7,217.3 373.3,247.4 510.0,221.7" fill="none" stroke="#21918c" stroke-width="1.2" opacity="0.35"/>
<polyline class="glyphx-point series-6256" tabindex="0" role="graphics-symbol" points="100.0,266.4 236.7,147.2 373.3,194.5 510.0,151.1" fill="none" stroke="#21918c" stroke-width="1.2" opacity="0.35"/>
<polyline class="glyphx-point series-6256" tabindex="0" role="graphics-symbol" points="100.0,336.2 236.7,130.6 373.3,258.6 510.0,285.9" fill="none" stroke="#21918c" stroke-width="1.2" opacity="0.35"/>
<polyline class="glyphx-point series-6256" tabindex="0" role="graphics-symbol" points="100.0,392.6 236.7,106.8 373.3,324.4 510.0,292.0" fill="none" stroke="#440154" stroke-width="1.2" opacity="0.35"/>
<polyline class="glyphx-point series-6256" tabindex="0" role="graphics-symbol" points="100.0,270.3 236.7,188.5 373.3,409.7 510.0,199.1" fill="none" stroke="#440154" stroke-width="1.2" opacity="0.35"/>
<polyline class="glyphx-point series-6256" tabindex="0" role="graphics-symbol" points="100.0,325.1 236.7,78.4 373.3,343.4 510.0,335.4" fill="none" stroke="#440154" stroke-width="1.2" opacity="0.35"/>
<polyline class="glyphx-point series-6256" tabindex="0" role="graphics-symbol" points="100.0,309.7 236.7,247.7 373.3,390.2 510.0,263.7" fill="none" stroke="#440154" stroke-width="1.2" opacity="0.35"/>
<polyline class="glyphx-point series-6256" tabindex="0" role="graphics-symbol" points="100.0,334.1 236.7,121.0 373.3,342.6 510.0,240.1" fill="none" stroke="#440154" stroke-width="1.2" opacity="0.35"/>
<polyline class="glyphx-point series-6256" tabindex="0" role="graphics-symbol" points="100.0,275.2 236.7,111.1 373.3,388.9 510.0,266.9" fill="none" stroke="#440154" stroke-width="1.2" opacity="0.35"/>
<polyline class="glyphx-point series-6256" tabindex="0" role="graphics-symbol" points="100.0,318.2 236.7,88.8 373.3,378.0 510.0,305.5" fill="none" stroke="#440154" stroke-width="1.2" opacity="0.35"/>
<polyline class="glyphx-point series-6256" tabindex="0" role="graphics-symbol" points="100.0,358.3 236.7,188.7 373.3,374.5 510.0,289.8" fill="none" stroke="#440154" stroke-width="1.2" opacity="0.35"/>
<polyline class="glyphx-point series-6256" tabindex="0" role="graphics-symbol" points="100.0,295.0 236.7,79.9 373.3,371.0 510.0,270.9" fill="none" stroke="#440154" stroke-width="1.2" opacity="0.35"/>
<polyline class="glyphx-point series-6256" tabindex="0" role="graphics-symbol" points="100.0,352.5 236.7,119.5 373.3,298.2 510.0,371.7" fill="none" stroke="#440154" stroke-width="1.2" opacity="0.35"/>
<polyline class="glyphx-point series-6256" tabindex="0" role="graphics-symbol" points="100.0,378.1 236.7,99.9 373.3,316.8 510.0,251.6" fill="none" stroke="#440154" stroke-width="1.2" opacity="0.35"/>
<polyline class="glyphx-point series-6256" tabindex="0" role="graphics-symbol" points="100.0,322.4 236.7,103.3 373.3,320.1 510.0,216.1" fill="none" stroke="#440154" stroke-width="1.2" opacity="0.35"/>
<polyline class="glyphx-point series-6256" tabindex="0" role="graphics-symbol" points="100.0,326.0 236.7,229.7 373.3,350.8 510.0,386.0" fill="none" stroke="#440154" stroke-width="1.2" opacity="0.35"/>
<polyline class="glyphx-point series-6256" tabindex="0" role="graphics-symbol" points="100.0,365.3 236.7,171.9 373.3,359.0 510.0,339.0" fill="none" stroke="#440154" stroke-width="1.2" opacity="0.35"/>
<polyline class="glyphx-point series-6256" tabindex="0" role="graphics-symbol" points="100.0,343.6 236.7,114.7 373.3,366.3 510.0,353.5" fill="none" stroke="#440154" stroke-width="1.2" opacity="0.35"/>
<polyline class="glyphx-point series-6256" tabindex="0" role="graphics-symbol" points="100.0,310.9 236.7,218.4 373.3,406.8 510.0,281.0" fill="none" stroke="#440154" stroke-width="1.2" opacity="0.35"/>
<polyline class="glyphx-point series-6256" tabindex="0" role="graphics-symbol" points="100.0,335.8 236.7,130.9 373.3,381.9 510.0,387.9" fill="none" stroke="#440154" stroke-width="1.2" opacity="0.35"/>
<polyline class="glyphx-point series-6256" tabindex="0" role="graphics-symbol" points="100.0,275.1 236.7,126.7 373.3,368.8 510.0,316.7" fill="none" stroke="#440154" stroke-width="1.2" opacity="0.35"/>
<polyline class="glyphx-point series-6256" tabindex="0" role="graphics-symbol" points="100.0,317.6 236.7,98.6 373.3,337.3 510.0,281.6" fill="none" stroke="#440154" stroke-width="1.2" opacity="0.35"/>
<polyline class="glyphx-point series-6256" tabindex="0" role="graphics-symbol" points="100.0,330.5 236.7,190.6 373.3,333.0 510.0,292.8" fill="none" stroke="#440154" stroke-width="1.2" opacity="0.35"/>
<polyline class="glyphx-point series-6256" tabindex="0" role="graphics-symbol" points="100.0,313.6 236.7,167.1 373.3,369.6 510.0,214.5" fill="none" stroke="#440154" stroke-width="1.2" opacity="0.35"/>
<polyline class="glyphx-point series-6256" tabindex="0" role="graphics-symbol" points="100.0,271.4 236.7,110.8 373.3,386.3 510.0,290.3" fill="none" stroke="#440154" stroke-width="1.2" opacity="0.35"/>
<polyline class="glyphx-point series-6256" tabindex="0" role="graphics-symbol" points="100.0,244.3 236.7,168.7 373.3,359.4 510.0,284.6" fill="none" stroke="#440154" stroke-width="1.2" opacity="0.35"/>
<polyline class="glyphx-point series-6256" tabindex="0" role="graphics-symbol" points="100.0,294.6 236.7,175.0 373.3,310.5 510.0,291.5" fill="none" stroke="#440154" stroke-width="1.2" opacity="0.35"/>
<polyline class="glyphx-point series-6256" tabindex="0" role="graphics-symbol" points="100.0,349.8 236.7,121.6 373.3,340.0 510.0,369.1" fill="none" stroke="#440154" stroke-width="1.2" opacity="0.35"/>
<polyline class="glyphx-point series-6256" tabindex="0" role="graphics-symbol" points="100.0,222.1 236.7,93.6 373.3,360.9 510.0,322.0" fill="none" stroke="#440154" stroke-width="1.2" opacity="0.35"/>
<polyline class="glyphx-point series-6256" tabindex="0" role="graphics-symbol" points="100.0,315.0 236.7,147.1 373.3,370.4 510.0,301.8" fill="none" stroke="#440154" stroke-width="1.2" opacity="0.35"/>
<polyline class="glyphx-point series-6256" tabindex="0" role="graphics-symbol" points="100.0,252.0 236.7,104.9 373.3,335.5 510.0,266.4" fill="none" stroke="#440154" stroke-width="1.2" opacity="0.35"/>
<polyline class="glyphx-point series-6256" tabindex="0" role="graphics-symbol" points="100.0,322.5 236.7,176.2 373.3,359.7 510.0,236.3" fill="none" stroke="#440154" stroke-width="1.2" opacity="0.35"/>
<polyline class="glyphx-point series-6256" tabindex="0" role="graphics-symbol" points="100.0,287.8 236.7,92.2 373.3,339.3 510.0,343.9" fill="none" stroke="#440154" stroke-width="1.2" opacity="0.35"/>
<polyline class="glyphx-point series-6256" tabindex="0" role="graphics-symbol" points="100.0,300.9 236.7,101.2 373.3,356.7 510.0,385.3" fill="none" stroke="#440154" stroke-width="1.2" opacity="0.35"/>
<polyline class="glyphx-point series-6256" tabindex="0" role="graphics-symbol" points="100.0,310.1 236.7,61.4 373.3,308.4 510.0,309.4" fill="none" stroke="#440154" stroke-width="1.2" opacity="0.35"/>
<polyline class="glyphx-point series-6256" tabindex="0" role="graphics-symbol" points="100.0,326.8 236.7,209.5 373.3,308.5 510.0,312.8" fill="none" stroke="#440154" stroke-width="1.2" opacity="0.35"/>
<polyline class="glyphx-point series-6256" tabindex="0" role="graphics-symbol" points="100.0,330.2 236.7,193.1 373.3,385.2 510.0,350.0" fill="none" stroke="#440154" stroke-width="1.2" opacity="0.35"/>
<polyline class="glyphx-point series-6256" tabindex="0" role="graphics-symbol" points="100.0,329.6 236.7,250.6 373.3,354.0 510.0,216.8" fill="none" stroke="#440154" stroke-width="1.2" opacity="0.35"/>
<polyline class="glyphx-point series-6256" tabindex="0" role="graphics-symbol" points="100.0,373.2 236.7,114.4 373.3,353.9 510.0,241.3" fill="none" stroke="#440154" stroke-width="1.2" opacity="0.35"/>
<polyline class="glyphx-point series-6256" tabindex="0" role="graphics-symbol" points="100.0,310.4 236.7,128.5 373.3,355.0 510.0,314.1" fill="none" stroke="#440154" stroke-width="1.2" opacity="0.35"/>
<polyline class="glyphx-point series-6256" tabindex="0" role="graphics-symbol" points="100.0,303.5 236.7,172.5 373.3,296.7 510.0,287.6" fill="none" stroke="#440154" stroke-width="1.2" opacity="0.35"/>
<polyline class="glyphx-point series-6256" tabindex="0" role="graphics-symbol" points="100.0,384.3 236.7,244.8 373.3,340.3 510.0,190.2" fill="none" stroke="#440154" stroke-width="1.2" opacity="0.35"/>
<polyline class="glyphx-point series-6256" tabindex="0" role="graphics-symbol" points="100.0,280.2 236.7,153.0 373.3,335.0 510.0,335.6" fill="none" stroke="#440154" stroke-width="1.2" opacity="0.35"/>
<polyline class="glyphx-point series-6256" tabindex="0" role="graphics-symbol" points="100.0,363.7 236.7,60.1 373.3,300.9 510.0,315.1" fill="none" stroke="#440154" stroke-width="1.2" opacity="0.35"/>
<polyline class="glyphx-point series-6256" tabindex="0" role="graphics-symbol" points="100.0,382.0 236.7,112.5 373.3,410.0 510.0,331.2" fill="none" stroke="#440154" stroke-width="1.2" opacity="0.35"/>
<polyline class="glyphx-point series-6256" tabindex="0" role="graphics-symbol" points="100.0,271.6 236.7,166.3 373.3,372.3 510.0,247.2" fill="none" stroke="#440154" stroke-width="1.2" opacity="0.35"/>
<polyline class="glyphx-point series-6256" tabindex="0" role="graphics-symbol" points="100.0,316.4 236.7,224.9 373.3,362.7 510.0,410.0" fill="none" stroke="#440154" stroke-width="1.2" opacity="0.35"/>
<polyline class="glyphx-point series-6256" tabindex="0" role="graphics-symbol" points="100.0,247.0 236.7,134.1 373.3,362.2 510.0,200.8" fill="none" stroke="#440154" stroke-width="1.2" opacity="0.35"/>
<polyline class="glyphx-point series-6256" tabindex="0" role="graphics-symbol" points="100.0,291.8 236.7,135.8 373.3,343.4 510.0,373.1" fill="none" stroke="#440154" stroke-width="1.2" opacity="0.35"/>
<polyline class="glyphx-point series-6256" tabindex="0" role="graphics-symbol" points="100.0,293.9 236.7,157.6 373.3,358.1 510.0,369.5" fill="none" stroke="#440154" stroke-width="1.2" opacity="0.35"/>
<polyline class="glyphx-point series-6256" tabindex="0" role="graphics-symbol" points="100.0,272.9 236.7,108.8 373.3,369.0 510.0,307.4" fill="none" stroke="#440154" stroke-width="1.2" opacity="0.35"/>
<polyline class="glyphx-point series-6256" tabindex="0" role="graphics-symbol" points="100.0,346.8 236.7,142.7 373.3,351.2 510.0,384.1" fill="none" stroke="#440154" stroke-width="1.2" opacity="0.35"/>
<polyline class="glyphx-point series-6256" tabindex="0" role="graphics-symbol" points="100.0,245.4 236.7,169.1 373.3,350.2 510.0,279.4" fill="none" stroke="#440154" stroke-width="1.2" opacity="0.35"/></svg>