<svg id="glyphx-chart-19" data-glyphx="true" width="100%" viewBox="0 0 500 440" height="auto" xmlns="http://www.w3.org/2000/svg" viewBox="0 0 500 440" role="img" focusable="false" aria-labelledby="glyphx-chart-19-title glyphx-chart-19-desc"><title id="glyphx-chart-19-title">Market Share 2024  —  PieSeries</title><desc id="glyphx-chart-19-desc">Pie chart titled &quot;Market Share 2024  —  PieSeries&quot;. Contains 5 slices. Largest: GlyphX (38 of 100).</desc><rect width="500" height="440" fill="#ffffff"/>
<text x="250" y="28" text-anchor="middle" font-size="20" font-weight="bold" font-family="sans-serif" fill="#000000">Market Share 2024  —  PieSeries</text>
<path class="glyphx-point series-64224" tabindex="0" role="graphics-symbol" d="M 250,220 L 371.0,220.0 A 121.00000000000001,121.00000000000001 0 0,1 161.79479608200919,302.8301998173713 Z" fill="#0d0887" stroke="#fff" stroke-width="1" data-label="GlyphX" data-value="38"/>
<line x1="294.543070874846" y1="332.5029547924784" x2="309.5075514878101" y2="370.2989184031493" stroke="#666" stroke-width="1"/>
<line x1="309.5075514878101" y1="370.2989184031493" x2="339.5075514878101" y2="370.2989184031493" stroke="#666" stroke-width="1"/>
<text x="339.5075514878101" y="374.2989184031493" text-anchor="start" font-size="12" font-family="sans-serif" fill="#000">GlyphX</text>
<path class="glyphx-point series-64224" tabindex="0" role="graphics-symbol" d="M 250,220 L 161.79479608200919,302.8301998173713 A 121.00000000000001,121.00000000000001 0 0,1 167.16980018262865,131.79479608200919 Z" fill="#7d08a4" stroke="#fff" stroke-width="1" data-label="Matplotlib" data-value="25"/>
<line x1="129.05970619574646" y1="216.19929815154646" x2="110.15889683880371" y2="215.60531628826052" stroke="#666" stroke-width="1"/>
<line x1="110.15889683880371" y1="215.60531628826052" x2="80.15889683880371" y2="215.60531628826052" stroke="#666" stroke-width="1"/>
<text x="80.15889683880371" y="219.60531628826052" text-anchor="end" font-size="12" font-family="sans-serif" fill="#000">Matplotlib</text>
<path class="glyphx-point series-64224" tabindex="0" role="graphics-symbol" d="M 250,220 L 167.16980018262865,131.79479608200919 A 121.00000000000001,121.00000000000001 0 0,1 294.5430708748461,107.49704520752158 Z" fill="#c94778" stroke="#fff" stroke-width="1" data-label="Plotly" data-value="18"/>
<line x1="227.32686093512743" y1="101.14324266182864" x2="219.47158298791194" y2="59.964433581855076" stroke="#666" stroke-width="1"/>
<line x1="219.47158298791194" y1="59.964433581855076" x2="189.47158298791194" y2="59.964433581855076" stroke="#666" stroke-width="1"/>
<text x="189.47158298791194" y="63.964433581855076" text-anchor="end" font-size="12" font-family="sans-serif" fill="#000">Plotly</text>
<path class="glyphx-point series-64224" tabindex="0" role="graphics-symbol" d="M 250,220 L 294.5430708748461,107.49704520752158 A 121.00000000000001,121.00000000000001 0 0,1 356.03310828530755,161.70780543369253 Z" fill="#f69541" stroke="#fff" stroke-width="1" data-label="Seaborn" data-value="11"/>
<line x1="330.0187357041619" y1="129.2365605747144" x2="354.02613394569136" y2="102.00551253479347" stroke="#666" stroke-width="1"/>
<line x1="354.02613394569136" y1="102.00551253479347" x2="384.02613394569136" y2="102.00551253479347" stroke="#666" stroke-width="1"/>
<text x="384.02613394569136" y="106.00551253479347" text-anchor="start" font-size="12" font-family="sans-serif" fill="#000">Seaborn</text>
<path class="glyphx-point series-64224" tabindex="0" role="graphics-symbol" d="M 250,220 L 356.03310828530755,161.70780543369253 A 121.00000000000001,121.00000000000001 0 0,1 371.0,220.00000000000009 Z" fill="#f0f921" stroke="#fff" stroke-width="1" data-label="Other" data-value="8"/>
<line x1="367.19856249656436" y1="189.9085236530526" x2="390.6075663276798" y2="183.89811302954126" stroke="#666" stroke-width="1"/>
<line x1="390.6075663276798" y1="183.89811302954126" x2="420.6075663276798" y2="183.89811302954126" stroke="#666" stroke-width="1"/>
<text x="420.6075663276798" y="187.89811302954126" text-anchor="start" font-size="12" font-family="sans-serif" fill="#000">Other</text></svg>