<svg role="img" focusable="false" aria-labelledby="glyphx-chart-27e7727bae0d-title glyphx-chart-27e7727bae0d-desc" id="glyphx-chart-27e7727bae0d" data-glyphx="true" width="200" height="60" xmlns="http://www.w3.org/2000/svg" viewBox="0 0 200 60"><title id="glyphx-chart-27e7727bae0d-title">GlyphX Chart</title><desc id="glyphx-chart-27e7727bae0d-desc">Sparkline chart. Series: 9 data points. Ranges from 1.2 (at 0) to 3.4 (at 8).</desc><rect width="200" height="60" fill="#ffffff"/>
<line x1="50" y1="10" x2="20" y2="10" stroke="#333" />
<line x1="50" y1="50" x2="50" y2="10" stroke="#333" />
<line x1="50" x2="20" y1="10.0" y2="10.0" stroke="#ddd" stroke-dasharray="3,3" />
<line x1="46.0" x2="50" y1="10.0" y2="10.0" stroke="#000000" stroke-width="1"/>
<text x="42.0" y="14.0" text-anchor="end" font-size="11" font-family="sans-serif" fill="#000000">1.05</text>
<line x1="50" x2="20" y1="18.0" y2="18.0" stroke="#ddd" stroke-dasharray="3,3" />
<line x1="46.0" x2="50" y1="18.0" y2="18.0" stroke="#000000" stroke-width="1"/>
<text x="42.0" y="22.0" text-anchor="end" font-size="11" font-family="sans-serif" fill="#000000">1.55</text>
<line x1="50" x2="20" y1="26.0" y2="26.0" stroke="#ddd" stroke-dasharray="3,3" />
<line x1="46.0" x2="50" y1="26.0" y2="26.0" stroke="#000000" stroke-width="1"/>
<text x="42.0" y="30.0" text-anchor="end" font-size="11" font-family="sans-serif" fill="#000000">2.05</text>
<line x1="50" x2="20" y1="34.0" y2="34.0" stroke="#ddd" stroke-dasharray="3,3" />
<line x1="46.0" x2="50" y1="34.0" y2="34.0" stroke="#000000" stroke-width="1"/>
<text x="42.0" y="38.0" text-anchor="end" font-size="11" font-family="sans-serif" fill="#000000">2.55</text>
<line x1="50" x2="20" y1="42.0" y2="42.0" stroke="#ddd" stroke-dasharray="3,3" />
<line x1="46.0" x2="50" y1="42.0" y2="42.0" stroke="#000000" stroke-width="1"/>
<text x="42.0" y="46.0" text-anchor="end" font-size="11" font-family="sans-serif" fill="#000000">3.05</text>
<line x1="50" x2="20" y1="50.0" y2="50.0" stroke="#ddd" stroke-dasharray="3,3" />
<line x1="46.0" x2="50" y1="50.0" y2="50.0" stroke="#000000" stroke-width="1"/>
<text x="42.0" y="54.0" text-anchor="end" font-size="11" font-family="sans-serif" fill="#000000">3.55</text>
<line y1="50" y2="10" x1="50.0" x2="50.0" stroke="#ddd" stroke-dasharray="3,3" />
<line x1="50.0" x2="50.0" y1="10" y2="14.0" stroke="#000000" stroke-width="1"/>
<text x="50.0" y="26" text-anchor="middle" font-size="11" font-family="sans-serif" fill="#000000" >-0.50</text>
<line y1="50" y2="10" x1="44.0" x2="44.0" stroke="#ddd" stroke-dasharray="3,3" />
<line x1="44.0" x2="44.0" y1="10" y2="14.0" stroke="#000000" stroke-width="1"/>
<text x="44.0" y="26" text-anchor="middle" font-size="11" font-family="sans-serif" fill="#000000" >1.30</text>
<line y1="50" y2="10" x1="38.0" x2="38.0" stroke="#ddd" stroke-dasharray="3,3" />
<line x1="38.0" x2="38.0" y1="10" y2="14.0" stroke="#000000" stroke-width="1"/>
<text x="38.0" y="26" text-anchor="middle" font-size="11" font-family="sans-serif" fill="#000000" >3.10</text>
<line y1="50" y2="10" x1="32.0" x2="32.0" stroke="#ddd" stroke-dasharray="3,3" />
<line x1="32.0" x2="32.0" y1="10" y2="14.0" stroke="#000000" stroke-width="1"/>
<text x="32.0" y="26" text-anchor="middle" font-size="11" font-family="sans-serif" fill="#000000" >4.90</text>
<line y1="50" y2="10" x1="26.0" x2="26.0" stroke="#ddd" stroke-dasharray="3,3" />
<line x1="26.0" x2="26.0" y1="10" y2="14.0" stroke="#000000" stroke-width="1"/>
<text x="26.0" y="26" text-anchor="middle" font-size="11" font-family="sans-serif" fill="#000000" >6.70</text>
<line y1="50" y2="10" x1="20.0" x2="20.0" stroke="#ddd" stroke-dasharray="3,3" />
<line x1="20.0" x2="20.0" y1="10" y2="14.0" stroke="#000000" stroke-width="1"/>
<text x="20.0" y="26" text-anchor="middle" font-size="11" font-family="sans-serif" fill="#000000" >8.50</text>
<polygon points="48.33,12.46 48.33,12.46 45.00,22.03 41.67,17.24 38.33,30.00 35.00,36.38 31.67,26.81 28.33,42.76 25.00,39.57 21.67,47.54 21.67,12.46" fill="#2563eb" fill-opacity="0.18" stroke="none"/>
<polyline points="48.33,12.46 45.00,22.03 41.67,17.24 38.33,30.00 35.00,36.38 31.67,26.81 28.33,42.76 25.00,39.57 21.67,47.54" fill="none" stroke="#2563eb" stroke-width="1.5" stroke-linejoin="round" stroke-linecap="round"/>
<circle cx="21.67" cy="47.54" r="2.5" fill="#2563eb"/>
</svg>