<svg id="glyphx-chart-7" data-glyphx="true" width="100%" viewBox="0 0 640 460" height="auto" xmlns="http://www.w3.org/2000/svg" viewBox="0 0 640 460" role="img" focusable="false" aria-labelledby="glyphx-chart-7-title glyphx-chart-7-desc"><title id="glyphx-chart-7-title">Significance Brackets  —  fig.add_stat_annotation()</title><desc id="glyphx-chart-7-desc">Bar chart titled &quot;Significance Brackets  —  fig.add_stat_annotation()&quot;. X axis: Treatment Group. Y axis: Outcome Score (mean ± SE). Series &quot;Mean Score&quot;: 3 data points. Ranges from 44.9 (at Control) to 63.6 (at Drug A).</desc><rect width="640" height="460" fill="#ffffff"/>
<text x="320" y="28" text-anchor="middle" font-size="20" font-weight="bold" font-family="sans-serif" fill="#000000">Significance Brackets  —  fig.add_stat_annotation()</text>
<line x1="50" y1="410" x2="590" y2="410" stroke="#333" />
<line x1="50" y1="50" x2="50" y2="410" stroke="#333" />
<text x="320" y="450" text-anchor="middle" font-size="13" font-family="sans-serif" fill="#000000">Treatment Group</text>
<text x="15" y="230" text-anchor="middle" font-size="13" font-family="sans-serif" fill="#000000" transform="rotate(-90, 15, 230)">Outcome Score (mean ± SE)</text>
<line x1="50" x2="590" y1="410.0" y2="410.0" stroke="#ddd" stroke-dasharray="3,3" />
<text x="42" y="414.0" text-anchor="end" font-size="11" font-family="sans-serif" fill="#000000">0</text>
<line x1="50" x2="590" y1="338.0" y2="338.0" stroke="#ddd" stroke-dasharray="3,3" />
<text x="42" y="342.0" text-anchor="end" font-size="11" font-family="sans-serif" fill="#000000">12.7</text>
<line x1="50" x2="590" y1="266.0" y2="266.0" stroke="#ddd" stroke-dasharray="3,3" />
<text x="42" y="270.0" text-anchor="end" font-size="11" font-family="sans-serif" fill="#000000">25.4</text>
<line x1="50" x2="590" y1="194.00000000000003" y2="194.00000000000003" stroke="#ddd" stroke-dasharray="3,3" />
<text x="42" y="198.00000000000003" text-anchor="end" font-size="11" font-family="sans-serif" fill="#000000">38.2</text>
<line x1="50" x2="590" y1="121.99999999999994" y2="121.99999999999994" stroke="#ddd" stroke-dasharray="3,3" />
<text x="42" y="125.99999999999994" text-anchor="end" font-size="11" font-family="sans-serif" fill="#000000">50.9</text>
<line x1="50" x2="590" y1="50.0" y2="50.0" stroke="#ddd" stroke-dasharray="3,3" />
<text x="42" y="54.0" text-anchor="end" font-size="11" font-family="sans-serif" fill="#000000">63.6</text>
<line y1="50" y2="410" x1="140.0" x2="140.0" stroke="#ddd" stroke-dasharray="3,3" />
<text x="140.0" y="426" text-anchor="middle" font-size="11" font-family="sans-serif" fill="#000000" >Control</text>
<line y1="50" y2="410" x1="320.0" x2="320.0" stroke="#ddd" stroke-dasharray="3,3" />
<text x="320.0" y="426" text-anchor="middle" font-size="11" font-family="sans-serif" fill="#000000" >Drug A</text>
<line y1="50" y2="410" x1="500.0" x2="500.0" stroke="#ddd" stroke-dasharray="3,3" />
<text x="500.0" y="426" text-anchor="middle" font-size="11" font-family="sans-serif" fill="#000000" >Drug B</text>
<rect class="glyphx-point series-56192" tabindex="0" role="graphics-symbol" x="68.0" y="155.92568009005248" width="144.0" height="254.07431990994752" fill="#60a5fa" stroke="#00000033" data-x="Control" data-y="44.8764758513449" data-label="Mean Score"/>
<line x1="140.0" x2="140.0" y1="160.6904066674851" y2="151.1609535126198" stroke="#333" stroke-width="1.5"/>
<line x1="135.0" x2="145.0" y1="160.6904066674851" y2="160.6904066674851" stroke="#333" stroke-width="1.5"/>
<line x1="135.0" x2="145.0" y1="151.1609535126198" y2="151.1609535126198" stroke="#333" stroke-width="1.5"/>
<rect class="glyphx-point series-56192" tabindex="0" role="graphics-symbol" x="248.0" y="50.0" width="144.0" height="360.0" fill="#60a5fa" stroke="#00000033" data-x="Drug A" data-y="63.58584886583668" data-label="Mean Score"/>
<line x1="320.0" x2="320.0" y1="54.76472657743261" y2="45.23527342256739" stroke="#333" stroke-width="1.5"/>
<line x1="315.0" x2="325.0" y1="54.76472657743261" y2="54.76472657743261" stroke="#333" stroke-width="1.5"/>
<line x1="315.0" x2="325.0" y1="45.23527342256739" y2="45.23527342256739" stroke="#333" stroke-width="1.5"/>
<rect class="glyphx-point series-56192" tabindex="0" role="graphics-symbol" x="428.0" y="89.22340955878536" width="144.0" height="320.77659044121464" fill="#60a5fa" stroke="#00000033" data-x="Drug B" data-y="56.65792166525963" data-label="Mean Score"/>
<line x1="500.0" x2="500.0" y1="93.98813613621797" y2="84.4586829813527" stroke="#333" stroke-width="1.5"/>
<line x1="495.0" x2="505.0" y1="93.98813613621797" y2="93.98813613621797" stroke="#333" stroke-width="1.5"/>
<line x1="495.0" x2="505.0" y1="84.4586829813527" y2="84.4586829813527" stroke="#333" stroke-width="1.5"/>
<g class="glyphx-legend">
<rect x="520" y="20" width="12" height="12" fill="#60a5fa" class="legend-icon" data-target="series-56192" />
<text x="540" y="30" font-size="12" font-family="sans-serif" fill="#000000" class="legend-label" data-target="series-56192">Mean Score</text>
</g>
<line x1="140.0" x2="140.0" y1="42.0" y2="34.0" stroke="#222" stroke-width="1.5"/>
<line x1="140.0" x2="320.0" y1="34.0" y2="34.0" stroke="#222" stroke-width="1.5"/>
<line x1="320.0" x2="320.0" y1="34.0" y2="42.0" stroke="#222" stroke-width="1.5"/>
<text x="230.0" y="30.0" text-anchor="middle" font-size="16" fill="#222">***</text>
<line x1="140.0" x2="140.0" y1="10.0" y2="2.0" stroke="#222" stroke-width="1.5"/>
<line x1="140.0" x2="500.0" y1="2.0" y2="2.0" stroke="#222" stroke-width="1.5"/>
<line x1="500.0" x2="500.0" y1="2.0" y2="10.0" stroke="#222" stroke-width="1.5"/>
<text x="320.0" y="-2.0" text-anchor="middle" font-size="16" fill="#222">*</text></svg>