<svg role="img" focusable="false" aria-labelledby="glyphx-chart-10-title glyphx-chart-10-desc" id="glyphx-chart-10" data-glyphx="true" width="640" height="460" xmlns="http://www.w3.org/2000/svg" viewBox="0 0 640 460"><title id="glyphx-chart-10-title">Statistical Significance Brackets  —  add_stat_annotation()</title><desc id="glyphx-chart-10-desc">Bar chart titled &quot;Statistical Significance Brackets  —  add_stat_annotation()&quot;. X axis: Group. Y axis: Outcome Score. Series &quot;Mean Score&quot;: 3 data points. Ranges from 46.3 (at Control) to 61.5 (at Drug A).</desc><rect width="640" height="460" fill="#ffffff"/>
<text x="320" y="28" text-anchor="middle" font-size="20" font-weight="bold" font-family="sans-serif" fill="#000000">Statistical Significance Brackets  —  add_stat_annotation()</text>
<line x1="50" y1="410" x2="590" y2="410" stroke="#333" />
<line x1="50" y1="50" x2="50" y2="410" stroke="#333" />
<text x="320" y="450" text-anchor="middle" font-size="13" font-family="sans-serif" fill="#000000">Group</text>
<text x="15" y="230" text-anchor="middle" font-size="13" font-family="sans-serif" fill="#000000" transform="rotate(-90, 15, 230)">Outcome Score</text>
<line x1="50" x2="590" y1="410.0" y2="410.0" stroke="#ddd" stroke-dasharray="3,3" />
<text x="42" y="414.0" text-anchor="end" font-size="11" font-family="sans-serif" fill="#000000">0</text>
<line x1="50" x2="590" y1="338.0" y2="338.0" stroke="#ddd" stroke-dasharray="3,3" />
<text x="42" y="342.0" text-anchor="end" font-size="11" font-family="sans-serif" fill="#000000">12.3</text>
<line x1="50" x2="590" y1="266.0" y2="266.0" stroke="#ddd" stroke-dasharray="3,3" />
<text x="42" y="270.0" text-anchor="end" font-size="11" font-family="sans-serif" fill="#000000">24.6</text>
<line x1="50" x2="590" y1="194.0" y2="194.0" stroke="#ddd" stroke-dasharray="3,3" />
<text x="42" y="198.0" text-anchor="end" font-size="11" font-family="sans-serif" fill="#000000">36.9</text>
<line x1="50" x2="590" y1="121.99999999999994" y2="121.99999999999994" stroke="#ddd" stroke-dasharray="3,3" />
<text x="42" y="125.99999999999994" text-anchor="end" font-size="11" font-family="sans-serif" fill="#000000">49.2</text>
<line x1="50" x2="590" y1="50.0" y2="50.0" stroke="#ddd" stroke-dasharray="3,3" />
<text x="42" y="54.0" text-anchor="end" font-size="11" font-family="sans-serif" fill="#000000">61.5</text>
<line y1="50" y2="410" x1="140.0" x2="140.0" stroke="#ddd" stroke-dasharray="3,3" />
<text x="140.0" y="426" text-anchor="middle" font-size="11" font-family="sans-serif" fill="#000000" >Control</text>
<line y1="50" y2="410" x1="320.0" x2="320.0" stroke="#ddd" stroke-dasharray="3,3" />
<text x="320.0" y="426" text-anchor="middle" font-size="11" font-family="sans-serif" fill="#000000" >Drug A</text>
<line y1="50" y2="410" x1="500.0" x2="500.0" stroke="#ddd" stroke-dasharray="3,3" />
<text x="500.0" y="426" text-anchor="middle" font-size="11" font-family="sans-serif" fill="#000000" >Drug B</text>
<rect class="glyphx-point series-32016" tabindex="0" role="graphics-symbol" x="68.0" y="139.04035086771546" width="144.0" height="270.95964913228454" fill="#60a5fa" stroke="#00000033" data-x="Control" data-y="46.25857280582905" data-label="Mean Score"/>
<line x1="140.0" x2="140.0" y1="144.44985503832066" y2="133.6308466971102" stroke="#333" stroke-width="1.5"/>
<line x1="135.0" x2="145.0" y1="144.44985503832066" y2="144.44985503832066" stroke="#333" stroke-width="1.5"/>
<line x1="135.0" x2="145.0" y1="133.6308466971102" y2="133.6308466971102" stroke="#333" stroke-width="1.5"/>
<rect class="glyphx-point series-32016" tabindex="0" role="graphics-symbol" x="248.0" y="50.0" width="144.0" height="360.0" fill="#60a5fa" stroke="#00000033" data-x="Drug A" data-y="61.45965372861954" data-label="Mean Score"/>
<line x1="320.0" x2="320.0" y1="55.40950417060526" y2="44.5904958293948" stroke="#333" stroke-width="1.5"/>
<line x1="315.0" x2="325.0" y1="55.40950417060526" y2="55.40950417060526" stroke="#333" stroke-width="1.5"/>
<line x1="315.0" x2="325.0" y1="44.5904958293948" y2="44.5904958293948" stroke="#333" stroke-width="1.5"/>
<rect class="glyphx-point series-32016" tabindex="0" role="graphics-symbol" x="428.0" y="63.44470848202758" width="144.0" height="346.5552915179724" fill="#60a5fa" stroke="#00000033" data-x="Drug B" data-y="59.16435615143163" data-label="Mean Score"/>
<line x1="500.0" x2="500.0" y1="68.85421265263273" y2="58.03520431142232" stroke="#333" stroke-width="1.5"/>
<line x1="495.0" x2="505.0" y1="68.85421265263273" y2="68.85421265263273" stroke="#333" stroke-width="1.5"/>
<line x1="495.0" x2="505.0" y1="58.03520431142232" y2="58.03520431142232" stroke="#333" stroke-width="1.5"/>
<g class="glyphx-legend">
<rect x="520" y="20" width="12" height="12" fill="#60a5fa" class="legend-icon" data-target="series-32016" />
<text x="540" y="30" font-size="12" font-family="sans-serif" fill="#000000" class="legend-label" data-target="series-32016">Mean Score</text>
</g>
<line x1="140.0" x2="140.0" y1="42.0" y2="34.0" stroke="#222" stroke-width="1.5"/>
<line x1="140.0" x2="320.0" y1="34.0" y2="34.0" stroke="#222" stroke-width="1.5"/>
<line x1="320.0" x2="320.0" y1="34.0" y2="42.0" stroke="#222" stroke-width="1.5"/>
<text x="230.0" y="30.0" text-anchor="middle" font-size="16" fill="#222">***</text>
<line x1="140.0" x2="140.0" y1="12.0" y2="4.0" stroke="#222" stroke-width="1.5"/>
<line x1="140.0" x2="500.0" y1="4.0" y2="4.0" stroke="#222" stroke-width="1.5"/>
<line x1="500.0" x2="500.0" y1="4.0" y2="12.0" stroke="#222" stroke-width="1.5"/>
<text x="320.0" y="0.0" text-anchor="middle" font-size="16" fill="#222">*</text></svg>