<svg role="img" focusable="false" aria-labelledby="glyphx-chart-21-title glyphx-chart-21-desc" id="glyphx-chart-21" data-glyphx="true" width="760" height="460" xmlns="http://www.w3.org/2000/svg" viewBox="0 0 760 460"><title id="glyphx-chart-21-title">Live Sensor Feed  —  StreamingSeries(max_points=120)</title><desc id="glyphx-chart-21-desc">Streaming chart titled &quot;Live Sensor Feed  —  StreamingSeries(max_points=120)&quot;. Series &quot;Sensor A&quot;: 120 data points. Ranges from 16.5 (at 136) to 39.1 (at 101). Series &quot;Sensor B&quot;: 120 data points. Ranges from 11.9 (at 192) to 31.7 (at 80).</desc><rect width="760" height="460" fill="#ffffff"/>
<text x="380" y="28" text-anchor="middle" font-size="20" font-weight="bold" font-family="sans-serif" fill="#000000">Live Sensor Feed  —  StreamingSeries(max_points=120)</text>
<line x1="50" y1="410" x2="710" y2="410" stroke="#333" />
<line x1="50" y1="50" x2="50" y2="410" stroke="#333" />
<line x1="50" x2="710" y1="410.0" y2="410.0" stroke="#ddd" stroke-dasharray="3,3" />
<text x="42" y="414.0" text-anchor="end" font-size="11" font-family="sans-serif" fill="#000000">11.9</text>
<line x1="50" x2="710" y1="338.0" y2="338.0" stroke="#ddd" stroke-dasharray="3,3" />
<text x="42" y="342.0" text-anchor="end" font-size="11" font-family="sans-serif" fill="#000000">17.3</text>
<line x1="50" x2="710" y1="266.0" y2="266.0" stroke="#ddd" stroke-dasharray="3,3" />
<text x="42" y="270.0" text-anchor="end" font-size="11" font-family="sans-serif" fill="#000000">22.8</text>
<line x1="50" x2="710" y1="193.99999999999994" y2="193.99999999999994" stroke="#ddd" stroke-dasharray="3,3" />
<text x="42" y="197.99999999999994" text-anchor="end" font-size="11" font-family="sans-serif" fill="#000000">28.2</text>
<line x1="50" x2="710" y1="121.99999999999994" y2="121.99999999999994" stroke="#ddd" stroke-dasharray="3,3" />
<text x="42" y="125.99999999999994" text-anchor="end" font-size="11" font-family="sans-serif" fill="#000000">33.6</text>
<line x1="50" x2="710" y1="50.0" y2="50.0" stroke="#ddd" stroke-dasharray="3,3" />
<text x="42" y="54.0" text-anchor="end" font-size="11" font-family="sans-serif" fill="#000000">39.1</text>
<line y1="50" y2="410" x1="50.0" x2="50.0" stroke="#ddd" stroke-dasharray="3,3" />
<text x="50.0" y="426" text-anchor="middle" font-size="11" font-family="sans-serif" fill="#000000" >79.5</text>
<line y1="50" y2="410" x1="182.0" x2="182.0" stroke="#ddd" stroke-dasharray="3,3" />
<text x="182.0" y="426" text-anchor="middle" font-size="11" font-family="sans-serif" fill="#000000" >104</text>
<line y1="50" y2="410" x1="314.0" x2="314.0" stroke="#ddd" stroke-dasharray="3,3" />
<text x="314.0" y="426" text-anchor="middle" font-size="11" font-family="sans-serif" fill="#000000" >128</text>
<line y1="50" y2="410" x1="446.0" x2="446.0" stroke="#ddd" stroke-dasharray="3,3" />
<text x="446.0" y="426" text-anchor="middle" font-size="11" font-family="sans-serif" fill="#000000" >152</text>
<line y1="50" y2="410" x1="578.0" x2="578.0" stroke="#ddd" stroke-dasharray="3,3" />
<text x="578.0" y="426" text-anchor="middle" font-size="11" font-family="sans-serif" fill="#000000" >176</text>
<line y1="50" y2="410" x1="710.0" x2="710.0" stroke="#ddd" stroke-dasharray="3,3" />
<text x="710.0" y="426" text-anchor="middle" font-size="11" font-family="sans-serif" fill="#000000" >200</text>
<polyline class="series-99728" fill="none" stroke="#2563eb" stroke-width="2.0" points="52.8,190.0 58.2,154.8 63.8,179.0 69.2,166.2 74.8,146.9 80.2,125.2 85.8,123.7 91.2,143.3 96.8,112.3 102.2,106.9 107.8,106.7 113.2,103.3 118.8,59.2 124.2,87.6 129.8,90.1 135.2,62.5 140.8,67.3 146.2,68.2 151.8,52.9 157.2,56.7 162.8,58.7 168.2,50.0 173.8,62.4 179.2,79.2 184.8,78.4 190.2,84.9 195.8,78.1 201.2,104.0 206.8,122.2 212.2,98.5 217.8,128.5 223.2,146.2 228.8,117.8 234.2,143.9 239.8,134.1 245.2,160.1 250.8,179.4 256.2,191.5 261.8,190.3 267.2,196.8 272.8,216.0 278.2,217.8 283.8,248.0 289.2,233.5 294.8,272.2 300.2,256.4 305.8,251.5 311.2,254.0 316.8,252.5 322.2,312.3 327.8,282.9 333.2,282.4 338.8,292.1 344.2,327.7 349.8,311.0 355.2,291.9 360.8,348.3 366.2,319.2 371.8,310.6 377.2,340.0 382.8,319.5 388.2,344.8 393.8,338.9 399.2,336.4 404.8,316.9 410.2,317.3 415.8,295.8 421.2,320.2 426.8,301.1 432.2,276.8 437.8,275.6 443.2,297.5 448.8,257.3 454.2,266.5 459.8,243.4 465.2,235.0 470.8,210.4 476.2,217.7 481.8,238.6 487.2,220.5 492.8,176.7 498.2,182.1 503.8,149.6 509.2,153.3 514.8,159.6 520.2,121.0 525.8,141.8 531.2,152.9 536.8,79.2 542.2,134.6 547.8,87.0 553.2,75.6 558.8,82.3 564.2,106.2 569.8,58.8 575.2,94.1 580.8,89.7 586.2,71.9 591.8,52.4 597.2,59.6 602.8,51.8 608.2,72.9 613.8,70.6 619.2,88.7 624.8,79.2 630.2,69.1 635.8,88.3 641.2,81.7 646.8,104.8 652.2,112.2 657.8,109.8 663.2,121.7 668.8,117.8 674.2,133.5 679.8,118.2 685.2,159.1 690.8,169.3 696.2,192.4 701.8,185.9 707.2,185.8"/>
<polyline class="series-20608" fill="none" stroke="#dc2626" stroke-width="2.0" points="52.8,148.2 58.2,190.7 63.8,195.9 69.2,184.4 74.8,195.5 80.2,158.3 85.8,178.5 91.2,201.5 96.8,202.4 102.2,152.6 107.8,213.6 113.2,222.4 118.8,212.2 124.2,214.0 129.8,228.0 135.2,253.7 140.8,265.6 146.2,245.8 151.8,264.4 157.2,297.9 162.8,261.7 168.2,276.3 173.8,300.6 179.2,309.1 184.8,309.2 190.2,331.5 195.8,349.4 201.2,330.0 206.8,364.7 212.2,342.0 217.8,377.0 223.2,361.1 228.8,366.5 234.2,340.4 239.8,389.3 245.2,398.1 250.8,388.4 256.2,397.9 261.8,390.6 267.2,375.2 272.8,369.5 278.2,354.7 283.8,391.4 289.2,335.8 294.8,343.5 300.2,375.0 305.8,404.2 311.2,364.7 316.8,357.3 322.2,389.4 327.8,345.8 333.2,343.7 338.8,346.2 344.2,316.6 349.8,303.1 355.2,319.0 360.8,299.7 366.2,305.6 371.8,299.4 377.2,277.3 382.8,261.9 388.2,270.8 393.8,288.8 399.2,236.3 404.8,263.0 410.2,228.1 415.8,194.4 421.2,215.9 426.8,227.8 432.2,225.9 437.8,178.3 443.2,191.9 448.8,178.3 454.2,167.9 459.8,179.8 465.2,180.9 470.8,188.6 476.2,220.8 481.8,194.8 487.2,171.3 492.8,173.2 498.2,164.9 503.8,174.8 509.2,172.4 514.8,165.2 520.2,195.2 525.8,189.7 531.2,215.2 536.8,179.3 542.2,199.7 547.8,198.6 553.2,188.4 558.8,202.7 564.2,228.0 569.8,222.1 575.2,265.1 580.8,243.5 586.2,256.4 591.8,292.6 597.2,254.0 602.8,294.8 608.2,281.0 613.8,306.7 619.2,292.4 624.8,295.2 630.2,336.8 635.8,355.2 641.2,340.0 646.8,331.0 652.2,356.5 657.8,366.0 663.2,353.7 668.8,410.0 674.2,380.8 679.8,395.7 685.2,372.0 690.8,390.6 696.2,398.3 701.8,387.2 707.2,405.2"/>
<g class="glyphx-legend">
<rect x="654" y="20" width="12" height="12" fill="#2563eb" class="legend-icon" data-target="series-99728" />
<text x="674" y="30" font-size="12" font-family="sans-serif" fill="#000000" class="legend-label" data-target="series-99728">Sensor A</text>
<rect x="654" y="42" width="12" height="12" fill="#dc2626" class="legend-icon" data-target="series-20608" />
<text x="674" y="52" font-size="12" font-family="sans-serif" fill="#000000" class="legend-label" data-target="series-20608">Sensor B</text>
</g></svg>