<svg role="img" focusable="false" aria-labelledby="glyphx-chart-21-title glyphx-chart-21-desc" id="glyphx-chart-21" data-glyphx="true" width="760" height="460" xmlns="http://www.w3.org/2000/svg" viewBox="0 0 760 460"><title id="glyphx-chart-21-title">Live Sensor Feed  —  StreamingSeries(max_points=100)</title><desc id="glyphx-chart-21-desc">Streaming chart titled &quot;Live Sensor Feed  —  StreamingSeries(max_points=100)&quot;. Series &quot;Sensor&quot;: 100 data points. Ranges from 12.5 (at 185) to 36.1 (at 155).</desc><rect width="760" height="460" fill="#ffffff"/>
<text x="380" y="28" text-anchor="middle" font-size="20" font-weight="bold" font-family="sans-serif" fill="#000000">Live Sensor Feed  —  StreamingSeries(max_points=100)</text>
<line x1="50" y1="410" x2="710" y2="410" stroke="#333" />
<line x1="50" y1="50" x2="50" y2="410" stroke="#333" />
<line x1="50" x2="710" y1="410.0" y2="410.0" stroke="#ddd" stroke-dasharray="3,3" />
<text x="42" y="414.0" text-anchor="end" font-size="11" font-family="sans-serif" fill="#000000">12.5</text>
<line x1="50" x2="710" y1="338.0" y2="338.0" stroke="#ddd" stroke-dasharray="3,3" />
<text x="42" y="342.0" text-anchor="end" font-size="11" font-family="sans-serif" fill="#000000">17.2</text>
<line x1="50" x2="710" y1="266.0" y2="266.0" stroke="#ddd" stroke-dasharray="3,3" />
<text x="42" y="270.0" text-anchor="end" font-size="11" font-family="sans-serif" fill="#000000">22.0</text>
<line x1="50" x2="710" y1="194.00000000000003" y2="194.00000000000003" stroke="#ddd" stroke-dasharray="3,3" />
<text x="42" y="198.00000000000003" text-anchor="end" font-size="11" font-family="sans-serif" fill="#000000">26.7</text>
<line x1="50" x2="710" y1="122.00000000000006" y2="122.00000000000006" stroke="#ddd" stroke-dasharray="3,3" />
<text x="42" y="126.00000000000006" text-anchor="end" font-size="11" font-family="sans-serif" fill="#000000">31.4</text>
<line x1="50" x2="710" y1="50.0" y2="50.0" stroke="#ddd" stroke-dasharray="3,3" />
<text x="42" y="54.0" text-anchor="end" font-size="11" font-family="sans-serif" fill="#000000">36.1</text>
<line y1="50" y2="410" x1="50.0" x2="50.0" stroke="#ddd" stroke-dasharray="3,3" />
<text x="50.0" y="426" text-anchor="middle" font-size="11" font-family="sans-serif" fill="#000000" >99.5</text>
<line y1="50" y2="410" x1="182.0" x2="182.0" stroke="#ddd" stroke-dasharray="3,3" />
<text x="182.0" y="426" text-anchor="middle" font-size="11" font-family="sans-serif" fill="#000000" >120</text>
<line y1="50" y2="410" x1="314.0" x2="314.0" stroke="#ddd" stroke-dasharray="3,3" />
<text x="314.0" y="426" text-anchor="middle" font-size="11" font-family="sans-serif" fill="#000000" >140</text>
<line y1="50" y2="410" x1="446.0" x2="446.0" stroke="#ddd" stroke-dasharray="3,3" />
<text x="446.0" y="426" text-anchor="middle" font-size="11" font-family="sans-serif" fill="#000000" >160</text>
<line y1="50" y2="410" x1="578.0" x2="578.0" stroke="#ddd" stroke-dasharray="3,3" />
<text x="578.0" y="426" text-anchor="middle" font-size="11" font-family="sans-serif" fill="#000000" >180</text>
<line y1="50" y2="410" x1="710.0" x2="710.0" stroke="#ddd" stroke-dasharray="3,3" />
<text x="710.0" y="426" text-anchor="middle" font-size="11" font-family="sans-serif" fill="#000000" >200</text>
<polyline class="series-1872" fill="none" stroke="#7c3aed" stroke-width="2.0" points="53.3,246.6 59.9,232.7 66.5,246.5 73.1,302.3 79.7,271.6 86.3,308.6 92.9,275.1 99.5,315.5 106.1,290.3 112.7,349.6 119.3,354.1 125.9,347.9 132.5,336.7 139.1,352.7 145.7,397.4 152.3,367.2 158.9,371.6 165.5,381.4 172.1,384.5 178.7,326.4 185.3,370.7 191.9,375.2 198.5,334.2 205.1,337.6 211.7,333.0 218.3,303.0 224.9,298.5 231.5,289.3 238.1,262.8 244.7,265.1 251.3,271.9 257.9,251.9 264.5,241.2 271.1,210.0 277.7,225.1 284.3,228.1 290.9,170.3 297.5,189.4 304.1,190.5 310.7,125.0 317.3,138.3 323.9,100.0 330.5,113.9 337.1,118.8 343.7,114.1 350.3,91.1 356.9,80.6 363.5,89.4 370.1,74.6 376.7,102.3 383.3,67.2 389.9,110.3 396.5,76.7 403.1,60.7 409.7,57.3 416.3,50.0 422.9,132.9 429.5,89.1 436.1,89.0 442.7,105.3 449.3,160.9 455.9,142.8 462.5,122.9 469.1,213.5 475.7,182.4 482.3,182.2 488.9,238.0 495.5,223.1 502.1,275.2 508.7,283.3 515.3,297.0 521.9,286.9 528.5,305.8 535.1,293.6 541.7,347.7 548.3,339.0 554.9,322.8 561.5,339.7 568.1,389.3 574.7,349.0 581.3,379.1 587.9,362.0 594.5,365.1 601.1,344.0 607.7,367.8 614.3,410.0 620.9,394.8 627.5,341.3 634.1,357.2 640.7,317.4 647.3,328.2 653.9,341.6 660.5,288.7 667.1,320.2 673.7,336.1 680.3,228.8 686.9,306.1 693.5,233.8 700.1,212.6 706.7,216.3"/>
<g class="glyphx-legend">
<rect x="668" y="20" width="12" height="12" fill="#7c3aed" class="legend-icon" data-target="series-1872" />
<text x="688" y="30" font-size="12" font-family="sans-serif" fill="#000000" class="legend-label" data-target="series-1872">Sensor</text>
</g></svg>